SplineFontDB: 3.2
FontName: SimplyMono-Book
FullName: Simply Mono Book
FamilyName: Simply Mono
Weight: Book
Copyright: Copyright (c) 2022-2026 by Wojciech Kalinowski "wmk69" with Reserved Font Name "SimplyMono-Book".\nThis Font Software is licensed under the SIL Open Font License, Version 1.1.
Version: 1.0.0; 2022-02-18
ItalicAngle: 0
UnderlinePosition: -80
UnderlineWidth: 180
Ascent: 1638
Descent: 410
InvalidEm: 0
LayerCount: 2
Layer: 0 1 "Warstwa t+AUIA-a" 1
Layer: 1 1 "Plan pierwszy" 0
XUID: [1021 783 23647091 11603082]
StyleMap: 0x0040
FSType: 0
OS2Version: 3
OS2_WeightWidthSlopeOnly: 0
OS2_UseTypoMetrics: 1
CreationTime: 1260698820
ModificationTime: 1646847288
PfmFamily: 49
TTFWeight: 400
TTFWidth: 5
LineGap: 200
VLineGap: 0
Panose: 2 11 5 9 2 2 3 6 2 4
OS2TypoAscent: 2000
OS2TypoAOffset: 0
OS2TypoDescent: -500
OS2TypoDOffset: 0
OS2TypoLinegap: 200
OS2WinAscent: 2000
OS2WinAOffset: 0
OS2WinDescent: 500
OS2WinDOffset: 0
HheadAscent: 2000
HheadAOffset: 0
HheadDescent: -500
HheadDOffset: 0
OS2SubXSize: 1434
OS2SubYSize: 1331
OS2SubXOff: 0
OS2SubYOff: 287
OS2SupXSize: 1434
OS2SupYSize: 1331
OS2SupXOff: 0
OS2SupYOff: 977
OS2StrikeYSize: 102
OS2StrikeYPos: 512
OS2CapHeight: 1510
OS2XHeight: 1100
OS2Vendor: '    '
OS2CodePages: 20000093.00000000
OS2UnicodeRanges: 8000002f.4000204b.00000000.00000000
MarkAttachClasses: 1
DEI: 91125
ShortTable: maxp 16
  0
  0
  0
  0
  0
  0
  0
  2
  1
  2
  22
  0
  256
  0
  0
  0
EndShort
TtTable: prep
PUSHW_1
 511
SCANCTRL
PUSHB_1
 1
SCANTYPE
SVTCA[y-axis]
MPPEM
PUSHB_1
 8
LT
IF
PUSHB_2
 1
 1
INSTCTRL
EIF
PUSHB_2
 70
 6
CALL
IF
POP
PUSHB_1
 16
EIF
MPPEM
PUSHB_1
 20
GT
IF
POP
PUSHB_1
 128
EIF
SCVTCI
PUSHB_1
 6
CALL
NOT
IF
SVTCA[y-axis]
PUSHB_1
 4
DUP
RCVT
PUSHB_1
 3
CALL
WCVTP
PUSHB_1
 7
DUP
RCVT
PUSHB_3
 4
 224
 2
CALL
PUSHB_1
 3
CALL
WCVTP
PUSHB_1
 6
DUP
RCVT
PUSHB_3
 7
 109
 2
CALL
PUSHB_1
 3
CALL
WCVTP
PUSHB_1
 5
DUP
RCVT
PUSHB_3
 6
 32
 2
CALL
PUSHB_1
 3
CALL
WCVTP
SVTCA[x-axis]
PUSHB_1
 8
DUP
RCVT
PUSHB_1
 3
CALL
WCVTP

StartChar: .notdef
Encoding: 65536 -1 0
Width: 994
Flags: W
HStem: 0 68<260 734> 1442 68<260 734>
VStem: 150 110<68 1442> 734 110<68 1442>
LayerCount: 2
Fore
SplineSet
150 0 m 1,0,-1
 150 1510 l 1,1,-1
 844 1510 l 1,2,-1
 844 0 l 1,3,-1
 150 0 l 1,0,-1
260 68 m 1,4,-1
 734 68 l 1,5,-1
 734 1442 l 1,6,-1
 260 1442 l 1,7,-1
 260 68 l 1,4,-1
EndSplineSet
Validated: 1
EndChar

StartChar: exclam
Encoding: 33 33 4
Width: 1200
GlyphClass: 2
Flags: W
HStem: -20 264<507.253 692.777> 1480 20G<515 685>
VStem: 466 268<19.2227 205.323> 490 220<1091.88 1499.81> 530 140<400.191 808.117>
LayerCount: 2
Fore
SplineSet
600 -20 m 0,0,1
 543 -20 543 -20 506 16 c 0,2,3
 466 55 466 55 466 112 c 128,-1,4
 466 169 466 169 506 206.5 c 128,-1,5
 546 244 546 244 600 244 c 0,6,7
 659 244 659 244 694 208 c 0,8,9
 734 167 734 167 734 112 c 128,-1,10
 734 57 734 57 694 18 c 0,11,12
 655 -20 655 -20 600 -20 c 0,0,1
540 1500 m 2,13,-1
 660 1500 l 2,14,15
 710 1500 710 1500 710 1451 c 9,16,-1
 670 449 l 2,17,18
 668 400 668 400 620 400 c 2,19,-1
 580 400 l 2,20,21
 532 400 532 400 530 449 c 2,22,-1
 490 1451 l 17,23,24
 490 1500 490 1500 540 1500 c 2,13,-1
EndSplineSet
Validated: 1
EndChar

StartChar: quotedbl
Encoding: 34 34 5
Width: 1200
GlyphClass: 2
Flags: W
HStem: 1072 448<392.066 507.934 692.066 807.934>
VStem: 365 170<1281.79 1520> 665 170<1281.79 1520>
LayerCount: 2
Fore
SplineSet
706 1520 m 2,0,1
 794 1520 l 2,2,3
 835 1520 835 1520 835 1480 c 0,4,5
 835 1477 835 1477 835 1474 c 2,6,-1
 808 1112 l 2,7,8
 805 1072 805 1072 765 1072 c 2,9,-1
 735 1072 l 2,10,11
 695 1072 695 1072 692 1112 c 2,12,-1
 665 1474 l 2,13,14
 665 1477 665 1477 665 1480 c 0,15,16
 665 1520 665 1520 706 1520 c 2,0,1
406 1520 m 2,17,-1
 494 1520 l 2,18,19
 535 1520 535 1520 535 1480 c 0,20,21
 535 1477 535 1477 535 1474 c 2,22,-1
 508 1112 l 2,23,24
 505 1072 505 1072 465 1072 c 2,25,-1
 435 1072 l 2,26,27
 395 1072 395 1072 392 1112 c 2,28,-1
 365 1474 l 2,29,30
 365 1477 365 1477 365 1480 c 0,31,32
 365 1520 365 1520 406 1520 c 2,17,-1
EndSplineSet
Validated: 1
EndChar

StartChar: numbersign
Encoding: 35 35 6
Width: 1200
GlyphClass: 2
Flags: W
HStem: 517 131<123 363 495 705 837 1077> 859 131<123 363 495 705 837 1077>
VStem: 363 132<276 517 648 859 990 1230> 705 132<276 517 648 859 990 1230>
LayerCount: 2
Fore
SplineSet
495 648 m 1,0,-1
 705 648 l 1,1,-1
 705 859 l 1,2,-1
 495 859 l 1,3,-1
 495 648 l 1,0,-1
403 1230 m 2,4,-1
 455 1230 l 2,5,6
 495 1230 495 1230 495 1190 c 2,7,-1
 495 990 l 1,8,-1
 705 990 l 1,9,-1
 705 1190 l 2,10,11
 705 1230 705 1230 745 1230 c 2,12,-1
 797 1230 l 2,13,14
 837 1230 837 1230 837 1190 c 2,15,-1
 837 990 l 1,16,-1
 1037 990 l 2,17,18
 1077 990 1077 990 1077 950 c 2,19,-1
 1077 899 l 2,20,21
 1077 859 1077 859 1037 859 c 2,22,-1
 837 859 l 1,23,-1
 837 648 l 1,24,-1
 1037 648 l 2,25,26
 1077 648 1077 648 1077 608 c 2,27,-1
 1077 557 l 2,28,29
 1077 517 1077 517 1037 517 c 2,30,-1
 837 517 l 1,31,-1
 837 316 l 2,32,33
 837 276 837 276 797 276 c 2,34,-1
 745 276 l 2,35,36
 705 276 705 276 705 316 c 2,37,-1
 705 517 l 1,38,-1
 495 517 l 1,39,-1
 495 316 l 2,40,41
 495 276 495 276 455 276 c 2,42,-1
 403 276 l 2,43,44
 363 276 363 276 363 316 c 2,45,-1
 363 517 l 1,46,-1
 163 517 l 2,47,48
 123 517 123 517 123 557 c 2,49,-1
 123 608 l 2,50,51
 123 648 123 648 163 648 c 2,52,-1
 363 648 l 1,53,-1
 363 859 l 1,54,-1
 163 859 l 2,55,56
 123 859 123 859 123 899 c 2,57,-1
 123 950 l 2,58,59
 123 990 123 990 163 990 c 2,60,-1
 363 990 l 1,61,-1
 363 1190 l 2,62,63
 363 1230 363 1230 403 1230 c 2,4,-1
EndSplineSet
Validated: 1
EndChar

StartChar: dollar
Encoding: 36 36 7
Width: 1200
GlyphClass: 2
Flags: W
HStem: -20 160<383.752 550>
VStem: 247 173<1058.58 1308.4> 550 100<-180 -20 157 725 980 1352 1510.91 1690> 855 185<295.007 591.035>
LayerCount: 2
Fore
SplineSet
550 -20 m 1,0,1
 306 -20 306 -20 130 191 c 0,2,3
 120 203 120 203 120 218 c 0,4,5
 120 234 120 234 138 248 c 2,6,-1
 213 307 l 2,7,8
 226 317 226 317 238 317 c 0,9,10
 255 317 255 317 268 298 c 0,11,12
 376 140 376 140 550 140 c 1,13,-1
 550 778 l 1,14,-1
 487 811 l 2,15,16
 247 938 247 938 247 1157 c 0,17,18
 247 1333 247 1333 380 1447 c 0,19,20
 449 1507 449 1507 550 1518 c 1,21,-1
 550 1670 l 2,22,23
 550 1690 550 1690 570 1690 c 2,24,-1
 630 1690 l 2,25,26
 650 1690 650 1690 650 1670 c 2,27,-1
 650 1517 l 1,28,29
 798 1499 798 1499 899 1379 c 0,30,31
 910 1366 910 1366 910 1351 c 0,32,33
 910 1335 910 1335 892 1322 c 2,34,-1
 815 1265 l 2,35,36
 800 1254 800 1254 788 1254 c 0,37,38
 777 1254 777 1254 762 1273 c 0,39,40
 712 1334 712 1334 650 1352 c 1,41,-1
 650 925 l 1,42,-1
 785 854 l 2,43,44
 1040 720 1040 720 1040 463 c 0,45,46
 1040 294 1040 294 918 148 c 0,47,48
 810 19 810 19 650 -11 c 1,49,-1
 650 -160 l 2,50,51
 650 -180 650 -180 630 -180 c 2,52,-1
 570 -180 l 2,53,54
 550 -180 550 -180 550 -160 c 2,55,-1
 550 -20 l 1,0,1
550 980 m 1,56,-1
 550 1356 l 1,57,58
 499 1346 499 1346 466 1310 c 0,59,60
 420 1260 420 1260 420 1184 c 0,61,62
 420 1065 420 1065 550 980 c 1,56,-1
650 725 m 1,63,-1
 650 157 l 1,64,65
 714 180 714 180 765 236 c 0,66,67
 855 333 855 333 855 448 c 0,68,69
 855 616 855 616 661 719 c 2,70,-1
 650 725 l 1,63,-1
EndSplineSet
Validated: 1
EndChar

StartChar: percent
Encoding: 37 37 8
Width: 1200
GlyphClass: 2
Flags: W
HStem: -20 125<757.737 972.263> 471 125<757.737 972.263> 904 125<227.737 442.263> 1395 125<227.737 442.263>
VStem: 30 140<1087.74 1336.26> 500 140<1087.74 1336.26> 560 140<163.736 412.264> 1030 140<163.736 412.264>
DStem2: 956 1522 1090 1445 0.499465 0.866334<-1711.56 28.9864>
LayerCount: 2
Fore
SplineSet
210 -40 m 0,0,1
 198 -40 198 -40 182 -31 c 2,2,-1
 134 -3 l 2,3,4
 106 13 106 13 106 36 c 0,5,6
 106 49 106 49 116 65 c 2,7,-1
 956 1522 l 2,8,9
 972 1550 972 1550 994 1550 c 0,10,11
 1008 1550 1008 1550 1024 1541 c 2,12,-1
 1072 1513 l 2,13,14
 1098 1497 1098 1497 1098 1474 c 0,15,16
 1098 1461 1098 1461 1090 1445 c 2,17,-1
 250 -12 l 2,18,19
 234 -40 234 -40 210 -40 c 0,0,1
865 105 m 128,-1,21
 933 105 933 105 981.5 159 c 128,-1,22
 1030 213 1030 213 1030 288 c 152,-1,23
 1030 363 1030 363 981.5 417 c 128,-1,24
 933 471 933 471 865 471 c 128,-1,25
 797 471 797 471 748.5 417 c 128,-1,26
 700 363 700 363 700 288 c 152,-1,27
 700 213 700 213 748.5 159 c 128,-1,20
 797 105 797 105 865 105 c 128,-1,21
865 -20 m 128,-1,29
 738 -20 738 -20 649 70.5 c 128,-1,30
 560 161 560 161 560 288 c 152,-1,31
 560 415 560 415 649 505.5 c 128,-1,32
 738 596 738 596 865 596 c 128,-1,33
 992 596 992 596 1081 505.5 c 128,-1,34
 1170 415 1170 415 1170 288 c 152,-1,35
 1170 161 1170 161 1081 70.5 c 128,-1,28
 992 -20 992 -20 865 -20 c 128,-1,29
335 1395 m 128,-1,37
 267 1395 267 1395 218.5 1341 c 128,-1,38
 170 1287 170 1287 170 1212 c 152,-1,39
 170 1137 170 1137 218.5 1083 c 128,-1,40
 267 1029 267 1029 335 1029 c 128,-1,41
 403 1029 403 1029 451.5 1083 c 128,-1,42
 500 1137 500 1137 500 1212 c 152,-1,43
 500 1287 500 1287 451.5 1341 c 128,-1,36
 403 1395 403 1395 335 1395 c 128,-1,37
335 1520 m 128,-1,45
 462 1520 462 1520 551 1429.5 c 128,-1,46
 640 1339 640 1339 640 1212 c 152,-1,47
 640 1085 640 1085 551 994.5 c 128,-1,48
 462 904 462 904 335 904 c 128,-1,49
 208 904 208 904 119 994.5 c 128,-1,50
 30 1085 30 1085 30 1212 c 152,-1,51
 30 1339 30 1339 119 1429.5 c 128,-1,44
 208 1520 208 1520 335 1520 c 128,-1,45
EndSplineSet
Validated: 1
EndChar

StartChar: quotesingle
Encoding: 39 39 9
Width: 1200
GlyphClass: 2
Flags: W
HStem: 1072 448<542.066 657.934>
VStem: 515 170<1281.79 1520>
LayerCount: 2
Fore
SplineSet
556 1520 m 2,0,1
 644 1520 l 2,2,3
 685 1520 685 1520 685 1480 c 0,4,5
 685 1477 685 1477 685 1474 c 2,6,-1
 658 1112 l 2,7,8
 655 1072 655 1072 615 1072 c 2,9,-1
 585 1072 l 2,10,11
 545 1072 545 1072 542 1112 c 2,12,-1
 515 1474 l 2,13,14
 515 1477 515 1477 515 1480 c 0,15,16
 515 1520 515 1520 556 1520 c 2,0,1
EndSplineSet
Validated: 1
EndChar

StartChar: parenleft
Encoding: 40 40 10
Width: 1200
GlyphClass: 2
Flags: W
VStem: 430 180<393.318 1116.68>
LayerCount: 2
Fore
SplineSet
798 -250 m 2,0,1
 760 -250 760 -250 737 -216 c 0,2,3
 430 238 430 238 430 755 c 128,-1,4
 430 1272 430 1272 737 1726 c 0,5,6
 760 1760 760 1760 798 1760 c 2,7,-1
 875 1760 l 2,8,9
 912 1760 912 1760 912 1730 c 0,10,11
 912 1719 912 1719 907 1711 c 0,12,13
 610 1236 610 1236 610 755 c 128,-1,14
 610 274 610 274 907 -201 c 24,15,16
 912 -209 912 -209 912 -220 c 0,17,18
 912 -250 912 -250 875 -250 c 2,19,-1
 798 -250 l 2,0,1
EndSplineSet
Validated: 1
EndChar

StartChar: parenright
Encoding: 41 41 11
Width: 1200
GlyphClass: 2
Flags: W
VStem: 590 180<393.318 1116.68>
LayerCount: 2
Fore
SplineSet
402 -250 m 2,0,1
 325 -250 l 2,2,3
 288 -250 288 -250 288 -220 c 0,4,5
 288 -209 288 -209 293 -201 c 24,6,7
 590 274 590 274 590 755 c 128,-1,8
 590 1236 590 1236 293 1711 c 0,9,10
 288 1719 288 1719 288 1730 c 0,11,12
 288 1760 288 1760 325 1760 c 2,13,-1
 402 1760 l 2,14,15
 440 1760 440 1760 463 1726 c 0,16,17
 770 1272 770 1272 770 755 c 128,-1,18
 770 238 770 238 463 -216 c 0,19,20
 440 -250 440 -250 402 -250 c 2,0,1
EndSplineSet
Validated: 1
EndChar

StartChar: asterisk
Encoding: 42 42 12
Width: 1200
GlyphClass: 2
Flags: W
HStem: 1500 20G<554 646>
VStem: 534 132<837 1074 1283 1520>
DStem2: 306 1085 372 971 0.866296 0.499531<-24.1905 192.021 410.774 626.985>
LayerCount: 2
Fore
SplineSet
574 1520 m 2,0,-1
 626 1520 l 2,1,2
 666 1520 666 1520 666 1480 c 2,3,-1
 666 1283 l 1,4,-1
 828 1386 l 2,5,6
 839 1393 839 1393 852 1394 c 0,7,8
 870 1394 870 1394 883 1372 c 2,9,-1
 909 1327 l 2,10,11
 916 1315 916 1315 916 1303 c 0,12,13
 916 1284 916 1284 894 1272 c 2,14,-1
 722 1178 l 1,15,-1
 894 1085 l 2,16,17
 916 1073 916 1073 916 1054 c 0,18,19
 916 1042 916 1042 909 1030 c 2,20,-1
 883 985 l 2,21,22
 870 963 870 963 852 963 c 0,23,24
 841 963 841 963 828 971 c 2,25,-1
 666 1074 l 1,26,-1
 666 877 l 2,27,28
 666 837 666 837 626 837 c 2,29,-1
 574 837 l 2,30,31
 534 837 534 837 534 877 c 2,32,-1
 534 1074 l 1,33,-1
 372 971 l 2,34,35
 361 964 361 964 348 963 c 0,36,37
 330 963 330 963 317 985 c 2,38,-1
 291 1030 l 2,39,40
 284 1042 284 1042 284 1054 c 0,41,42
 284 1073 284 1073 306 1085 c 2,43,-1
 478 1178 l 1,44,-1
 306 1272 l 2,45,46
 284 1284 284 1284 284 1303 c 0,47,48
 284 1315 284 1315 291 1327 c 2,49,-1
 317 1372 l 2,50,51
 330 1394 330 1394 348 1394 c 0,52,53
 359 1394 359 1394 372 1386 c 2,54,-1
 534 1283 l 1,55,-1
 534 1480 l 2,56,57
 534 1520 534 1520 574 1520 c 2,0,-1
EndSplineSet
Validated: 1
EndChar

StartChar: plus
Encoding: 43 43 13
Width: 1200
GlyphClass: 2
Flags: W
HStem: 680 150<184.195 526 676 1015.8>
VStem: 526 150<338.195 680 830 1171.8>
LayerCount: 2
Fore
SplineSet
576 1172 m 2,0,-1
 626 1172 l 2,1,2
 676 1172 676 1172 676 1122 c 2,3,-1
 676 830 l 1,4,-1
 966 830 l 2,5,6
 1016 830 1016 830 1016 780 c 2,7,-1
 1016 730 l 2,8,9
 1016 680 1016 680 966 680 c 2,10,-1
 676 680 l 1,11,-1
 676 388 l 2,12,13
 676 338 676 338 626 338 c 2,14,-1
 576 338 l 2,15,16
 526 338 526 338 526 388 c 2,17,-1
 526 680 l 1,18,-1
 234 680 l 2,19,20
 184 680 184 680 184 730 c 2,21,-1
 184 780 l 2,22,23
 184 830 184 830 234 830 c 2,24,-1
 526 830 l 1,25,-1
 526 1122 l 2,26,27
 526 1172 526 1172 576 1172 c 2,0,-1
EndSplineSet
Validated: 1
EndChar

StartChar: comma
Encoding: 44 44 14
Width: 1200
GlyphClass: 2
Flags: W
HStem: -280 566<542 591>
VStem: 566 155<-138.81 132.254>
LayerCount: 2
Fore
SplineSet
591 286 m 0,0,1
 606 286 606 286 626 268 c 0,2,3
 721 182 721 182 721 34 c 0,4,5
 721 -141 721 -141 565 -271 c 24,6,7
 554 -280 554 -280 542 -280 c 0,8,9
 536 -280 536 -280 527 -273 c 2,10,-1
 492 -247 l 2,11,12
 479 -237 479 -237 479 -225 c 0,13,14
 479 -219 479 -219 483 -215 c 24,15,16
 566 -132 566 -132 566 -12 c 0,17,18
 566 94 566 94 491 169 c 24,19,20
 479 181 479 181 479 195 c 0,21,22
 479 216 479 216 499 230 c 2,23,-1
 571 280 l 2,24,25
 580 286 580 286 591 286 c 0,0,1
EndSplineSet
Validated: 1
EndChar

StartChar: hyphen
Encoding: 45 45 15
Width: 1200
GlyphClass: 2
Flags: W
HStem: 680 150<184.195 1015.8>
LayerCount: 2
Fore
SplineSet
234 830 m 2,0,-1
 966 830 l 2,1,2
 1016 830 1016 830 1016 780 c 2,3,4
 1016 730 l 2,5,6
 1016 680 1016 680 966 680 c 2,7,-1
 234 680 l 2,8,9
 184 680 184 680 184 730 c 2,10,-1
 184 780 l 2,11,12
 184 830 184 830 234 830 c 2,0,-1
EndSplineSet
Validated: 1
EndChar

StartChar: period
Encoding: 46 46 16
Width: 1200
GlyphClass: 2
Flags: W
HStem: -20 264<507.253 692.777>
VStem: 466 268<19.2227 205.323>
LayerCount: 2
Fore
SplineSet
600 244 m 0,0,1
 659 244 659 244 694 208 c 0,2,3
 734 167 734 167 734 112 c 128,-1,4
 734 57 734 57 694 18 c 0,5,6
 655 -20 655 -20 600 -20 c 0,7,8
 543 -20 543 -20 506 16 c 0,9,10
 466 55 466 55 466 112 c 128,-1,11
 466 169 466 169 506 206.5 c 128,-1,12
 546 244 546 244 600 244 c 0,0,1
EndSplineSet
Validated: 1
EndChar

StartChar: slash
Encoding: 47 47 17
Width: 1200
GlyphClass: 2
Flags: W
DStem2: 48 -45 182 -122 0.500243 0.865885<-28.7592 1968.18>
LayerCount: 2
Fore
SplineSet
1056 1662 m 0,0,1
 1070 1662 1070 1662 1086 1653 c 2,2,-1
 1134 1625 l 2,3,4
 1160 1609 1160 1609 1160 1586 c 0,5,6
 1160 1573 1160 1573 1152 1557 c 2,7,-1
 182 -122 l 2,8,9
 166 -150 166 -150 142 -150 c 0,10,11
 128 -150 128 -150 114 -141 c 2,12,-1
 66 -113 l 2,13,14
 40 -97 40 -97 40 -74 c 0,15,16
 40 -61 40 -61 48 -45 c 2,17,-1
 1018 1634 l 2,18,19
 1034 1662 1034 1662 1056 1662 c 0,0,1
EndSplineSet
Validated: 1
EndChar

StartChar: zero
Encoding: 48 48 18
Width: 1200
GlyphClass: 2
Flags: W
HStem: -20 160<462 737.5> 616 264<507.253 692.777> 1360 160<462.25 738>
VStem: 82 183<428.889 1071.54> 466 268<655.223 841.323> 939 179<436.701 1062.2>
LayerCount: 2
Fore
SplineSet
600 140 m 0,0,1
 751 140 751 140 843 311 c 0,2,3
 938 488 938 488 939 750 c 0,4,5
 939 1007 939 1007 843 1189 c 0,6,7
 753 1360 753 1360 600 1360 c 0,8,9
 448 1360 448 1360 357 1189 c 0,10,11
 265 1016 265 1016 265 750 c 0,12,13
 265 486 265 486 357 311 c 0,14,15
 447 140 447 140 600 140 c 0,0,1
600 -20 m 128,-1,17
 363 -20 363 -20 222 206 c 0,18,19
 82 430 82 430 82 750 c 128,-1,20
 82 1070 82 1070 222 1294 c 0,21,22
 363 1520 363 1520 600 1520 c 128,-1,23
 837 1520 837 1520 978 1294 c 0,24,25
 1118 1070 1118 1070 1118 750 c 128,-1,26
 1118 430 1118 430 978 206 c 0,27,16
 837 -20 837 -20 600 -20 c 128,-1,17
600 880 m 0,28,29
 659 880 659 880 694 844 c 0,30,31
 734 803 734 803 734 748 c 128,-1,32
 734 693 734 693 694 654 c 0,33,34
 655 616 655 616 600 616 c 0,35,36
 543 616 543 616 506 652 c 0,37,38
 466 691 466 691 466 748 c 128,-1,39
 466 805 466 805 506 842.5 c 128,-1,40
 546 880 546 880 600 880 c 0,28,29
EndSplineSet
Validated: 1
EndChar

StartChar: one
Encoding: 49 49 19
Width: 1200
GlyphClass: 2
Flags: W
HStem: 0 160<240.11 530 710 999.89> 1100 21G<273 410.5> 1480 20G<490.5 685>
VStem: 530 180<160 1270>
DStem2: 262 1152 446 1134 0.532288 0.846564<14.3307 242.548>
LayerCount: 2
Fore
SplineSet
290 0 m 2,0,1
 240 0 240 0 240 49 c 2,2,-1
 240 111 l 2,3,4
 240 160 240 160 290 160 c 2,5,-1
 530 160 l 1,6,-1
 530 1270 l 1,7,-1
 446 1134 l 2,8,9
 425 1100 425 1100 396 1100 c 2,10,-1
 292 1100 l 2,11,12
 254 1100 254 1100 254 1126 c 0,13,14
 254 1139 254 1139 262 1152 c 2,15,-1
 450 1451 l 2,16,17
 481 1500 481 1500 500 1500 c 2,18,-1
 660 1500 l 2,19,20
 710 1500 710 1500 710 1451 c 2,21,-1
 710 160 l 25,22,-1
 950 160 l 2,23,24
 1000 160 1000 160 1000 111 c 2,25,-1
 1000 49 l 2,26,27
 1000 0 1000 0 950 0 c 2,28,-1
 290 0 l 2,0,1
EndSplineSet
Validated: 1
EndChar

StartChar: two
Encoding: 50 50 20
Width: 1200
GlyphClass: 2
Flags: W
HStem: 0 162<320 1044> 1350 170<412.799 729.555>
VStem: 130 190<162 259.781> 862 180<883.878 1219.71>
DStem2: 392 524 508 402 0.803223 0.595679<-229.254 569.603>
LayerCount: 2
Fore
SplineSet
170 0 m 2,0,1
 130 0 130 0 130 40 c 0,2,3
 130 330 130 330 392 524 c 2,4,-1
 690 745 l 2,5,6
 862 873 862 873 862 1050 c 0,7,8
 862 1191 862 1191 776.5 1270.5 c 128,-1,9
 691 1350 691 1350 567 1350 c 0,10,11
 441 1350 441 1350 354 1258 c 0,12,13
 320 1222 320 1222 299 1178 c 24,14,15
 287 1153 287 1153 265 1153 c 0,16,17
 258 1153 258 1153 247 1159 c 2,18,-1
 159 1207 l 2,19,20
 133 1221 133 1221 133 1240 c 0,21,22
 133 1248 133 1248 141 1262 c 0,23,24
 185 1337 185 1337 229 1382 c 0,25,26
 365 1520 365 1520 566 1520 c 0,27,28
 764 1520 764 1520 902 1382 c 0,29,30
 1042 1243 1042 1243 1042 1048 c 0,31,32
 1042 798 1042 798 778 602 c 2,33,-1
 508 402 l 2,34,35
 320 263 320 263 320 162 c 1,36,-1
 1004 162 l 2,37,38
 1044 162 1044 162 1044 123 c 2,39,-1
 1044 40 l 2,40,41
 1044 0 1044 0 1004 0 c 2,42,-1
 170 0 l 2,0,1
EndSplineSet
Validated: 1
EndChar

StartChar: three
Encoding: 51 51 21
Width: 1200
GlyphClass: 2
Flags: W
HStem: -20 162<385.204 721.673> 1338 162<210 762>
VStem: 870 180<292.807 635.059>
DStem2: 368 812 640 921 0.599513 0.800365<250.307 657.2>
LayerCount: 2
Fore
SplineSet
556 -20 m 0,0,1
 344 -20 344 -20 202 119 c 0,2,3
 148 172 148 172 118 223 c 0,4,5
 110 237 110 237 110 245 c 0,6,7
 110 264 110 264 136 278 c 2,8,-1
 220 324 l 2,9,10
 231 330 231 330 238 330 c 0,11,12
 261 330 261 330 272 305 c 24,13,14
 292 263 292 263 332 226 c 0,15,16
 423 142 423 142 556 142 c 0,17,18
 706 142 706 142 796 250 c 0,19,20
 870 339 870 339 870 466 c 0,21,22
 870 580 870 580 808 662 c 0,23,24
 726 771 726 771 556 771 c 2,25,-1
 406 771 l 2,26,27
 362 771 362 771 362 791 c 0,28,29
 362 804 362 804 368 812 c 2,30,-1
 762 1338 l 1,31,-1
 250 1338 l 2,32,33
 210 1338 210 1338 210 1377 c 2,34,-1
 210 1460 l 2,35,36
 210 1500 210 1500 250 1500 c 2,37,-1
 928 1500 l 2,38,39
 968 1500 968 1500 968 1460 c 2,40,-1
 968 1377 l 2,41,42
 968 1357 968 1357 958 1344 c 2,43,-1
 640 921 l 1,44,45
 798 903 798 903 916 798 c 0,46,47
 1050 678 1050 678 1050 468 c 0,48,49
 1050 266 1050 266 918 124 c 0,50,51
 784 -20 784 -20 556 -20 c 0,0,1
EndSplineSet
Validated: 1
EndChar

StartChar: four
Encoding: 52 52 22
Width: 1200
GlyphClass: 2
Flags: W
HStem: 0 21G<853 983> 320 160<321 828> 1080 20G<853 983> 1480 20G<555.5 672>
VStem: 828 180<0.191406 320 480 1099.81>
DStem2: 126 460 321 480 0.360492 0.932762<88.9513 1131.52>
LayerCount: 2
Fore
SplineSet
878 0 m 2,0,1
 828 0 828 0 828 49 c 2,2,-1
 828 320 l 1,3,-1
 170 320 l 2,4,5
 120 320 120 320 120 369 c 2,6,-1
 120 431 l 2,7,8
 120 444 120 444 126 460 c 2,9,-1
 509 1451 l 2,10,11
 528 1500 528 1500 583 1500 c 2,12,-1
 645 1500 l 2,13,14
 699 1500 699 1500 699 1471 c 0,15,16
 699 1461 699 1461 695 1451 c 2,17,-1
 321 480 l 1,18,-1
 828 480 l 1,19,-1
 828 1051 l 2,20,21
 828 1100 828 1100 878 1100 c 2,22,-1
 958 1100 l 2,23,24
 1008 1100 1008 1100 1008 1051 c 2,25,-1
 1008 49 l 2,26,27
 1008 0 1008 0 958 0 c 2,28,-1
 878 0 l 2,0,1
EndSplineSet
Validated: 1
EndChar

StartChar: five
Encoding: 53 53 23
Width: 1200
GlyphClass: 2
Flags: W
HStem: -20 160<402.68 740.732> 771 160<429 749.945> 1340 160<468 944>
VStem: 889 181<286.578 633.493>
DStem2: 253 803 429 931 0.094924 0.995485<144.129 554.984>
LayerCount: 2
Fore
SplineSet
575 -20 m 0,0,1
 365 -20 365 -20 222 117 c 0,2,3
 172 165 172 165 137 220 c 0,4,5
 130 231 130 231 130 242 c 0,6,7
 130 261 130 261 155 274 c 2,8,-1
 239 319 l 2,9,10
 250 325 250 325 259 325 c 24,11,12
 276 325 276 325 292 300 c 0,13,14
 324 250 324 250 352 223 c 0,15,16
 438 140 438 140 575 140 c 0,17,18
 723 140 723 140 816 246 c 0,19,20
 889 330 889 330 889 460.5 c 128,-1,21
 889 591 889 591 817 672 c 0,22,23
 729 771 729 771 575 771 c 2,24,-1
 291 771 l 2,25,26
 253 771 253 771 253 801 c 0,27,-1
 253 803 l 2,28,-1
 305 1460 l 2,29,30
 308 1500 308 1500 343 1500 c 2,31,-1
 904 1500 l 2,32,33
 944 1500 944 1500 944 1461 c 2,34,-1
 944 1379 l 2,35,36
 944 1340 944 1340 904 1340 c 2,37,-1
 468 1340 l 1,38,-1
 429 931 l 1,39,-1
 575 931 l 2,40,41
 792 931 792 931 931 799 c 128,-1,42
 1070 667 1070 667 1070 462 c 0,43,44
 1070 263 1070 263 938 122 c 0,45,46
 804 -20 804 -20 575 -20 c 0,0,1
EndSplineSet
Validated: 1
EndChar

StartChar: six
Encoding: 54 54 24
Width: 1200
GlyphClass: 2
Flags: W
HStem: -20 170<444.684 752.33> 798 150<495.323 751.918> 1480 20G<720.5 875>
VStem: 124 176<300.819 645.733> 900 176<301.324 644.717>
DStem2: 261 854 494 920 0.565715 0.824601<186.235 730.05 801.972 813.349>
LayerCount: 2
Fore
SplineSet
600 -20 m 0,0,1
 402 -20 402 -20 264 118 c 0,2,3
 124 257 124 257 124 464 c 0,4,5
 124 654 124 654 261 854 c 2,6,-1
 674 1456 l 2,7,8
 704 1500 704 1500 737 1500 c 2,9,-1
 854 1500 l 2,10,11
 896 1500 896 1500 896 1481 c 0,12,13
 896 1469 896 1469 885 1454 c 2,14,-1
 494 920 l 1,15,16
 546 948 546 948 618 948 c 0,17,18
 814 948 814 948 944 810 c 0,19,20
 1076 672 1076 672 1076 464 c 128,-1,21
 1076 256 1076 256 937.5 118 c 128,-1,22
 799 -20 799 -20 600 -20 c 0,0,1
600 798 m 128,-1,24
 476 798 476 798 388 706 c 128,-1,25
 300 614 300 614 300 474 c 0,26,27
 300 333 300 333 387.5 241.5 c 128,-1,28
 475 150 475 150 599 150 c 128,-1,29
 723 150 723 150 812 242 c 0,30,31
 900 336 900 336 900 474 c 128,-1,32
 900 612 900 612 812 705 c 128,-1,23
 724 798 724 798 600 798 c 128,-1,24
EndSplineSet
Validated: 1
EndChar

StartChar: seven
Encoding: 55 55 25
Width: 1200
GlyphClass: 2
Flags: W
HStem: 0 21G<347 463.5> 1340 160<150.11 818>
DStem2: 324 49 510 49 0.357594 0.933877<-2.4356 1382.29>
LayerCount: 2
Fore
SplineSet
374 0 m 2,0,1
 320 0 320 0 320 29 c 0,2,3
 320 39 320 39 324 49 c 2,4,-1
 818 1340 l 1,5,-1
 200 1340 l 2,6,7
 150 1340 150 1340 150 1389 c 2,8,-1
 150 1451 l 2,9,10
 150 1500 150 1500 200 1500 c 2,11,-1
 968 1500 l 2,12,13
 1018 1500 1018 1500 1018 1451 c 2,14,-1
 1018 1389 l 2,15,16
 1018 1376 1018 1376 1012 1360 c 2,17,-1
 510 49 l 2,18,19
 491 0 491 0 436 0 c 2,20,-1
 374 0 l 2,0,1
EndSplineSet
Validated: 1
EndChar

StartChar: eight
Encoding: 56 56 26
Width: 1200
GlyphClass: 2
Flags: W
HStem: -20 155<443.395 757.15> 745 151<464.833 733.666> 1358 162<466.716 733.141>
VStem: 125 181<275.435 606.38> 212 165<985.578 1267.33> 825 163<989.967 1266.87> 894 181<275.884 605.304>
LayerCount: 2
Fore
SplineSet
377 1126 m 128,-1,1
 377 1026 377 1026 441.5 961 c 128,-1,2
 506 896 506 896 600 896 c 0,3,4
 692 896 692 896 757 961 c 0,5,6
 825 1031 825 1031 825 1129 c 0,7,8
 825 1226 825 1226 758 1293 c 0,9,10
 693 1358 693 1358 599.5 1358 c 128,-1,11
 506 1358 506 1358 441.5 1292 c 128,-1,0
 377 1226 377 1226 377 1126 c 128,-1,1
306 440.5 m 128,-1,13
 306 309 306 309 392 222 c 128,-1,14
 478 135 478 135 600.5 135 c 128,-1,15
 723 135 723 135 809 222 c 0,16,17
 894 309 894 309 894 440.5 c 128,-1,18
 894 572 894 572 809 659 c 0,19,20
 724 745 724 745 601 745 c 128,-1,21
 478 745 478 745 392 658.5 c 128,-1,12
 306 572 306 572 306 440.5 c 128,-1,13
831 840 m 1,22,23
 899 809 899 809 937 775 c 0,24,25
 1075 650 1075 650 1075 446 c 0,26,27
 1075 244 1075 244 937 112 c 0,28,29
 798 -20 798 -20 600 -20 c 128,-1,30
 402 -20 402 -20 263.5 112 c 128,-1,31
 125 244 125 244 125 443 c 0,32,33
 125 657 125 657 262 775 c 0,34,35
 305 812 305 812 371 840 c 1,36,37
 212 946 212 946 212 1139 c 0,38,39
 212 1301 212 1301 324.5 1410.5 c 128,-1,40
 437 1520 437 1520 599 1520 c 128,-1,41
 761 1520 761 1520 874.5 1411 c 128,-1,42
 988 1302 988 1302 988 1139 c 0,43,44
 988 956 988 956 831 840 c 1,22,23
EndSplineSet
Validated: 1
EndChar

StartChar: nine
Encoding: 57 57 27
Width: 1200
GlyphClass: 2
Flags: W
HStem: 0 21G<325 479.5> 552 150<448.082 704.677> 1350 170<447.67 755.316>
VStem: 124 176<855.283 1198.68> 900 176<854.267 1199.18>
DStem2: 315 46 526 44 0.565715 0.824601<34.418 661.531>
LayerCount: 2
Fore
SplineSet
346 0 m 2,0,1
 304 0 304 0 304 19 c 0,2,3
 304 31 304 31 315 46 c 2,4,-1
 706 580 l 1,5,6
 654 552 654 552 582 552 c 0,7,8
 386 552 386 552 256 690 c 0,9,10
 124 828 124 828 124 1036 c 128,-1,11
 124 1244 124 1244 262.5 1382 c 128,-1,12
 401 1520 401 1520 600 1520 c 0,13,14
 798 1520 798 1520 936 1382 c 0,15,16
 1076 1243 1076 1243 1076 1036 c 0,17,18
 1076 846 1076 846 939 646 c 2,19,-1
 526 44 l 2,20,21
 496 0 496 0 463 0 c 2,22,-1
 346 0 l 2,0,1
600 702 m 128,-1,24
 724 702 724 702 812 794 c 128,-1,25
 900 886 900 886 900 1026 c 0,26,27
 900 1167 900 1167 812.5 1258.5 c 128,-1,28
 725 1350 725 1350 601 1350 c 128,-1,29
 477 1350 477 1350 388 1258 c 0,30,31
 300 1164 300 1164 300 1026 c 128,-1,32
 300 888 300 888 388 795 c 128,-1,23
 476 702 476 702 600 702 c 128,-1,24
EndSplineSet
Validated: 1
EndChar

StartChar: colon
Encoding: 58 58 28
Width: 1200
GlyphClass: 2
Flags: W
HStem: -20 264<507.253 692.777> 616 264<507.253 692.777>
VStem: 466 268<19.2227 205.323 655.223 841.323>
LayerCount: 2
Fore
SplineSet
600 880 m 0,0,1
 659 880 659 880 694 844 c 0,2,3
 734 803 734 803 734 748 c 128,-1,4
 734 693 734 693 694 654 c 0,5,6
 655 616 655 616 600 616 c 0,7,8
 543 616 543 616 506 652 c 0,9,10
 466 691 466 691 466 748 c 128,-1,11
 466 805 466 805 506 842.5 c 128,-1,12
 546 880 546 880 600 880 c 0,0,1
600 244 m 0,13,14
 659 244 659 244 694 208 c 0,15,16
 734 167 734 167 734 112 c 128,-1,17
 734 57 734 57 694 18 c 0,18,19
 655 -20 655 -20 600 -20 c 0,20,21
 543 -20 543 -20 506 16 c 0,22,23
 466 55 466 55 466 112 c 128,-1,24
 466 169 466 169 506 206.5 c 128,-1,25
 546 244 546 244 600 244 c 0,13,14
EndSplineSet
Validated: 1
EndChar

StartChar: semicolon
Encoding: 59 59 29
Width: 1200
GlyphClass: 2
Flags: W
HStem: 616 264<507.253 692.777>
VStem: 479 242<129.562 208.028 655.223 841.323> 566 155<-138.81 132.254>
LayerCount: 2
Fore
SplineSet
600 880 m 0,0,1
 659 880 659 880 694 844 c 0,2,3
 734 803 734 803 734 748 c 128,-1,4
 734 693 734 693 694 654 c 0,5,6
 655 616 655 616 600 616 c 0,7,8
 543 616 543 616 506 652 c 0,9,10
 466 691 466 691 466 748 c 128,-1,11
 466 805 466 805 506 842.5 c 128,-1,12
 546 880 546 880 600 880 c 0,0,1
591 286 m 0,13,14
 606 286 606 286 626 268 c 0,15,16
 721 182 721 182 721 34 c 0,17,18
 721 -141 721 -141 565 -271 c 24,19,20
 554 -280 554 -280 542 -280 c 0,21,22
 536 -280 536 -280 527 -273 c 2,23,-1
 492 -247 l 2,24,25
 479 -237 479 -237 479 -225 c 0,26,27
 479 -219 479 -219 483 -215 c 24,28,29
 566 -132 566 -132 566 -12 c 0,30,31
 566 94 566 94 491 169 c 24,32,33
 479 181 479 181 479 195 c 0,34,35
 479 216 479 216 499 230 c 2,36,-1
 571 280 l 2,37,38
 580 286 580 286 591 286 c 0,13,14
EndSplineSet
Validated: 1
EndChar

StartChar: less
Encoding: 60 60 30
Width: 1200
GlyphClass: 2
Flags: W
DStem2: 267 850 408 764 0.878006 0.47865<82.6349 723.056> 408 764 267 669 0.878006 -0.47865<0 644.729>
LayerCount: 2
Fore
SplineSet
905 1191 m 0,0,1
 928 1191 928 1191 944 1164 c 2,2,-1
 971 1117 l 2,3,4
 981 1100 981 1100 981 1087 c 0,5,6
 981 1064 981 1064 953 1049 c 2,7,-1
 408 764 l 1,8,-1
 955 475 l 2,9,10
 983 460 983 460 983 437 c 0,11,12
 983 425 983 425 973 407 c 2,13,-1
 944 355 l 2,14,15
 929 328 929 328 905 328 c 0,16,17
 893 328 893 328 876 337 c 2,18,-1
 267 669 l 2,19,20
 217 696 217 696 217 739 c 2,21,-1
 217 780 l 2,22,23
 217 823 217 823 267 850 c 2,24,-1
 876 1182 l 2,25,26
 893 1191 893 1191 905 1191 c 0,0,1
EndSplineSet
Validated: 1
EndChar

StartChar: equal
Encoding: 61 61 31
Width: 1200
GlyphClass: 2
Flags: W
HStem: 490 150<184.195 1015.8> 870 150<184.195 1015.8>
LayerCount: 2
Fore
SplineSet
234 640 m 2,0,-1
 966 640 l 2,1,2
 1016 640 1016 640 1016 590 c 2,3,4
 1016 540 l 2,5,6
 1016 490 1016 490 966 490 c 2,7,-1
 234 490 l 2,8,9
 184 490 184 490 184 540 c 2,10,-1
 184 590 l 2,11,12
 184 640 184 640 234 640 c 2,0,-1
234 1020 m 2,13,-1
 966 1020 l 2,14,15
 1016 1020 1016 1020 1016 970 c 2,16,-1
 1016 920 l 2,17,18
 1016 870 1016 870 966 870 c 2,19,-1
 234 870 l 2,20,21
 184 870 184 870 184 920 c 2,22,-1
 184 970 l 2,23,24
 184 1020 184 1020 234 1020 c 2,13,-1
EndSplineSet
Validated: 1
EndChar

StartChar: greater
Encoding: 62 62 32
Width: 1200
GlyphClass: 2
Flags: W
DStem2: 933 850 792 755 0.878006 -0.47865<-723.056 -78.3271> 792 755 933 669 0.878006 0.47865<-640.421 0>
LayerCount: 2
Fore
SplineSet
295 328 m 0,0,1
 272 328 272 328 256 355 c 2,2,-1
 229 402 l 2,3,4
 219 419 219 419 219 432 c 0,5,6
 219 455 219 455 247 470 c 2,7,-1
 792 755 l 1,8,-1
 245 1044 l 2,9,10
 217 1059 217 1059 217 1082 c 0,11,12
 217 1094 217 1094 227 1112 c 2,13,-1
 256 1164 l 2,14,15
 271 1191 271 1191 295 1191 c 0,16,17
 307 1191 307 1191 324 1182 c 2,18,-1
 933 850 l 2,19,20
 983 823 983 823 983 780 c 2,21,-1
 983 739 l 2,22,23
 983 696 983 696 933 669 c 2,24,-1
 324 337 l 2,25,26
 307 328 307 328 295 328 c 0,0,1
EndSplineSet
Validated: 1
EndChar

StartChar: question
Encoding: 63 63 33
Width: 1200
GlyphClass: 2
Flags: W
HStem: -20 264<414.253 599.777> 1360 160<360.504 702.532>
VStem: 373 268<19.2227 205.323> 421 180<418.284 561.255> 839 181<890.185 1226.94>
LayerCount: 2
Fore
SplineSet
507 -20 m 0,0,1
 450 -20 450 -20 413 16 c 0,2,3
 373 55 373 55 373 112 c 128,-1,4
 373 169 373 169 413 206.5 c 128,-1,5
 453 244 453 244 507 244 c 0,6,7
 566 244 566 244 601 208 c 0,8,9
 641 167 641 167 641 112 c 128,-1,10
 641 57 641 57 601 18 c 0,11,12
 562 -20 562 -20 507 -20 c 0,0,1
535 1520 m 0,13,14
 767 1520 767 1520 898 1378 c 0,15,16
 1020 1246 1020 1246 1020 1070 c 0,17,18
 1020 762 1020 762 697 600 c 0,19,20
 601 552 601 552 601 449 c 0,21,22
 601 427 601 427 589 418 c 0,23,24
 580 410 580 410 561 410 c 2,25,-1
 461 410 l 2,26,27
 442 410 442 410 433 418 c 0,28,29
 421 427 421 427 421 449 c 0,30,31
 421 634 421 634 622 734 c 0,32,33
 839 842 839 842 839 1072 c 0,34,35
 839 1177 839 1177 776 1253 c 0,36,37
 688 1360 688 1360 534 1360 c 128,-1,38
 380 1360 380 1360 291 1256 c 0,39,40
 275 1237 275 1237 263 1237 c 0,41,42
 250 1237 250 1237 235 1248 c 2,43,-1
 158 1305 l 2,44,45
 140 1318 140 1318 140 1332 c 128,-1,46
 140 1346 140 1346 152 1361 c 0,47,48
 279 1520 279 1520 535 1520 c 0,13,14
EndSplineSet
Validated: 1
EndChar

StartChar: A
Encoding: 65 65 34
Width: 1200
GlyphClass: 2
Flags: W
HStem: 0 21G<68.5 191.5 998.5 1131.5> 506 160<397 793> 1362 138<512 688>
DStem2: 54 47 221 34 0.276511 0.961011<-14.5288 523.504 689.709 1413.32> 738 1465 595 1362 0.276511 -0.961011<59.4431 783.056 949.26 1489.43>
LayerCount: 2
Fore
SplineSet
87 0 m 2,0,1
 50 0 50 0 50 26 c 0,2,3
 50 33 50 33 54 47 c 2,4,-1
 462 1465 l 2,5,6
 472 1500 472 1500 512 1500 c 2,7,-1
 688 1500 l 2,8,9
 728 1500 728 1500 738 1465 c 2,10,-1
 1146 47 l 2,11,12
 1150 33 1150 33 1150 26 c 0,13,14
 1150 0 1150 0 1113 0 c 2,15,-1
 1019 0 l 2,16,17
 978 0 978 0 969 34 c 2,18,-1
 838 506 l 1,19,-1
 352 506 l 1,20,-1
 221 34 l 2,21,22
 212 0 212 0 171 0 c 2,23,-1
 87 0 l 2,0,1
793 666 m 1,24,-1
 595 1362 l 1,25,-1
 397 666 l 1,26,-1
 793 666 l 1,24,-1
EndSplineSet
Validated: 1
EndChar

StartChar: D
Encoding: 68 68 35
Width: 1200
GlyphClass: 2
Flags: W
HStem: 0 160<330 710.117> 1340 160<330 710.117>
VStem: 150 180<160 1340> 910 179<436.125 1058.83>
LayerCount: 2
Fore
SplineSet
200 0 m 2,0,1
 150 0 150 0 150 49 c 2,2,-1
 150 1451 l 2,3,4
 150 1500 150 1500 200 1500 c 2,5,-1
 540 1500 l 2,6,7
 824 1500 824 1500 957 1274 c 0,8,9
 1089 1050 1089 1050 1089 750 c 128,-1,10
 1089 450 1089 450 957 226 c 0,11,12
 824 0 824 0 540 0 c 2,13,-1
 200 0 l 2,0,1
330 160 m 1,14,-1
 540 160 l 2,15,16
 739 160 739 160 823 331 c 0,17,18
 910 508 910 508 910 750 c 0,19,20
 910 987 910 987 823 1169 c 0,21,22
 741 1340 741 1340 540 1340 c 2,23,-1
 330 1340 l 1,24,-1
 330 160 l 1,14,-1
EndSplineSet
Validated: 1
EndChar

StartChar: E
Encoding: 69 69 36
Width: 1200
GlyphClass: 2
Flags: W
HStem: 0 160<400 1027.89> 675 160<400 831.89> 1340 160<400 997.89>
VStem: 220 180<160 675 835 1340>
LayerCount: 2
Fore
SplineSet
220 1451 m 1026,0,1
978 0 m 2,2,-1
 270 0 l 2,3,4
 220 0 220 0 220 49 c 2,5,-1
 220 1451 l 2,6,7
 220 1500 220 1500 270 1500 c 2,8,-1
 948 1500 l 2,9,10
 998 1500 998 1500 998 1451 c 2,11,-1
 998 1389 l 2,12,13
 998 1340 998 1340 948 1340 c 2,14,-1
 400 1340 l 1,15,-1
 400 835 l 1,16,-1
 782 835 l 2,17,18
 832 835 832 835 832 786 c 2,19,-1
 832 724 l 2,20,21
 832 675 832 675 782 675 c 2,22,-1
 400 675 l 1,23,-1
 400 160 l 1,24,-1
 978 160 l 2,25,26
 1028 160 1028 160 1028 111 c 2,27,-1
 1028 49 l 2,28,29
 1028 0 1028 0 978 0 c 2,2,-1
EndSplineSet
Validated: 1
EndChar

StartChar: F
Encoding: 70 70 37
Width: 1200
GlyphClass: 2
Flags: W
HStem: 0 21G<265 395> 675 160<420 851.89> 1340 160<420 1017.89>
VStem: 240 180<0.191406 675 835 1340>
LayerCount: 2
Fore
SplineSet
370 0 m 2,0,-1
 290 0 l 2,1,2
 240 0 240 0 240 49 c 2,3,-1
 240 1451 l 2,4,5
 240 1500 240 1500 290 1500 c 2,6,-1
 968 1500 l 2,7,8
 1018 1500 1018 1500 1018 1451 c 2,9,-1
 1018 1389 l 2,10,11
 1018 1340 1018 1340 968 1340 c 2,12,-1
 420 1340 l 1,13,-1
 420 835 l 1,14,-1
 802 835 l 2,15,16
 852 835 852 835 852 786 c 2,17,-1
 852 724 l 2,18,19
 852 675 852 675 802 675 c 2,20,-1
 420 675 l 1,21,-1
 420 49 l 2,22,23
 420 0 420 0 370 0 c 2,0,-1
EndSplineSet
Validated: 1
EndChar

StartChar: H
Encoding: 72 72 38
Width: 1200
GlyphClass: 2
Flags: W
HStem: 0 21G<175 305 895 1025> 675 160<330 870> 1480 20G<175 305 895 1025>
VStem: 150 180<0.191406 675 835 1499.81> 870 180<0.191406 675 835 1499.81>
LayerCount: 2
Fore
SplineSet
200 0 m 2,0,1
 150 0 150 0 150 49 c 2,2,-1
 150 1451 l 2,3,4
 150 1500 150 1500 200 1500 c 2,5,-1
 280 1500 l 2,6,7
 330 1500 330 1500 330 1451 c 2,8,-1
 330 835 l 1,9,-1
 870 835 l 1,10,-1
 870 1451 l 2,11,12
 870 1500 870 1500 920 1500 c 2,13,-1
 1000 1500 l 2,14,15
 1050 1500 1050 1500 1050 1451 c 2,16,-1
 1050 49 l 2,17,18
 1050 0 1050 0 1000 0 c 2,19,-1
 920 0 l 2,20,21
 870 0 870 0 870 49 c 2,22,-1
 870 675 l 1,23,-1
 330 675 l 1,24,-1
 330 49 l 2,25,26
 330 0 330 0 280 0 c 2,27,-1
 200 0 l 2,0,1
EndSplineSet
Validated: 1
EndChar

StartChar: I
Encoding: 73 73 39
Width: 1200
GlyphClass: 2
Flags: W
HStem: 0 160<220.11 510 690 979.89> 1340 160<220.11 510 690 979.89>
VStem: 510 180<160 1340>
LayerCount: 2
Fore
SplineSet
270 0 m 2,0,1
 220 0 220 0 220 49 c 2,2,-1
 220 111 l 2,3,4
 220 160 220 160 270 160 c 2,5,-1
 510 160 l 1,6,-1
 510 1340 l 1,7,-1
 270 1340 l 2,8,9
 220 1340 220 1340 220 1389 c 2,10,-1
 220 1451 l 2,11,12
 220 1500 220 1500 270 1500 c 2,13,-1
 930 1500 l 2,14,15
 980 1500 980 1500 980 1451 c 2,16,-1
 980 1389 l 2,17,18
 980 1340 980 1340 930 1340 c 2,19,-1
 690 1340 l 1,20,-1
 690 160 l 1,21,-1
 930 160 l 2,22,23
 980 160 980 160 980 111 c 2,24,-1
 980 49 l 2,25,26
 980 0 980 0 930 0 c 2,27,-1
 270 0 l 2,0,1
EndSplineSet
Validated: 1
EndChar

StartChar: L
Encoding: 76 76 40
Width: 1200
GlyphClass: 2
Flags: W
HStem: 0 160<420 1047.89> 1480 20G<265 395>
VStem: 240 180<160 1499.81>
LayerCount: 2
Fore
SplineSet
998 0 m 2,0,1
 290 0 l 2,2,3
 240 0 240 0 240 49 c 2,4,-1
 240 1451 l 2,5,6
 240 1500 240 1500 290 1500 c 2,7,-1
 370 1500 l 2,8,9
 420 1500 420 1500 420 1451 c 2,10,-1
 420 160 l 1,11,-1
 998 160 l 2,12,13
 1048 160 1048 160 1048 111 c 2,14,-1
 1048 49 l 2,15,16
 1048 0 1048 0 998 0 c 2,0,1
EndSplineSet
Validated: 1
EndChar

StartChar: N
Encoding: 78 78 41
Width: 1200
GlyphClass: 2
Flags: W
HStem: 0 21G<175 295 825 1025> 1480 20G<175 375 905 1025>
VStem: 150 170<0.191406 1220> 880 170<280 1499.81>
DStem2: 410 1451 320 1220 0.372484 -0.928039<180.853 1261.8>
LayerCount: 2
Fore
SplineSet
200 0 m 2,0,1
 150 0 150 0 150 49 c 2,2,-1
 150 1451 l 2,3,4
 150 1500 150 1500 200 1500 c 2,5,-1
 360 1500 l 2,6,7
 390 1500 390 1500 410 1451 c 2,8,-1
 880 280 l 1,9,-1
 880 1451 l 2,10,11
 880 1500 880 1500 930 1500 c 2,12,-1
 1000 1500 l 2,13,14
 1050 1500 1050 1500 1050 1451 c 2,15,-1
 1050 49 l 2,16,17
 1050 0 1050 0 1000 0 c 2,18,-1
 840 0 l 2,19,20
 810 0 810 0 790 49 c 2,21,-1
 320 1220 l 1,22,-1
 320 49 l 2,23,24
 320 0 320 0 270 0 c 2,25,-1
 200 0 l 2,0,1
EndSplineSet
Validated: 1
EndChar

StartChar: O
Encoding: 79 79 42
Width: 1200
GlyphClass: 2
Flags: W
HStem: -20 160<462 737.5> 1360 160<462.25 738>
VStem: 82 183<428.889 1071.54> 939 179<436.701 1062.2>
LayerCount: 2
Fore
SplineSet
600 140 m 0,0,1
 751 140 751 140 843 311 c 0,2,3
 938 488 938 488 939 750 c 0,4,5
 939 1007 939 1007 843 1189 c 0,6,7
 753 1360 753 1360 600 1360 c 0,8,9
 448 1360 448 1360 357 1189 c 0,10,11
 265 1016 265 1016 265 750 c 0,12,13
 265 486 265 486 357 311 c 0,14,15
 447 140 447 140 600 140 c 0,0,1
600 -20 m 128,-1,17
 363 -20 363 -20 222 206 c 0,18,19
 82 430 82 430 82 750 c 128,-1,20
 82 1070 82 1070 222 1294 c 0,21,22
 363 1520 363 1520 600 1520 c 128,-1,23
 837 1520 837 1520 978 1294 c 0,24,25
 1118 1070 1118 1070 1118 750 c 128,-1,26
 1118 430 1118 430 978 206 c 0,27,16
 837 -20 837 -20 600 -20 c 128,-1,17
EndSplineSet
Validated: 1
EndChar

StartChar: Q
Encoding: 81 81 43
Width: 1200
GlyphClass: 2
Flags: W
HStem: -20 160<462 705.302> 1360 160<462.25 738>
VStem: 82 183<428.889 1071.54> 939 179<444.562 1062.2>
DStem2: 833 294 468 578 0.501087 -0.865397<-410.857 0 207.386 418.271>
LayerCount: 2
Fore
SplineSet
833 294 m 1,0,1
 938 491 938 491 939 750 c 0,2,3
 939 1007 939 1007 843 1189 c 0,4,5
 753 1360 753 1360 600 1360 c 0,6,7
 448 1360 448 1360 357 1189 c 0,8,9
 265 1016 265 1016 265 750 c 0,10,11
 265 486 265 486 357 311 c 0,12,13
 447 140 447 140 600 140 c 0,14,15
 658 140 658 140 707 165 c 1,16,-1
 468 578 l 2,17,18
 463 587 463 587 463 597 c 0,19,20
 463 627 463 627 500 627 c 2,21,-1
 599 627 l 2,22,23
 640 627 640 627 660 593 c 2,24,-1
 833 294 l 1,0,1
600 -20 m 0,25,26
 363 -20 363 -20 222 206 c 0,27,28
 82 430 82 430 82 750 c 128,-1,29
 82 1070 82 1070 222 1294 c 0,30,31
 363 1520 363 1520 600 1520 c 128,-1,32
 837 1520 837 1520 978 1294 c 0,33,34
 1118 1070 1118 1070 1118 750 c 128,-1,35
 1118 430 1118 430 978 206 c 0,36,37
 953 167 953 167 926 134 c 1,38,-1
 1052 -84 l 2,39,40
 1057 -93 1057 -93 1057 -103 c 0,41,42
 1057 -133 1057 -133 1020 -133 c 2,43,-1
 921 -133 l 2,44,45
 880 -133 880 -133 860 -99 c 2,46,-1
 789 23 l 1,47,48
 704 -20 704 -20 600 -20 c 0,25,26
EndSplineSet
Validated: 1
EndChar

StartChar: T
Encoding: 84 84 44
Width: 1200
GlyphClass: 2
Flags: W
HStem: 0 21G<535 665> 1340 160<120.11 510 690 1079.89>
VStem: 510 180<0.191406 1340>
LayerCount: 2
Fore
SplineSet
560 0 m 2,0,1
 510 0 510 0 510 49 c 2,2,-1
 510 1340 l 1,3,-1
 170 1340 l 2,4,5
 120 1340 120 1340 120 1389 c 2,6,-1
 120 1451 l 2,7,8
 120 1500 120 1500 170 1500 c 2,9,-1
 1030 1500 l 2,10,11
 1080 1500 1080 1500 1080 1451 c 2,12,-1
 1080 1389 l 2,13,14
 1080 1340 1080 1340 1030 1340 c 2,15,-1
 690 1340 l 1,16,-1
 690 49 l 2,17,18
 690 0 690 0 640 0 c 2,19,-1
 560 0 l 2,0,1
EndSplineSet
Validated: 1
EndChar

StartChar: U
Encoding: 85 85 45
Width: 1200
GlyphClass: 2
Flags: W
HStem: -20 160<453.032 746.968> 1480 20G<175 305 895 1025>
VStem: 150 180<273.814 1499.81> 870 180<273.814 1499.81>
LayerCount: 2
Fore
SplineSet
600 -20 m 128,-1,1
 406 -20 406 -20 279 106 c 0,2,3
 150 234 150 234 150 455 c 2,4,-1
 150 1451 l 2,5,6
 150 1500 150 1500 200 1500 c 2,7,-1
 280 1500 l 2,8,9
 330 1500 330 1500 330 1451 c 2,10,-1
 330 455 l 2,11,12
 330 325 330 325 394 240 c 0,13,14
 470 140 470 140 600 140 c 128,-1,15
 730 140 730 140 806 240 c 0,16,17
 870 325 870 325 870 455 c 2,18,-1
 870 1451 l 2,19,20
 870 1500 870 1500 920 1500 c 2,21,-1
 1000 1500 l 2,22,23
 1050 1500 1050 1500 1050 1451 c 2,24,-1
 1050 455 l 2,25,26
 1050 234 1050 234 921 106 c 0,27,0
 794 -20 794 -20 600 -20 c 128,-1,1
EndSplineSet
Validated: 1
EndChar

StartChar: V
Encoding: 86 86 46
Width: 1200
GlyphClass: 2
Flags: W
HStem: 0 178<423 777> 1480 20G<68.5 211 999 1131.5>
DStem2: 605 178 54 1453 0.276511 -0.961011<-1388.53 0> 605 178 738 35 0.276511 0.961011<0 1388.46>
LayerCount: 2
Fore
SplineSet
512 0 m 2,0,1
 472 0 472 0 462 35 c 2,2,-1
 54 1453 l 2,3,4
 50 1467 50 1467 50 1474 c 0,5,6
 50 1500 50 1500 87 1500 c 2,7,-1
 191 1500 l 2,8,9
 231 1500 231 1500 241 1466 c 2,10,-1
 605 178 l 1,11,-1
 969 1466 l 2,12,13
 979 1500 979 1500 1019 1500 c 2,14,-1
 1113 1500 l 2,15,16
 1150 1500 1150 1500 1150 1474 c 0,17,18
 1150 1467 1150 1467 1146 1453 c 2,19,-1
 738 35 l 2,20,21
 728 0 728 0 688 0 c 2,22,-1
 512 0 l 2,0,1
EndSplineSet
Validated: 1
EndChar

StartChar: W
Encoding: 87 87 47
Width: 1200
GlyphClass: 2
Flags: W
HStem: 0 21G<218 420.5 779.5 982> 1480 20G<44.5 162 1038 1155.5>
DStem2: 330 240 20 1451 0.120374 -0.992729<-1248.44 0> 330 240 450 49 0.186939 0.982371<0 631.851> 870 240 1010 49 0.120374 0.992729<0 1248.44>
LayerCount: 2
Fore
SplineSet
240 0 m 2,0,1
 196 0 196 0 190 49 c 2,2,-1
 20 1451 l 2,3,4
 19 1456 19 1456 19 1460 c 0,5,6
 19 1500 19 1500 70 1500 c 2,7,-1
 140 1500 l 2,8,9
 184 1500 184 1500 190 1451 c 2,10,-1
 330 240 l 1,11,-1
 489 984 l 2,12,13
 499 1032 499 1032 540 1032 c 2,14,-1
 659 1032 l 2,15,16
 698 1032 698 1032 709 983 c 2,17,-1
 870 240 l 1,18,-1
 1010 1451 l 2,19,20
 1016 1500 1016 1500 1060 1500 c 2,21,-1
 1130 1500 l 2,22,23
 1181 1500 1181 1500 1181 1460 c 0,24,25
 1181 1456 1181 1456 1180 1451 c 2,26,-1
 1010 49 l 2,27,28
 1004 0 1004 0 960 0 c 2,29,-1
 800 0 l 2,30,31
 759 0 759 0 750 49 c 2,32,-1
 599 832 l 1,33,-1
 450 49 l 2,34,35
 441 0 441 0 400 0 c 2,36,-1
 240 0 l 2,0,1
EndSplineSet
Validated: 1
EndChar

StartChar: Z
Encoding: 90 90 48
Width: 1200
GlyphClass: 2
Flags: W
HStem: 0 160<371 1049.89> 1340 160<190.11 829>
DStem2: 160 145 371 160 0.488492 0.872568<116.16 1369.52>
LayerCount: 2
Fore
SplineSet
200 0 m 2,0,1
 150 0 150 0 150 49 c 2,2,-1
 150 111 l 2,3,4
 150 127 150 127 160 145 c 2,5,-1
 829 1340 l 1,6,-1
 240 1340 l 2,7,8
 190 1340 190 1340 190 1389 c 2,9,-1
 190 1451 l 2,10,11
 190 1500 190 1500 240 1500 c 2,12,-1
 1000 1500 l 2,13,14
 1050 1500 1050 1500 1050 1451 c 2,15,-1
 1050 1389 l 2,16,17
 1050 1373 1050 1373 1038 1352 c 2,18,-1
 371 160 l 1,19,-1
 1000 160 l 2,20,21
 1050 160 1050 160 1050 111 c 2,22,-1
 1050 49 l 2,23,24
 1050 0 1050 0 1000 0 c 2,25,-1
 200 0 l 2,0,1
EndSplineSet
Validated: 1
EndChar

StartChar: bracketleft
Encoding: 91 91 49
Width: 1200
GlyphClass: 2
Flags: W
HStem: -205 160<610 893.805> 1550 160<610 893.805>
VStem: 430 464<-204.805 -45.1953 1550.2 1709.8> 430 180<-45 1550>
LayerCount: 2
Fore
SplineSet
844 -205 m 2,0,-1
 480 -205 l 2,1,2
 430 -205 430 -205 430 -155 c 2,3,-1
 430 1660 l 2,4,5
 430 1710 430 1710 480 1710 c 2,6,-1
 844 1710 l 2,7,8
 894 1710 894 1710 894 1660 c 2,9,-1
 894 1600 l 2,10,11
 894 1550 894 1550 844 1550 c 2,12,-1
 610 1550 l 1,13,-1
 610 -45 l 1,14,-1
 844 -45 l 2,15,16
 894 -45 894 -45 894 -95 c 2,17,-1
 894 -155 l 2,18,19
 894 -205 894 -205 844 -205 c 2,0,-1
EndSplineSet
Validated: 1
EndChar

StartChar: backslash
Encoding: 92 92 50
Width: 1200
GlyphClass: 2
Flags: W
DStem2: 1152 -45 1018 -122 0.500243 -0.865885<-1968.18 28.7592>
LayerCount: 2
Fore
SplineSet
144 1662 m 0,0,1
 166 1662 166 1662 182 1634 c 2,2,-1
 1152 -45 l 2,3,4
 1160 -61 1160 -61 1160 -74 c 0,5,6
 1160 -97 1160 -97 1134 -113 c 2,7,-1
 1086 -141 l 2,8,9
 1072 -150 1072 -150 1058 -150 c 0,10,11
 1034 -150 1034 -150 1018 -122 c 2,12,-1
 48 1557 l 2,13,14
 40 1573 40 1573 40 1586 c 0,15,16
 40 1609 40 1609 66 1625 c 2,17,-1
 114 1653 l 2,18,19
 130 1662 130 1662 144 1662 c 0,0,1
EndSplineSet
Validated: 1
EndChar

StartChar: bracketright
Encoding: 93 93 51
Width: 1200
GlyphClass: 2
Flags: W
HStem: -205 160<306.195 590> 1550 160<306.195 590>
VStem: 306 464<-204.805 -45.1953 1550.2 1709.8> 590 180<-45 1550>
LayerCount: 2
Fore
SplineSet
356 -205 m 2,0,1
 306 -205 306 -205 306 -155 c 2,2,-1
 306 -95 l 2,3,4
 306 -45 306 -45 356 -45 c 2,5,-1
 590 -45 l 1,6,-1
 590 1550 l 1,7,-1
 356 1550 l 2,8,9
 306 1550 306 1550 306 1600 c 2,10,11
 306 1660 l 2,12,13
 306 1710 306 1710 356 1710 c 2,14,-1
 720 1710 l 2,15,16
 770 1710 770 1710 770 1660 c 2,17,-1
 770 -155 l 2,18,19
 770 -205 770 -205 720 -205 c 2,20,-1
 356 -205 l 2,0,1
EndSplineSet
Validated: 1
EndChar

StartChar: asciicircum
Encoding: 94 94 52
Width: 1200
GlyphClass: 2
Flags: W
HStem: 1342 178<481 719>
DStem2: 230 1143 378 1058 0.620819 0.783954<-19.9968 385.71> 696 1489 600 1342 0.620819 -0.783954<55.6426 461.349>
LayerCount: 2
Fore
SplineSet
570 1520 m 2,0,1
 630 1520 l 2,2,3
 671 1520 671 1520 696 1489 c 2,4,-1
 970 1143 l 2,5,6
 980 1130 980 1130 980 1114 c 0,7,8
 980 1091 980 1091 952 1075 c 2,9,-1
 890 1040 l 2,10,11
 878 1033 878 1033 864 1033 c 0,12,13
 842 1033 842 1033 822 1058 c 2,14,15
 600 1342 l 1,16,-1
 378 1058 l 2,17,18
 358 1033 358 1033 336 1033 c 0,19,20
 322 1033 322 1033 310 1040 c 2,21,-1
 248 1075 l 2,22,23
 220 1091 220 1091 220 1114 c 0,24,25
 220 1130 220 1130 230 1143 c 2,26,-1
 504 1489 l 2,27,28
 529 1520 529 1520 570 1520 c 2,0,1
EndSplineSet
Validated: 1
EndChar

StartChar: underscore
Encoding: 95 95 53
Width: 1200
GlyphClass: 2
Flags: W
HStem: -200 113<134 1066>
LayerCount: 2
Fore
SplineSet
174 -87 m 2,0,-1
 1026 -87 l 2,1,2
 1066 -87 1066 -87 1066 -127 c 2,3,4
 1066 -160 l 2,5,6
 1066 -200 1066 -200 1026 -200 c 2,7,-1
 174 -200 l 2,8,9
 134 -200 134 -200 134 -160 c 2,10,-1
 134 -127 l 2,11,12
 134 -87 134 -87 174 -87 c 2,0,-1
EndSplineSet
Validated: 1
EndChar

StartChar: grave
Encoding: 96 96 54
Width: 1200
GlyphClass: 2
Flags: W
HStem: 1069 451<609.016 626.531>
VStem: 461 278
LayerCount: 2
Fore
SplineSet
591 1520 m 0,0,1
 613 1520 613 1520 623 1490 c 2,2,-1
 736 1139 l 2,3,4
 739 1130 739 1130 739 1123 c 0,5,6
 739 1101 739 1101 710 1089 c 2,7,-1
 670 1073 l 2,8,9
 660 1069 660 1069 652 1069 c 0,10,11
 629 1069 629 1069 616 1097 c 2,12,-1
 467 1429 l 2,13,14
 461 1442 461 1442 461 1453 c 0,15,16
 461 1476 461 1476 490 1486 c 2,17,-1
 573 1516 l 2,18,19
 584 1520 584 1520 591 1520 c 0,0,1
EndSplineSet
Validated: 1
EndChar

StartChar: o
Encoding: 111 111 55
Width: 1200
GlyphClass: 2
Flags: W
HStem: -20 155<465.503 735.641> 965 155<463.057 737.825>
VStem: 144 173<308.051 793.988> 881 175<303.47 792.771>
LayerCount: 2
Fore
SplineSet
600.5 135 m 128,-1,1
 712 135 712 135 796 237 c 0,2,3
 881 340 881 340 881 550 c 0,4,5
 881 755 881 755 793 869 c 0,6,7
 717 965 717 965 600 965 c 0,8,9
 487 965 487 965 407 869 c 0,10,11
 317 759 317 759 317 553 c 0,12,13
 317 343 317 343 404 237 c 0,14,0
 489 135 489 135 600.5 135 c 128,-1,1
601 -20 m 128,-1,16
 406 -20 406 -20 287 119 c 0,17,18
 144 288 144 288 144 550 c 0,19,20
 144 821 144 821 286 979 c 0,21,22
 413 1120 413 1120 600 1120 c 128,-1,23
 787 1120 787 1120 914 979 c 0,24,25
 1056 820 1056 820 1056 550 c 0,26,27
 1056 286 1056 286 913 119 c 0,28,15
 796 -20 796 -20 601 -20 c 128,-1,16
EndSplineSet
Validated: 1
EndChar

StartChar: braceleft
Encoding: 123 123 56
Width: 1200
GlyphClass: 2
Flags: W
HStem: -205 160<765.619 963.89> 675 160<300.195 500> 1550 160<765.619 963.89>
VStem: 500 180<41.0176 675 835 1468.02>
LayerCount: 2
Fore
SplineSet
914 -205 m 0,0,1
 720 -205 720 -205 612 -99 c 0,2,3
 500 11 500 11 500 203 c 2,4,-1
 500 675 l 1,5,-1
 350 675 l 2,6,7
 300 675 300 675 300 725 c 2,8,-1
 300 785 l 2,9,10
 300 835 300 835 350 835 c 2,11,-1
 500 835 l 1,12,-1
 500 1302 l 2,13,14
 500 1494 500 1494 612 1604 c 0,15,16
 720 1710 720 1710 914 1710 c 0,17,18
 964 1710 964 1710 964 1661 c 2,19,-1
 964 1599 l 2,20,21
 964 1550 964 1550 914 1550 c 0,22,23
 809 1550 809 1550 744.5 1490 c 128,-1,24
 680 1430 680 1430 680 1324 c 2,25,-1
 680 181 l 2,26,27
 680 75 680 75 745 15 c 128,-1,28
 810 -45 810 -45 914 -45 c 0,29,30
 964 -45 964 -45 964 -94 c 2,31,-1
 964 -156 l 2,32,33
 964 -205 964 -205 914 -205 c 0,0,1
EndSplineSet
Validated: 1
EndChar

StartChar: bar
Encoding: 124 124 57
Width: 1200
GlyphClass: 2
Flags: W
VStem: 522 156<-149.805 1659.8>
LayerCount: 2
Fore
SplineSet
572 1660 m 2,0,-1
 628 1660 l 2,1,2
 678 1660 678 1660 678 1610 c 2,3,-1
 678 -100 l 2,4,5
 678 -150 678 -150 628 -150 c 2,6,-1
 572 -150 l 2,7,8
 522 -150 522 -150 522 -100 c 2,9,-1
 522 1610 l 2,10,11
 522 1660 522 1660 572 1660 c 2,0,-1
EndSplineSet
Validated: 1
EndChar

StartChar: braceright
Encoding: 125 125 58
Width: 1200
GlyphClass: 2
Flags: W
HStem: -205 160<236.11 434.381> 675 160<700 899.805> 1550 160<236.11 434.381>
VStem: 520 180<36.9839 675 835 1463.98>
LayerCount: 2
Fore
SplineSet
286 -205 m 0,0,1
 236 -205 236 -205 236 -156 c 2,2,-1
 236 -94 l 2,3,4
 236 -45 236 -45 286 -45 c 0,5,6
 391 -45 391 -45 455.5 15 c 128,-1,7
 520 75 520 75 520 181 c 2,8,-1
 520 1324 l 2,9,10
 520 1430 520 1430 455 1490 c 128,-1,11
 390 1550 390 1550 286 1550 c 0,12,13
 236 1550 236 1550 236 1599 c 2,14,-1
 236 1661 l 2,15,16
 236 1710 236 1710 286 1710 c 0,17,18
 480 1710 480 1710 588 1604 c 0,19,20
 700 1494 700 1494 700 1302 c 2,21,-1
 700 835 l 1,22,-1
 850 835 l 2,23,24
 900 835 900 835 900 785 c 2,25,-1
 900 725 l 2,26,27
 900 675 900 675 850 675 c 2,28,-1
 700 675 l 1,29,-1
 700 203 l 2,30,31
 700 11 700 11 588 -99 c 0,32,33
 480 -205 480 -205 286 -205 c 0,0,1
EndSplineSet
Validated: 1
EndChar

StartChar: asciitilde
Encoding: 126 126 59
Width: 1200
GlyphClass: 2
Flags: W
HStem: 576 147<688.955 843.153> 790 147<356.847 511.045>
VStem: 186 152<597.195 773.875> 862 152<739.125 915.805>
LayerCount: 2
Fore
SplineSet
417 937 m 0,0,1
 554 937 554 937 652 810 c 0,2,3
 719 723 719 723 769 723 c 0,4,5
 862 723 862 723 862 866 c 8,6,7
 862 916 862 916 912 916 c 2,8,-1
 964 916 l 2,9,10
 1014 916 1014 916 1014 866 c 0,11,12
 1014 576 1014 576 783 576 c 0,13,14
 646 576 646 576 548 703 c 0,15,16
 481 790 481 790 431 790 c 0,17,18
 338 790 338 790 338 647 c 8,19,20
 338 597 338 597 288 597 c 2,21,-1
 236 597 l 2,22,23
 186 597 186 597 186 647 c 0,24,25
 186 937 186 937 417 937 c 0,0,1
EndSplineSet
Validated: 1
EndChar

StartChar: exclamdown
Encoding: 161 161 61
Width: 1200
VWidth: 1648
GlyphClass: 2
Flags: W
HStem: -400 21G<515 685> 856 264<507.223 692.747>
VStem: 466 268<894.677 1080.78> 490 220<-399.809 8.1168> 530 140<291.883 699.809>
LayerCount: 2
Fore
SplineSet
600 1120 m 0,0,1
 657 1120 657 1120 694 1084 c 0,2,3
 734 1045 734 1045 734 988 c 128,-1,4
 734 931 734 931 694 893.5 c 128,-1,5
 654 856 654 856 600 856 c 0,6,7
 541 856 541 856 506 892 c 0,8,9
 466 933 466 933 466 988 c 128,-1,10
 466 1043 466 1043 506 1082 c 0,11,12
 545 1120 545 1120 600 1120 c 0,0,1
660 -400 m 2,13,-1
 540 -400 l 2,14,15
 490 -400 490 -400 490 -351 c 9,16,-1
 530 651 l 2,17,18
 532 700 532 700 580 700 c 2,19,-1
 620 700 l 2,20,21
 668 700 668 700 670 651 c 2,22,-1
 710 -351 l 17,23,24
 710 -400 710 -400 660 -400 c 2,13,-1
EndSplineSet
Validated: 1
EndChar

StartChar: cent
Encoding: 162 162 62
Width: 1200
GlyphClass: 2
Flags: W
VStem: 220 173<308.051 793.988> 621 100<-180 -11.8662 142 959 1112.55 1280>
LayerCount: 2
Fore
SplineSet
621 -17 m 1,0,1
 464 1 464 1 363 119 c 0,2,3
 220 288 220 288 220 550 c 0,4,5
 220 821 220 821 362 979 c 0,6,7
 470 1099 470 1099 621 1117 c 1,8,-1
 621 1260 l 2,9,10
 621 1280 621 1280 641 1280 c 2,11,-1
 701 1280 l 2,12,13
 721 1280 721 1280 721 1260 c 2,14,-1
 721 1118 l 1,15,16
 886 1103 886 1103 991 979 c 0,17,18
 1002 966 1002 966 1002 951 c 0,19,20
 1002 935 1002 935 984 922 c 2,21,-1
 915 872 l 2,22,23
 900 861 900 861 888 861 c 0,24,25
 875 862 875 862 862 880 c 0,26,27
 813 949 813 949 721 962 c 1,28,-1
 721 138 l 1,29,30
 806 152 806 152 860 221 c 0,31,32
 875 240 875 240 886 240 c 0,33,34
 898 240 898 240 913 229 c 2,35,-1
 983 176 l 2,36,37
 1001 162 1001 162 1001 146.5 c 128,-1,38
 1001 131 1001 131 990 119 c 0,39,40
 878 -3 878 -3 721 -18 c 1,41,-1
 721 -160 l 2,42,43
 721 -180 721 -180 701 -180 c 2,44,-1
 641 -180 l 2,45,46
 621 -180 621 -180 621 -160 c 2,47,-1
 621 -17 l 1,0,1
621 142 m 1,48,-1
 621 959 l 1,49,50
 543 941 543 941 483 869 c 0,51,52
 393 759 393 759 393 553 c 0,53,54
 393 343 393 343 480 237 c 0,55,56
 543 162 543 162 621 142 c 1,48,-1
EndSplineSet
Validated: 1
EndChar

StartChar: sterling
Encoding: 163 163 63
Width: 1200
GlyphClass: 2
Flags: W
HStem: 0 160<122 242 422 1078> 600 160<124 242 422 808> 1382 138<508.193 784.963>
VStem: 242 180<160 600 760 1296.13>
LayerCount: 2
Fore
SplineSet
162 0 m 2,0,1
 122 0 122 0 122 39 c 2,2,-1
 122 121 l 2,3,4
 122 160 122 160 162 160 c 2,5,-1
 242 160 l 1,6,-1
 242 600 l 1,7,-1
 164 600 l 2,8,9
 124 600 124 600 124 639 c 2,10,-1
 124 721 l 2,11,12
 124 760 124 760 164 760 c 2,13,-1
 242 760 l 1,14,-1
 242 1137 l 2,15,16
 242 1329 242 1329 362 1426 c 0,17,18
 478 1520 478 1520 645 1520 c 0,19,20
 809 1520 809 1520 932 1426 c 0,21,22
 1005 1370 1005 1370 1028 1296 c 0,23,24
 1032 1283 1032 1283 1032 1269 c 0,25,26
 1032 1251 1032 1251 1012 1241 c 2,27,-1
 926 1199 l 2,28,29
 912 1192 912 1192 896 1192 c 128,-1,30
 880 1192 880 1192 872 1214 c 0,31,32
 846 1288 846 1288 802 1325 c 0,33,34
 734 1382 734 1382 648 1382 c 0,35,36
 548 1382 548 1382 485 1318 c 128,-1,37
 422 1254 422 1254 422 1137 c 2,38,-1
 422 760 l 1,39,-1
 768 760 l 2,40,41
 808 760 808 760 808 721 c 2,42,-1
 808 639 l 2,43,44
 808 600 808 600 768 600 c 2,45,-1
 422 600 l 1,46,-1
 422 160 l 1,47,-1
 1038 160 l 2,48,49
 1078 160 1078 160 1078 121 c 2,50,-1
 1078 39 l 2,51,52
 1078 0 1078 0 1038 0 c 2,53,-1
 162 0 l 2,0,1
EndSplineSet
Validated: 1
EndChar

StartChar: currency
Encoding: 164 164 64
Width: 1200
GlyphClass: 2
Flags: W
HStem: 420 150<480.898 721.625> 934 151<476.882 723.182>
VStem: 262 154<633.945 872.286> 784 154<632.321 873.021>
DStem2: 324 1138 217 1031 0.707107 -0.707107<-35.6404 150.155 784.877 967.607> 217 479 324 372 0.707107 0.707107<-35.6404 149.626 781.823 967.607>
LayerCount: 2
Fore
SplineSet
600 570 m 0,0,1
 677 571 677 571 732 624 c 0,2,3
 784 675 784 675 784 753 c 0,4,5
 784 829 784 829 732 881 c 0,6,7
 680 934 680 934 600 934 c 0,8,9
 521 934 521 934 468.5 881 c 128,-1,10
 416 828 416 828 416 756 c 0,11,12
 416 680 416 680 469 625 c 128,-1,13
 522 570 522 570 600 570 c 0,0,1
600 420 m 0,14,15
 500 420 500 420 422 470 c 1,16,-1
 324 372 l 2,17,18
 306 354 306 354 288.5 354 c 128,-1,19
 271 354 271 354 253 372 c 2,20,-1
 217 408 l 2,21,22
 201 424 201 424 201 444 c 0,23,24
 201 463 201 463 217 479 c 2,25,-1
 314 576 l 1,26,27
 262 657 262 657 262 759 c 0,28,29
 262 855 262 855 315 933 c 1,30,-1
 217 1031 l 2,31,32
 201 1047 201 1047 201 1066 c 0,33,34
 201 1086 201 1086 217 1102 c 2,35,-1
 253 1138 l 2,36,37
 271 1156 271 1156 288.5 1156 c 128,-1,38
 306 1156 306 1156 324 1138 c 2,39,-1
 424 1038 l 1,40,41
 501 1085 501 1085 600 1085 c 0,42,43
 698 1085 698 1085 776 1038 c 1,44,-1
 876 1138 l 2,45,46
 894 1156 894 1156 911.5 1156 c 128,-1,47
 929 1156 929 1156 947 1138 c 2,48,-1
 983 1102 l 2,49,50
 999 1086 999 1086 999 1066 c 0,51,52
 999 1047 999 1047 983 1031 c 2,53,-1
 885 933 l 1,54,55
 938 854 938 854 938 752.5 c 128,-1,56
 938 651 938 651 888 574 c 1,57,-1
 983 479 l 2,58,59
 999 463 999 463 999 444 c 0,60,61
 999 424 999 424 983 408 c 2,62,-1
 947 372 l 2,63,64
 929 354 929 354 911.5 354 c 128,-1,65
 894 354 894 354 876 372 c 2,66,-1
 779 469 l 1,67,68
 699 420 699 420 600 420 c 0,14,15
EndSplineSet
Validated: 1
EndChar

StartChar: yen
Encoding: 165 165 65
Width: 1200
GlyphClass: 2
Flags: W
HStem: 0 21G<535 665> 344 120<183 510 690 1017> 594 120<183 477 723 1017> 1480 20G<105 244.5 955.5 1095>
VStem: 510 180<0.191406 344 464 594>
DStem2: 600 834 90 1453 0.463917 -0.885878<-775.388 0> 600 834 723 714 0.463917 0.885878<0 775.388>
LayerCount: 2
Fore
SplineSet
560 0 m 2,0,1
 510 0 510 0 510 49 c 2,2,-1
 510 344 l 1,3,-1
 223 344 l 2,4,5
 183 344 183 344 183 384 c 2,6,-1
 183 424 l 2,7,8
 183 464 183 464 223 464 c 2,9,-1
 510 464 l 1,10,-1
 510 594 l 1,11,-1
 223 594 l 2,12,13
 183 594 183 594 183 634 c 2,14,-1
 183 674 l 2,15,16
 183 714 183 714 223 714 c 2,17,-1
 477 714 l 1,18,-1
 90 1453 l 2,19,20
 86 1461 86 1461 86 1474 c 0,21,22
 86 1500 86 1500 124 1500 c 2,23,-1
 228 1500 l 2,24,25
 261 1500 261 1500 278 1466 c 2,26,-1
 600 834 l 1,27,-1
 922 1466 l 2,28,29
 939 1500 939 1500 972 1500 c 2,30,-1
 1076 1500 l 2,31,32
 1114 1500 1114 1500 1114 1474 c 0,33,34
 1114 1461 1114 1461 1110 1453 c 2,35,-1
 723 714 l 1,36,-1
 977 714 l 2,37,38
 1017 714 1017 714 1017 674 c 2,39,-1
 1017 634 l 2,40,41
 1017 594 1017 594 977 594 c 2,42,-1
 690 594 l 1,43,-1
 690 464 l 1,44,-1
 977 464 l 2,45,46
 1017 464 1017 464 1017 424 c 2,47,-1
 1017 384 l 2,48,49
 1017 344 1017 344 977 344 c 2,50,-1
 690 344 l 1,51,-1
 690 49 l 2,52,53
 690 0 690 0 640 0 c 2,54,-1
 560 0 l 2,0,1
EndSplineSet
Validated: 1
EndChar

StartChar: brokenbar
Encoding: 166 166 66
Width: 1200
GlyphClass: 2
Flags: W
VStem: 522 156<-149.805 659.805 850.195 1659.8>
LayerCount: 2
Fore
SplineSet
572 -150 m 2,0,1
 522 -150 522 -150 522 -100 c 2,2,-1
 522 610 l 2,3,4
 522 660 522 660 572 660 c 2,5,-1
 628 660 l 2,6,7
 678 660 678 660 678 610 c 2,8,-1
 678 -100 l 2,9,10
 678 -150 678 -150 628 -150 c 2,11,-1
 572 -150 l 2,0,1
572 1660 m 2,12,-1
 628 1660 l 2,13,14
 678 1660 678 1660 678 1610 c 2,15,-1
 678 900 l 2,16,17
 678 850 678 850 628 850 c 2,18,-1
 572 850 l 2,19,20
 522 850 522 850 522 900 c 2,21,-1
 522 1610 l 2,22,23
 522 1660 522 1660 572 1660 c 2,12,-1
EndSplineSet
Validated: 1
EndChar

StartChar: section
Encoding: 167 167 67
Width: 1200
GlyphClass: 2
Flags: W
HStem: -20 150<481.538 705.537> 1370 150<494.463 718.103>
VStem: 232 170<656.318 901.688> 292 170<1163.34 1345.07> 738 170<154.943 336.833> 798 170<598.093 846.349>
DStem2: 544 595 458 448 0.932266 -0.361775<-149.354 272.955> 608 1104 548 945 0.932266 -0.361775<-156.373 266.955>
LayerCount: 2
Fore
SplineSet
600 -20 m 0,0,1
 419 -20 419 -20 328 90 c 0,2,3
 314 107 314 107 314 119 c 0,4,5
 314 136 314 136 332 153 c 2,6,-1
 389 210 l 2,7,8
 401 223 401 223 415 223 c 0,9,10
 436 223 436 223 451 205 c 0,11,12
 513 130 513 130 602 130 c 0,13,14
 661 130 661 130 696 155 c 0,15,16
 738 185 738 185 738 246 c 0,17,18
 738 339 738 339 592 396 c 2,19,-1
 458 448 l 2,20,21
 232 535 232 535 232 745 c 0,22,23
 232 856 232 856 290 943 c 0,24,25
 304 964 304 964 323 964 c 0,26,27
 338 964 338 964 352 955 c 2,28,-1
 416 916 l 0,29,30
 435 905 435 905 435 883 c 0,31,32
 435 867 435 867 427 854 c 0,33,34
 402 814 402 814 402 765 c 0,35,36
 402 648 402 648 544 595 c 2,37,-1
 652 555 l 2,38,39
 908 461 908 461 908 250 c 0,40,41
 908 133 908 133 812 49 c 0,42,43
 733 -20 733 -20 600 -20 c 0,0,1
600 1520 m 0,44,45
 781 1520 781 1520 872 1410 c 0,46,47
 886 1393 886 1393 886 1381 c 0,48,49
 886 1364 886 1364 868 1347 c 2,50,-1
 811 1290 l 2,51,52
 798 1277 798 1277 785 1277 c 0,53,54
 764 1277 764 1277 749 1295 c 0,55,56
 685 1370 685 1370 598 1370 c 0,57,58
 539 1370 539 1370 504 1345 c 0,59,60
 462 1316 462 1316 462 1254 c 0,61,62
 462 1161 462 1161 608 1104 c 2,63,-1
 742 1052 l 2,64,65
 968 964 968 964 968 755 c 0,66,67
 968 642 968 642 910 557 c 0,68,69
 896 536 896 536 877 536 c 0,70,71
 863 536 863 536 848 545 c 2,72,-1
 784 584 l 0,73,74
 765 595 765 595 765 617 c 0,75,76
 765 633 765 633 773 646 c 0,77,78
 798 687 798 687 798 735 c 0,79,80
 798 852 798 852 656 905 c 2,81,-1
 548 945 l 2,82,83
 292 1040 292 1040 292 1250 c 0,84,85
 292 1367 292 1367 388 1451 c 0,86,87
 467 1520 467 1520 600 1520 c 0,44,45
EndSplineSet
Validated: 1
EndChar

StartChar: dieresis
Encoding: 168 168 68
Width: 1200
GlyphClass: 2
Flags: W
HStem: 1256 264<341.253 526.777 673.253 858.777>
VStem: 300 268<1295.22 1481.32> 632 268<1295.22 1481.32>
LayerCount: 2
Fore
SplineSet
766 1520 m 0,0,1
 825 1520 825 1520 860 1484 c 0,2,3
 900 1443 900 1443 900 1388 c 128,-1,4
 900 1333 900 1333 860 1294 c 0,5,6
 821 1256 821 1256 766 1256 c 0,7,8
 709 1256 709 1256 672 1292 c 0,9,10
 632 1331 632 1331 632 1388 c 128,-1,11
 632 1445 632 1445 672 1482.5 c 128,-1,12
 712 1520 712 1520 766 1520 c 0,0,1
434 1520 m 0,13,14
 493 1520 493 1520 528 1484 c 0,15,16
 568 1443 568 1443 568 1388 c 128,-1,17
 568 1333 568 1333 528 1294 c 0,18,19
 489 1256 489 1256 434 1256 c 0,20,21
 377 1256 377 1256 340 1292 c 0,22,23
 300 1331 300 1331 300 1388 c 128,-1,24
 300 1445 300 1445 340 1482.5 c 128,-1,25
 380 1520 380 1520 434 1520 c 0,13,14
EndSplineSet
Validated: 1
EndChar

StartChar: guillemotleft
Encoding: 171 171 69
Width: 1200
GlyphClass: 2
Flags: W
DStem2: 196 791 346 765 0.576683 0.816968<65.2613 548.738> 346 765 196 720 0.576072 -0.817399<0 492.321> 584 791 734 765 0.576683 0.816968<65.2613 548.738> 734 765 584 720 0.576072 -0.817399<0 492.321>
LayerCount: 2
Fore
SplineSet
922 1238 m 0,0,1
 937 1238 937 1238 954 1225 c 2,2,-1
 989 1198 l 2,3,4
 1012 1180 1012 1180 1012 1161 c 0,5,6
 1012 1147 1012 1147 998 1128 c 2,7,-1
 734 765 l 1,8,-1
 1002 394 l 2,9,10
 1016 375 1016 375 1016 361 c 0,11,12
 1016 342 1016 342 993 324 c 2,13,-1
 950 291 l 2,14,15
 933 278 933 278 918 278 c 0,16,17
 896 278 896 278 880 300 c 2,18,-1
 584 720 l 2,19,20
 572 738 572 738 572 756 c 128,-1,21
 572 774 572 774 584 791 c 2,22,-1
 884 1216 l 2,23,24
 900 1238 900 1238 922 1238 c 0,0,1
534 1238 m 0,25,26
 549 1238 549 1238 566 1225 c 2,27,-1
 601 1198 l 2,28,29
 624 1180 624 1180 624 1161 c 0,30,31
 624 1147 624 1147 610 1128 c 2,32,-1
 346 765 l 1,33,-1
 614 394 l 2,34,35
 628 375 628 375 628 361 c 0,36,37
 628 342 628 342 605 324 c 2,38,-1
 562 291 l 2,39,40
 545 278 545 278 530 278 c 0,41,42
 508 278 508 278 492 300 c 2,43,-1
 196 720 l 2,44,45
 184 737 184 737 184 756 c 0,46,47
 184 774 184 774 196 791 c 2,48,-1
 496 1216 l 2,49,50
 512 1238 512 1238 534 1238 c 0,25,26
EndSplineSet
Validated: 1
EndChar

StartChar: logicalnot
Encoding: 172 172 70
Width: 1200
GlyphClass: 2
Flags: W
HStem: 680 150<141.195 853>
DStem2: 699 410 853 410 0.494813 0.869<16.7313 310.831>
LayerCount: 2
Fore
SplineSet
191 830 m 2,0,-1
 1009 830 l 2,1,2
 1059 830 1059 830 1059 780 c 0,3,4
 1059 772 1059 772 1054 763 c 2,5,-1
 853 410 l 2,6,7
 836 380 836 380 809 380 c 2,8,-1
 715 380 l 2,9,10
 694 380 694 380 694 393 c 0,11,12
 694 401 694 401 699 410 c 2,13,-1
 853 680 l 9,14,-1
 191 680 l 2,15,16
 141 680 141 680 141 730 c 2,17,-1
 141 780 l 2,18,19
 141 830 141 830 191 830 c 2,0,-1
EndSplineSet
Validated: 1
EndChar

StartChar: uni00AD
Encoding: 173 173 71
Width: 1200
GlyphClass: 2
Flags: W
HStem: 680 150<184.195 1015.8>
LayerCount: 2
Fore
SplineSet
234 830 m 2,0,-1
 966 830 l 2,1,2
 1016 830 1016 830 1016 780 c 2,3,4
 1016 730 l 2,5,6
 1016 680 1016 680 966 680 c 2,7,-1
 234 680 l 2,8,9
 184 680 184 680 184 730 c 2,10,-1
 184 780 l 2,11,12
 184 830 184 830 234 830 c 2,0,-1
EndSplineSet
Validated: 1
EndChar

StartChar: macron
Encoding: 175 175 72
Width: 1200
GlyphClass: 2
Flags: W
HStem: 1246 130<350 850>
VStem: 350 500<1246 1376>
LayerCount: 2
Fore
SplineSet
390 1376 m 2,0,-1
 810 1376 l 2,1,2
 850 1376 850 1376 850 1336 c 2,3,4
 850 1286 l 2,5,6
 850 1246 850 1246 810 1246 c 2,7,-1
 390 1246 l 2,8,9
 350 1246 350 1246 350 1286 c 2,10,-1
 350 1336 l 2,11,12
 350 1376 350 1376 390 1376 c 2,0,-1
EndSplineSet
Validated: 1
EndChar

StartChar: degree
Encoding: 176 176 73
Width: 1200
GlyphClass: 2
Flags: W
HStem: 966 112<499.824 700.176> 1408 112<499.824 700.176>
VStem: 325 126<1127.52 1358.48> 749 126<1127.52 1358.48>
LayerCount: 2
Fore
SplineSet
600 1408 m 128,-1,1
 539 1408 539 1408 495 1359 c 128,-1,2
 451 1310 451 1310 451 1243 c 152,-1,3
 451 1176 451 1176 495 1127 c 128,-1,4
 539 1078 539 1078 600 1078 c 128,-1,5
 661 1078 661 1078 705 1127 c 128,-1,6
 749 1176 749 1176 749 1243 c 152,-1,7
 749 1310 749 1310 705 1359 c 128,-1,0
 661 1408 661 1408 600 1408 c 128,-1,1
600 1520 m 128,-1,9
 714 1520 714 1520 794.5 1438.5 c 128,-1,10
 875 1357 875 1357 875 1243 c 152,-1,11
 875 1129 875 1129 794.5 1047.5 c 128,-1,12
 714 966 714 966 600 966 c 128,-1,13
 486 966 486 966 405.5 1047.5 c 128,-1,14
 325 1129 325 1129 325 1243 c 152,-1,15
 325 1357 325 1357 405.5 1438.5 c 128,-1,8
 486 1520 486 1520 600 1520 c 128,-1,9
EndSplineSet
Validated: 1
EndChar

StartChar: plusminus
Encoding: 177 177 74
Width: 1200
GlyphClass: 2
Flags: W
HStem: 256 150<184.195 1015.8> 808 150<184.195 526 676 1015.8>
VStem: 526 150<466.195 808 958 1299.8>
LayerCount: 2
Fore
SplineSet
576 1300 m 2,0,-1
 626 1300 l 2,1,2
 676 1300 676 1300 676 1250 c 2,3,-1
 676 958 l 1,4,-1
 966 958 l 2,5,6
 1016 958 1016 958 1016 908 c 2,7,-1
 1016 858 l 2,8,9
 1016 808 1016 808 966 808 c 2,10,-1
 676 808 l 1,11,-1
 676 516 l 2,12,13
 676 466 676 466 626 466 c 2,14,-1
 576 466 l 2,15,16
 526 466 526 466 526 516 c 2,17,-1
 526 808 l 1,18,-1
 234 808 l 2,19,20
 184 808 184 808 184 858 c 2,21,-1
 184 908 l 2,22,23
 184 958 184 958 234 958 c 2,24,-1
 526 958 l 1,25,-1
 526 1250 l 2,26,27
 526 1300 526 1300 576 1300 c 2,0,-1
234 406 m 2,28,-1
 966 406 l 2,29,30
 1016 406 1016 406 1016 356 c 2,31,-1
 1016 306 l 2,32,33
 1016 256 1016 256 966 256 c 2,34,-1
 234 256 l 2,35,36
 184 256 184 256 184 306 c 2,37,-1
 184 356 l 2,38,39
 184 406 184 406 234 406 c 2,28,-1
EndSplineSet
Validated: 1
EndChar

StartChar: acute
Encoding: 180 180 75
Width: 1200
GlyphClass: 2
Flags: W
HStem: 1069 451<573.469 590.984>
VStem: 461 278
LayerCount: 2
Fore
SplineSet
609 1520 m 0,0,1
 616 1520 616 1520 627 1516 c 2,2,-1
 710 1486 l 2,3,4
 739 1476 739 1476 739 1453 c 0,5,6
 739 1442 739 1442 733 1429 c 2,7,-1
 584 1097 l 2,8,9
 571 1069 571 1069 548 1069 c 0,10,11
 540 1069 540 1069 530 1073 c 2,12,-1
 490 1089 l 2,13,14
 461 1101 461 1101 461 1123 c 0,15,16
 461 1130 461 1130 464 1139 c 2,17,-1
 577 1490 l 2,18,19
 587 1520 587 1520 609 1520 c 0,0,1
EndSplineSet
Validated: 1
EndChar

StartChar: uni00B5
Encoding: 181 181 76
Width: 1200
GlyphClass: 2
Flags: W
HStem: -400 21G<215 335> -20 150<456.931 772.3> 0 21G<862.5 987.5> 1080 20G<212.5 337.5 862.5 987.5>
VStem: 190 170<-399.805 39 227.457 1100> 840 170<4.4e-07 74 188.784 1100>
LayerCount: 2
Fore
SplineSet
885 0 m 2,0,1
 840 0 840 0 840 44 c 2,2,-1
 840 74 l 1,3,4
 738 -20 738 -20 592 -20 c 0,5,6
 455 -20 455 -20 360 39 c 1,7,-1
 360 -350 l 2,8,9
 360 -400 360 -400 310 -400 c 2,10,-1
 240 -400 l 2,11,12
 190 -400 190 -400 190 -350 c 2,13,-1
 190 1056 l 2,14,15
 190 1100 190 1100 235 1100 c 2,16,-1
 315 1100 l 2,17,18
 360 1100 360 1100 360 1056 c 2,19,-1
 360 383 l 2,20,21
 360 269 360 269 426 200 c 0,22,23
 493 130 493 130 617 130 c 0,24,25
 770 130 770 130 840 239 c 1,26,-1
 840 1056 l 2,27,28
 840 1100 840 1100 885 1100 c 2,29,-1
 965 1100 l 2,30,31
 1010 1100 1010 1100 1010 1056 c 2,32,-1
 1010 44 l 2,33,34
 1010 0 1010 0 965 0 c 2,35,-1
 885 0 l 2,0,1
EndSplineSet
Validated: 1
EndChar

StartChar: paragraph
Encoding: 182 182 77
Width: 1200
GlyphClass: 2
Flags: W
HStem: 0 21G<625 715 901 991> 1360 140<740 876>
VStem: 150 590<849.342 1246.66> 600 140<0.191406 595> 876 140<0.191406 1360>
LayerCount: 2
Fore
SplineSet
650 0 m 2,0,1
 600 0 600 0 600 49 c 2,2,-1
 600 595 l 1,3,4
 414 596 414 596 282 728 c 128,-1,5
 150 860 150 860 150 1048 c 128,-1,6
 150 1236 150 1236 282 1368 c 0,7,8
 415 1500 415 1500 600 1500 c 2,9,-1
 966 1500 l 2,10,11
 1016 1500 1016 1500 1016 1451 c 2,12,-1
 1016 49 l 2,13,14
 1016 0 1016 0 966 0 c 2,15,-1
 926 0 l 2,16,17
 876 0 876 0 876 49 c 2,18,-1
 876 1360 l 1,19,-1
 740 1360 l 1,20,-1
 740 49 l 2,21,22
 740 0 740 0 690 0 c 2,23,-1
 650 0 l 2,0,1
EndSplineSet
Validated: 1
EndChar

StartChar: periodcentered
Encoding: 183 183 78
Width: 1200
GlyphClass: 2
Flags: W
HStem: 616 264<507.253 692.777>
VStem: 466 268<655.223 841.323>
LayerCount: 2
Fore
SplineSet
600 880 m 0,0,1
 659 880 659 880 694 844 c 0,2,3
 734 803 734 803 734 748 c 128,-1,4
 734 693 734 693 694 654 c 0,5,6
 655 616 655 616 600 616 c 0,7,8
 543 616 543 616 506 652 c 0,9,10
 466 691 466 691 466 748 c 128,-1,11
 466 805 466 805 506 842.5 c 128,-1,12
 546 880 546 880 600 880 c 0,0,1
EndSplineSet
Validated: 1
EndChar

StartChar: cedilla
Encoding: 184 184 79
Width: 1200
GlyphClass: 2
Flags: W
HStem: -420 128<468.195 583.123> -107 107<476 556>
VStem: 476 80<-47.8235 0> 609 123<-272.588 -128.279>
LayerCount: 2
Fore
SplineSet
476 0 m 1,0,-1
 556 0 l 1,1,-1
 556 -39 l 1,2,3
 618 -49 618 -49 659 -80 c 0,4,5
 732 -133 732 -133 732 -214 c 128,-1,6
 732 -295 732 -295 680 -350 c 0,7,8
 614 -420 614 -420 518 -420 c 0,9,10
 468 -420 468 -420 468 -370 c 2,11,-1
 468 -342 l 2,12,13
 468 -292 468 -292 518 -292 c 0,14,15
 556 -292 556 -292 584 -266 c 0,16,17
 609 -243 609 -243 609 -204 c 0,18,19
 609 -158 609 -158 571 -130 c 0,20,21
 539 -107 539 -107 476 -107 c 1,22,-1
 476 0 l 1,0,-1
EndSplineSet
Validated: 1
EndChar

StartChar: guillemotright
Encoding: 187 187 80
Width: 1200
GlyphClass: 2
Flags: W
DStem2: 320 1216 198 1122 0.576072 -0.817399<-28.1238 464.197> 466 751 316 300 0.576683 0.816968<-483.477 0> 708 1216 586 1122 0.576072 -0.817399<-28.1238 464.197> 854 751 704 300 0.576683 0.816968<-483.477 0>
LayerCount: 2
Fore
SplineSet
278 278 m 0,0,1
 263 278 263 278 246 291 c 2,2,-1
 211 318 l 2,3,4
 188 336 188 336 188 355 c 0,5,6
 188 369 188 369 202 388 c 2,7,-1
 466 751 l 1,8,-1
 198 1122 l 2,9,10
 184 1141 184 1141 184 1155 c 0,11,12
 184 1174 184 1174 207 1192 c 2,13,-1
 250 1225 l 2,14,15
 267 1238 267 1238 282 1238 c 0,16,17
 304 1238 304 1238 320 1216 c 2,18,-1
 616 796 l 2,19,20
 628 778 628 778 628 760 c 128,-1,21
 628 742 628 742 616 725 c 2,22,-1
 316 300 l 2,23,24
 300 278 300 278 278 278 c 0,0,1
666 278 m 0,25,26
 651 278 651 278 634 291 c 2,27,-1
 599 318 l 2,28,29
 576 336 576 336 576 355 c 0,30,31
 576 369 576 369 590 388 c 2,32,-1
 854 751 l 1,33,-1
 586 1122 l 2,34,35
 572 1141 572 1141 572 1155 c 0,36,37
 572 1174 572 1174 595 1192 c 2,38,-1
 638 1225 l 2,39,40
 655 1238 655 1238 670 1238 c 0,41,42
 692 1238 692 1238 708 1216 c 2,43,-1
 1004 796 l 2,44,45
 1016 779 1016 779 1016 760 c 0,46,47
 1016 742 1016 742 1004 725 c 2,48,-1
 704 300 l 2,49,50
 688 278 688 278 666 278 c 0,25,26
EndSplineSet
Validated: 1
EndChar

StartChar: questiondown
Encoding: 191 191 81
Width: 1200
GlyphClass: 2
Flags: W
HStem: -420 160<497.468 839.496> 856 264<600.223 785.747>
VStem: 180 181<-126.937 209.815> 559 268<894.677 1080.78> 599 180<538.745 681.716>
LayerCount: 2
Fore
SplineSet
693 1120 m 0,0,1
 750 1120 750 1120 787 1084 c 0,2,3
 827 1045 827 1045 827 988 c 128,-1,4
 827 931 827 931 787 893.5 c 128,-1,5
 747 856 747 856 693 856 c 0,6,7
 634 856 634 856 599 892 c 0,8,9
 559 933 559 933 559 988 c 128,-1,10
 559 1043 559 1043 599 1082 c 0,11,12
 638 1120 638 1120 693 1120 c 0,0,1
665 -420 m 0,13,14
 433 -420 433 -420 302 -278 c 0,15,16
 180 -146 180 -146 180 30 c 0,17,18
 180 338 180 338 503 500 c 0,19,20
 599 548 599 548 599 651 c 0,21,22
 599 673 599 673 611 682 c 0,23,24
 620 690 620 690 639 690 c 2,25,-1
 739 690 l 2,26,27
 758 690 758 690 767 682 c 0,28,29
 779 673 779 673 779 651 c 0,30,31
 779 466 779 466 578 366 c 0,32,33
 361 258 361 258 361 28 c 0,34,35
 361 -77 361 -77 424 -153 c 0,36,37
 512 -260 512 -260 666 -260 c 128,-1,38
 820 -260 820 -260 909 -156 c 0,39,40
 925 -137 925 -137 937 -137 c 0,41,42
 950 -137 950 -137 965 -148 c 2,43,-1
 1042 -205 l 2,44,45
 1060 -218 1060 -218 1060 -232 c 128,-1,46
 1060 -246 1060 -246 1048 -261 c 0,47,48
 921 -420 921 -420 665 -420 c 0,13,14
EndSplineSet
Validated: 1
EndChar

StartChar: figuredash
Encoding: 8210 8210 82
Width: 1200
GlyphClass: 2
Flags: W
HStem: 680 150<184.195 1015.8>
LayerCount: 2
Fore
SplineSet
234 830 m 2,0,-1
 966 830 l 2,1,2
 1016 830 1016 830 1016 780 c 2,3,4
 1016 730 l 2,5,6
 1016 680 1016 680 966 680 c 2,7,-1
 234 680 l 2,8,9
 184 680 184 680 184 730 c 2,10,-1
 184 780 l 2,11,12
 184 830 184 830 234 830 c 2,0,-1
EndSplineSet
Validated: 1
EndChar

StartChar: endash
Encoding: 8211 8211 83
Width: 1200
GlyphClass: 2
Flags: W
HStem: 680 150<25.1953 1174.8>
LayerCount: 2
Fore
SplineSet
75 830 m 2,0,-1
 1125 830 l 2,1,2
 1175 830 1175 830 1175 780 c 2,3,4
 1175 730 l 2,5,6
 1175 680 1175 680 1125 680 c 2,7,-1
 75 680 l 2,8,9
 25 680 25 680 25 730 c 2,10,-1
 25 780 l 2,11,12
 25 830 25 830 75 830 c 2,0,-1
EndSplineSet
Validated: 1
EndChar

StartChar: emdash
Encoding: 8212 8212 84
Width: 1200
GlyphClass: 2
Flags: W
HStem: 680 150<25.1953 1174.8>
LayerCount: 2
Fore
SplineSet
75 830 m 2,0,-1
 1125 830 l 2,1,2
 1175 830 1175 830 1175 780 c 2,3,4
 1175 730 l 2,5,6
 1175 680 1175 680 1125 680 c 2,7,-1
 75 680 l 2,8,9
 25 680 25 680 25 730 c 2,10,-1
 25 780 l 2,11,12
 25 830 25 830 75 830 c 2,0,-1
EndSplineSet
Validated: 1
EndChar

StartChar: quoteleft
Encoding: 8216 8216 85
Width: 1200
GlyphClass: 2
Flags: W
HStem: 1044 566<609 658>
VStem: 479 155<1197.75 1468.81>
LayerCount: 2
Fore
SplineSet
658 1610 m 0,0,1
 664 1610 664 1610 673 1603 c 2,2,-1
 708 1577 l 2,3,4
 721 1567 721 1567 721 1555 c 0,5,6
 721 1549 721 1549 717 1545 c 24,7,8
 634 1462 634 1462 634 1342 c 0,9,10
 634 1236 634 1236 709 1161 c 24,11,12
 721 1149 721 1149 721 1135 c 0,13,14
 721 1114 721 1114 701 1100 c 2,15,-1
 629 1050 l 2,16,17
 620 1044 620 1044 609 1044 c 0,18,19
 594 1044 594 1044 574 1062 c 0,20,21
 479 1148 479 1148 479 1296 c 0,22,23
 479 1471 479 1471 635 1601 c 24,24,25
 646 1610 646 1610 658 1610 c 0,0,1
EndSplineSet
Validated: 1
EndChar

StartChar: quoteright
Encoding: 8217 8217 86
Width: 1200
GlyphClass: 2
Flags: W
HStem: 1044 566<542 591>
VStem: 566 155<1185.19 1456.25>
LayerCount: 2
Fore
SplineSet
591 1610 m 0,0,1
 606 1610 606 1610 626 1592 c 0,2,3
 721 1506 721 1506 721 1358 c 0,4,5
 721 1183 721 1183 565 1053 c 24,6,7
 554 1044 554 1044 542 1044 c 0,8,9
 536 1044 536 1044 527 1051 c 2,10,-1
 492 1077 l 2,11,12
 479 1087 479 1087 479 1099 c 0,13,14
 479 1105 479 1105 483 1109 c 24,15,16
 566 1192 566 1192 566 1312 c 0,17,18
 566 1418 566 1418 491 1493 c 24,19,20
 479 1505 479 1505 479 1519 c 0,21,22
 479 1540 479 1540 499 1554 c 2,23,-1
 571 1604 l 2,24,25
 580 1610 580 1610 591 1610 c 0,0,1
EndSplineSet
Validated: 1
EndChar

StartChar: quotesinglbase
Encoding: 8218 8218 87
Width: 1200
GlyphClass: 2
Flags: W
HStem: -280 566<542 591>
VStem: 566 155<-138.81 132.254>
LayerCount: 2
Fore
SplineSet
591 286 m 0,0,1
 606 286 606 286 626 268 c 0,2,3
 721 182 721 182 721 34 c 0,4,5
 721 -141 721 -141 565 -271 c 24,6,7
 554 -280 554 -280 542 -280 c 0,8,9
 536 -280 536 -280 527 -273 c 2,10,-1
 492 -247 l 2,11,12
 479 -237 479 -237 479 -225 c 0,13,14
 479 -219 479 -219 483 -215 c 24,15,16
 566 -132 566 -132 566 -12 c 0,17,18
 566 94 566 94 491 169 c 24,19,20
 479 181 479 181 479 195 c 0,21,22
 479 216 479 216 499 230 c 2,23,-1
 571 280 l 2,24,25
 580 286 580 286 591 286 c 0,0,1
EndSplineSet
Validated: 1
EndChar

StartChar: quotereversed
Encoding: 8219 8219 88
Width: 1200
GlyphClass: 2
Flags: W
HStem: 1044 566<609 658>
VStem: 479 155<1185.19 1456.25>
LayerCount: 2
Fore
SplineSet
609 1610 m 0,0,1
 620 1610 620 1610 629 1604 c 2,2,-1
 701 1554 l 2,3,4
 721 1540 721 1540 721 1519 c 0,5,6
 721 1505 721 1505 709 1493 c 24,7,8
 634 1418 634 1418 634 1312 c 0,9,10
 634 1192 634 1192 717 1109 c 24,11,12
 721 1105 721 1105 721 1099 c 0,13,14
 721 1087 721 1087 708 1077 c 2,15,-1
 673 1051 l 2,16,17
 664 1044 664 1044 658 1044 c 0,18,19
 646 1044 646 1044 635 1053 c 24,20,21
 479 1183 479 1183 479 1358 c 0,22,23
 479 1506 479 1506 574 1592 c 0,24,25
 594 1610 594 1610 609 1610 c 0,0,1
EndSplineSet
Validated: 1
EndChar

StartChar: quotedblleft
Encoding: 8220 8220 89
Width: 1200
GlyphClass: 2
Flags: W
HStem: 1044 566<459 508 759 808>
VStem: 329 155<1197.75 1468.81> 629 155<1197.75 1468.81>
LayerCount: 2
Fore
SplineSet
508 1610 m 0,0,1
 514 1610 514 1610 523 1603 c 2,2,-1
 558 1577 l 2,3,4
 571 1567 571 1567 571 1555 c 0,5,6
 571 1549 571 1549 567 1545 c 24,7,8
 484 1462 484 1462 484 1342 c 0,9,10
 484 1236 484 1236 559 1161 c 24,11,12
 571 1149 571 1149 571 1135 c 0,13,14
 571 1114 571 1114 551 1100 c 2,15,-1
 479 1050 l 2,16,17
 470 1044 470 1044 459 1044 c 0,18,19
 444 1044 444 1044 424 1062 c 0,20,21
 329 1148 329 1148 329 1296 c 0,22,23
 329 1471 329 1471 485 1601 c 24,24,25
 496 1610 496 1610 508 1610 c 0,0,1
808 1610 m 0,26,27
 814 1610 814 1610 823 1603 c 2,28,-1
 858 1577 l 2,29,30
 871 1567 871 1567 871 1555 c 0,31,32
 871 1549 871 1549 867 1545 c 24,33,34
 784 1462 784 1462 784 1342 c 0,35,36
 784 1236 784 1236 859 1161 c 24,37,38
 871 1149 871 1149 871 1135 c 0,39,40
 871 1114 871 1114 851 1100 c 2,41,-1
 779 1050 l 2,42,43
 770 1044 770 1044 759 1044 c 0,44,45
 744 1044 744 1044 724 1062 c 0,46,47
 629 1148 629 1148 629 1296 c 0,48,49
 629 1471 629 1471 785 1601 c 24,50,51
 796 1610 796 1610 808 1610 c 0,26,27
EndSplineSet
Validated: 1
EndChar

StartChar: quotedblright
Encoding: 8221 8221 90
Width: 1200
GlyphClass: 2
Flags: W
HStem: 1044 566<392 441 692 741>
VStem: 416 155<1185.19 1456.25> 716 155<1185.19 1456.25>
LayerCount: 2
Fore
SplineSet
741 1610 m 0,0,1
 756 1610 756 1610 776 1592 c 0,2,3
 871 1506 871 1506 871 1358 c 0,4,5
 871 1183 871 1183 715 1053 c 24,6,7
 704 1044 704 1044 692 1044 c 0,8,9
 686 1044 686 1044 677 1051 c 2,10,-1
 642 1077 l 2,11,12
 629 1087 629 1087 629 1099 c 0,13,14
 629 1105 629 1105 633 1109 c 24,15,16
 716 1192 716 1192 716 1312 c 0,17,18
 716 1418 716 1418 641 1493 c 24,19,20
 629 1505 629 1505 629 1519 c 0,21,22
 629 1540 629 1540 649 1554 c 2,23,-1
 721 1604 l 2,24,25
 730 1610 730 1610 741 1610 c 0,0,1
441 1610 m 0,26,27
 456 1610 456 1610 476 1592 c 0,28,29
 571 1506 571 1506 571 1358 c 0,30,31
 571 1183 571 1183 415 1053 c 24,32,33
 404 1044 404 1044 392 1044 c 0,34,35
 386 1044 386 1044 377 1051 c 2,36,-1
 342 1077 l 2,37,38
 329 1087 329 1087 329 1099 c 0,39,40
 329 1105 329 1105 333 1109 c 24,41,42
 416 1192 416 1192 416 1312 c 0,43,44
 416 1418 416 1418 341 1493 c 24,45,46
 329 1505 329 1505 329 1519 c 0,47,48
 329 1540 329 1540 349 1554 c 2,49,-1
 421 1604 l 2,50,51
 430 1610 430 1610 441 1610 c 0,26,27
EndSplineSet
Validated: 1
EndChar

StartChar: quotedblbase
Encoding: 8222 8222 91
Width: 1200
GlyphClass: 2
Flags: W
HStem: -280 566<392 441 692 741>
VStem: 416 155<-138.81 132.254> 716 155<-138.81 132.254>
LayerCount: 2
Fore
SplineSet
741 286 m 0,0,1
 756 286 756 286 776 268 c 0,2,3
 871 182 871 182 871 34 c 0,4,5
 871 -141 871 -141 715 -271 c 24,6,7
 704 -280 704 -280 692 -280 c 0,8,9
 686 -280 686 -280 677 -273 c 2,10,-1
 642 -247 l 2,11,12
 629 -237 629 -237 629 -225 c 0,13,14
 629 -219 629 -219 633 -215 c 24,15,16
 716 -132 716 -132 716 -12 c 0,17,18
 716 94 716 94 641 169 c 24,19,20
 629 181 629 181 629 195 c 0,21,22
 629 216 629 216 649 230 c 2,23,-1
 721 280 l 2,24,25
 730 286 730 286 741 286 c 0,0,1
441 286 m 0,26,27
 456 286 456 286 476 268 c 0,28,29
 571 182 571 182 571 34 c 0,30,31
 571 -141 571 -141 415 -271 c 24,32,33
 404 -280 404 -280 392 -280 c 0,34,35
 386 -280 386 -280 377 -273 c 2,36,-1
 342 -247 l 2,37,38
 329 -237 329 -237 329 -225 c 0,39,40
 329 -219 329 -219 333 -215 c 24,41,42
 416 -132 416 -132 416 -12 c 0,43,44
 416 94 416 94 341 169 c 24,45,46
 329 181 329 181 329 195 c 0,47,48
 329 216 329 216 349 230 c 2,49,-1
 421 280 l 2,50,51
 430 286 430 286 441 286 c 0,26,27
EndSplineSet
Validated: 1
EndChar

StartChar: dagger
Encoding: 8224 8224 92
Width: 1200
GlyphClass: 2
Flags: W
HStem: 0 21G<535 665> 1004 170<185.11 510 690 1014.89> 1480 20G<535 665>
VStem: 510 180<0.191406 1004 1174 1499.81>
LayerCount: 2
Fore
SplineSet
560 0 m 2,0,1
 510 0 510 0 510 49 c 2,2,-1
 510 1004 l 1,3,-1
 235 1004 l 2,4,5
 185 1004 185 1004 185 1053 c 2,6,-1
 185 1125 l 2,7,8
 185 1174 185 1174 235 1174 c 2,9,-1
 510 1174 l 1,10,-1
 510 1451 l 2,11,12
 510 1500 510 1500 560 1500 c 2,13,-1
 640 1500 l 2,14,15
 690 1500 690 1500 690 1451 c 2,16,-1
 690 1174 l 1,17,-1
 965 1174 l 2,18,19
 1015 1174 1015 1174 1015 1125 c 2,20,-1
 1015 1053 l 2,21,22
 1015 1004 1015 1004 965 1004 c 2,23,-1
 690 1004 l 1,24,-1
 690 49 l 2,25,26
 690 0 690 0 640 0 c 2,27,-1
 560 0 l 2,0,1
EndSplineSet
Validated: 1
EndChar

StartChar: daggerdbl
Encoding: 8225 8225 93
Width: 1200
GlyphClass: 2
Flags: W
HStem: 0 21G<535 665> 336 170<185.11 510 690 1014.89> 1004 170<185.11 510 690 1014.89> 1480 20G<535 665>
VStem: 510 180<0.191406 336 506 1004 1174 1499.81>
LayerCount: 2
Fore
SplineSet
560 0 m 2,0,1
 510 0 510 0 510 49 c 2,2,-1
 510 336 l 1,3,-1
 235 336 l 2,4,5
 185 336 185 336 185 385 c 2,6,-1
 185 457 l 2,7,8
 185 506 185 506 235 506 c 2,9,-1
 510 506 l 1,10,-1
 510 1004 l 1,11,-1
 235 1004 l 2,12,13
 185 1004 185 1004 185 1053 c 2,14,-1
 185 1125 l 2,15,16
 185 1174 185 1174 235 1174 c 2,17,-1
 510 1174 l 1,18,-1
 510 1451 l 2,19,20
 510 1500 510 1500 560 1500 c 2,21,-1
 640 1500 l 2,22,23
 690 1500 690 1500 690 1451 c 2,24,-1
 690 1174 l 1,25,-1
 965 1174 l 2,26,27
 1015 1174 1015 1174 1015 1125 c 2,28,-1
 1015 1053 l 2,29,30
 1015 1004 1015 1004 965 1004 c 2,31,-1
 690 1004 l 1,32,-1
 690 506 l 1,33,-1
 965 506 l 2,34,35
 1015 506 1015 506 1015 457 c 2,36,-1
 1015 385 l 2,37,38
 1015 336 1015 336 965 336 c 2,39,-1
 690 336 l 1,40,-1
 690 49 l 2,41,42
 690 0 690 0 640 0 c 2,43,-1
 560 0 l 2,0,1
EndSplineSet
Validated: 1
EndChar

StartChar: bullet
Encoding: 8226 8226 94
Width: 1200
GlyphClass: 2
Flags: W
HStem: 420 665<432.574 769.627>
VStem: 262 676<590.762 920.135>
LayerCount: 2
Fore
SplineSet
262 759 m 0,0,1
 262 890 262 890 360 988 c 0,2,3
 457 1085 457 1085 600 1085 c 0,4,5
 741 1085 741 1085 840 988 c 0,6,7
 938 892 938 892 938 753 c 0,8,9
 938 611 938 611 840 517 c 0,10,11
 739 420 739 420 600 420 c 0,12,13
 458 420 458 420 360 520 c 128,-1,14
 262 620 262 620 262 759 c 0,0,1
EndSplineSet
Validated: 1
EndChar

StartChar: ellipsis
Encoding: 8230 8230 95
Width: 1200
GlyphClass: 2
Flags: W
HStem: -20 264<135.253 320.777 507.253 692.777 879.253 1064.78>
VStem: 94 268<19.2227 205.323> 466 268<19.2227 205.323> 838 268<19.2227 205.323>
CounterMasks: 1 70
LayerCount: 2
Fore
SplineSet
972 244 m 0,0,1
 1031 244 1031 244 1066 208 c 0,2,3
 1106 167 1106 167 1106 112 c 128,-1,4
 1106 57 1106 57 1066 18 c 0,5,6
 1027 -20 1027 -20 972 -20 c 0,7,8
 915 -20 915 -20 878 16 c 0,9,10
 838 55 838 55 838 112 c 128,-1,11
 838 169 838 169 878 206.5 c 128,-1,12
 918 244 918 244 972 244 c 0,0,1
600 244 m 0,13,14
 659 244 659 244 694 208 c 0,15,16
 734 167 734 167 734 112 c 128,-1,17
 734 57 734 57 694 18 c 0,18,19
 655 -20 655 -20 600 -20 c 0,20,21
 543 -20 543 -20 506 16 c 0,22,23
 466 55 466 55 466 112 c 128,-1,24
 466 169 466 169 506 206.5 c 128,-1,25
 546 244 546 244 600 244 c 0,13,14
228 244 m 0,26,27
 287 244 287 244 322 208 c 0,28,29
 362 167 362 167 362 112 c 128,-1,30
 362 57 362 57 322 18 c 0,31,32
 283 -20 283 -20 228 -20 c 0,33,34
 171 -20 171 -20 134 16 c 0,35,36
 94 55 94 55 94 112 c 128,-1,37
 94 169 94 169 134 206.5 c 128,-1,38
 174 244 174 244 228 244 c 0,26,27
EndSplineSet
Validated: 1
EndChar

StartChar: perthousand
Encoding: 8240 8240 96
Width: 1200
GlyphClass: 2
Flags: W
HStem: -20 128<305.091 477.326 835.091 1007.33> 356 124<303.689 477.311 833.689 1007.31> 1020 128<195.091 367.326> 1396 124<193.689 367.311>
VStem: 30 133<1181.34 1363.94> 140 133<141.341 323.94> 399 131<1179.45 1363.94> 509 131<139.455 323.94> 670 133<141.341 323.94> 1039 131<139.455 323.94>
DStem2: 1023 1344 1115 1221 0.797689 0.603069<-1231.79 33.6417>
LayerCount: 2
Fore
SplineSet
803 232 m 0,0,1
 803 182 803 182 837 145 c 128,-1,2
 871 108 871 108 921 108 c 0,3,4
 972 108 972 108 1005 144 c 0,5,6
 1039 181 1039 181 1039 232 c 0,7,8
 1039 284 1039 284 1005 320 c 128,-1,9
 971 356 971 356 921 356 c 128,-1,10
 871 356 871 356 837 320 c 128,-1,11
 803 284 803 284 803 232 c 0,0,1
670 230 m 128,-1,13
 670 334 670 334 743 407 c 128,-1,14
 816 480 816 480 920 480 c 128,-1,15
 1024 480 1024 480 1097 407 c 128,-1,16
 1170 334 1170 334 1170 230 c 128,-1,17
 1170 126 1170 126 1097 53 c 128,-1,18
 1024 -20 1024 -20 920 -20 c 128,-1,19
 816 -20 816 -20 743 53 c 128,-1,12
 670 126 670 126 670 230 c 128,-1,13
273 232 m 0,20,21
 273 182 273 182 307 145 c 128,-1,22
 341 108 341 108 391 108 c 0,23,24
 442 108 442 108 475 144 c 0,25,26
 509 181 509 181 509 232 c 0,27,28
 509 284 509 284 475 320 c 128,-1,29
 441 356 441 356 391 356 c 128,-1,30
 341 356 341 356 307 320 c 128,-1,31
 273 284 273 284 273 232 c 0,20,21
140 230 m 128,-1,33
 140 334 140 334 213 407 c 128,-1,34
 286 480 286 480 390 480 c 128,-1,35
 494 480 494 480 567 407 c 128,-1,36
 640 334 640 334 640 230 c 128,-1,37
 640 126 640 126 567 53 c 128,-1,38
 494 -20 494 -20 390 -20 c 128,-1,39
 286 -20 286 -20 213 53 c 128,-1,32
 140 126 140 126 140 230 c 128,-1,33
163 1272 m 0,40,41
 163 1222 163 1222 197 1185 c 128,-1,42
 231 1148 231 1148 281 1148 c 0,43,44
 332 1148 332 1148 365 1184 c 0,45,46
 399 1221 399 1221 399 1272 c 0,47,48
 399 1324 399 1324 365 1360 c 128,-1,49
 331 1396 331 1396 281 1396 c 128,-1,50
 231 1396 231 1396 197 1360 c 128,-1,51
 163 1324 163 1324 163 1272 c 0,40,41
30 1270 m 128,-1,53
 30 1374 30 1374 103 1447 c 128,-1,54
 176 1520 176 1520 280 1520 c 128,-1,55
 384 1520 384 1520 457 1447 c 128,-1,56
 530 1374 530 1374 530 1270 c 128,-1,57
 530 1166 530 1166 457 1093 c 128,-1,58
 384 1020 384 1020 280 1020 c 128,-1,59
 176 1020 176 1020 103 1093 c 128,-1,52
 30 1166 30 1166 30 1270 c 128,-1,53
127 486 m 0,60,61
 109 486 109 486 91 509 c 2,62,-1
 57 553 l 2,63,64
 44 570 44 570 44 585 c 0,65,66
 44 604 44 604 68 622 c 2,67,-1
 1023 1344 l 2,68,69
 1042 1358 1042 1358 1055 1358 c 0,70,71
 1072 1358 1072 1358 1091 1334 c 2,72,-1
 1125 1291 l 2,73,74
 1137 1276 1137 1276 1137 1256 c 0,75,76
 1137 1238 1137 1238 1115 1221 c 2,77,-1
 160 500 l 2,78,79
 142 486 142 486 127 486 c 0,60,61
EndSplineSet
Validated: 1
EndChar

StartChar: minute
Encoding: 8242 8242 97
Width: 1200
GlyphClass: 2
Flags: W
HStem: 1069 451<573.469 590.984>
VStem: 461 278
LayerCount: 2
Fore
SplineSet
609 1520 m 0,0,1
 616 1520 616 1520 627 1516 c 2,2,-1
 710 1486 l 2,3,4
 739 1476 739 1476 739 1453 c 0,5,6
 739 1442 739 1442 733 1429 c 2,7,-1
 584 1097 l 2,8,9
 571 1069 571 1069 548 1069 c 0,10,11
 540 1069 540 1069 530 1073 c 2,12,-1
 490 1089 l 2,13,14
 461 1101 461 1101 461 1123 c 0,15,16
 461 1130 461 1130 464 1139 c 2,17,-1
 577 1490 l 2,18,19
 587 1520 587 1520 609 1520 c 0,0,1
EndSplineSet
Validated: 1
EndChar

StartChar: second
Encoding: 8243 8243 98
Width: 1200
GlyphClass: 2
Flags: W
HStem: 1069 451<423.469 440.984 723.469 740.984>
VStem: 311 578
LayerCount: 2
Fore
SplineSet
759 1520 m 0,0,1
 766 1520 766 1520 777 1516 c 2,2,-1
 860 1486 l 2,3,4
 889 1476 889 1476 889 1453 c 0,5,6
 889 1442 889 1442 883 1429 c 2,7,-1
 734 1097 l 2,8,9
 721 1069 721 1069 698 1069 c 0,10,11
 690 1069 690 1069 680 1073 c 2,12,-1
 640 1089 l 2,13,14
 611 1101 611 1101 611 1123 c 0,15,16
 611 1130 611 1130 614 1139 c 2,17,-1
 727 1490 l 2,18,19
 737 1520 737 1520 759 1520 c 0,0,1
459 1520 m 0,20,21
 466 1520 466 1520 477 1516 c 2,22,-1
 560 1486 l 2,23,24
 589 1476 589 1476 589 1453 c 0,25,26
 589 1442 589 1442 583 1429 c 2,27,-1
 434 1097 l 2,28,29
 421 1069 421 1069 398 1069 c 0,30,31
 390 1069 390 1069 380 1073 c 2,32,-1
 340 1089 l 2,33,34
 311 1101 311 1101 311 1123 c 0,35,36
 311 1130 311 1130 314 1139 c 2,37,-1
 427 1490 l 2,38,39
 437 1520 437 1520 459 1520 c 0,20,21
EndSplineSet
Validated: 1
EndChar

StartChar: guilsinglleft
Encoding: 8249 8249 99
Width: 1200
GlyphClass: 2
Flags: W
VStem: 378 440
DStem2: 390 791 540 765 0.576683 0.816968<65.2613 548.738> 540 765 390 720 0.576072 -0.817399<0 492.321>
LayerCount: 2
Fore
SplineSet
728 1238 m 0,0,1
 743 1238 743 1238 760 1225 c 2,2,-1
 795 1198 l 2,3,4
 818 1180 818 1180 818 1161 c 0,5,6
 818 1147 818 1147 804 1128 c 2,7,-1
 540 765 l 1,8,-1
 808 394 l 2,9,10
 822 375 822 375 822 361 c 0,11,12
 822 342 822 342 799 324 c 2,13,-1
 756 291 l 2,14,15
 739 278 739 278 724 278 c 0,16,17
 702 278 702 278 686 300 c 2,18,-1
 390 720 l 2,19,20
 378 737 378 737 378 756 c 0,21,22
 378 774 378 774 390 791 c 2,23,-1
 690 1216 l 2,24,25
 706 1238 706 1238 728 1238 c 0,0,1
EndSplineSet
Validated: 1
EndChar

StartChar: guilsinglright
Encoding: 8250 8250 100
Width: 1200
GlyphClass: 2
Flags: W
VStem: 382 440
DStem2: 514 1216 392 1122 0.576072 -0.817399<-28.1238 464.197> 660 751 510 300 0.576683 0.816968<-483.477 0>
LayerCount: 2
Fore
SplineSet
472 278 m 0,0,1
 457 278 457 278 440 291 c 2,2,-1
 405 318 l 2,3,4
 382 336 382 336 382 355 c 0,5,6
 382 369 382 369 396 388 c 2,7,-1
 660 751 l 1,8,-1
 392 1122 l 2,9,10
 378 1141 378 1141 378 1155 c 0,11,12
 378 1174 378 1174 401 1192 c 2,13,-1
 444 1225 l 2,14,15
 461 1238 461 1238 476 1238 c 0,16,17
 498 1238 498 1238 514 1216 c 2,18,-1
 810 796 l 2,19,20
 822 779 822 779 822 760 c 0,21,22
 822 742 822 742 810 725 c 2,23,-1
 510 300 l 2,24,25
 494 278 494 278 472 278 c 0,0,1
EndSplineSet
Validated: 1
EndChar

StartChar: fraction
Encoding: 8260 8260 101
Width: 1200
GlyphClass: 2
Flags: W
DStem2: 954 1522 1088 1445 0.499465 0.866334<-1711.56 28.9864>
LayerCount: 2
Fore
SplineSet
208 -40 m 0,0,1
 196 -40 196 -40 180 -31 c 2,2,-1
 132 -3 l 2,3,4
 104 13 104 13 104 36 c 0,5,6
 104 49 104 49 114 65 c 2,7,-1
 954 1522 l 2,8,9
 970 1550 970 1550 992 1550 c 0,10,11
 1006 1550 1006 1550 1022 1541 c 2,12,-1
 1070 1513 l 2,13,14
 1096 1497 1096 1497 1096 1474 c 0,15,16
 1096 1461 1096 1461 1088 1445 c 2,17,-1
 248 -12 l 2,18,19
 232 -40 232 -40 208 -40 c 0,0,1
EndSplineSet
Validated: 1
EndChar

StartChar: Euro
Encoding: 8364 8364 102
Width: 1200
GlyphClass: 2
Flags: W
HStem: -20 160<575.362 854.49> 570 120<80 191 384 814> 820 120<80 192 385 814> 1360 160<575.862 854.49>
VStem: 190 182<422.25 570 690 820 940 1077.81>
LayerCount: 2
Fore
SplineSet
717.5 -20 m 128,-1,1
 459 -20 459 -20 322 206 c 0,2,3
 229 364 229 364 201 570 c 1,4,-1
 120 570 l 2,5,6
 80 570 80 570 80 610 c 2,7,-1
 80 650 l 2,8,9
 80 690 80 690 120 690 c 2,10,-1
 191 690 l 1,11,12
 190 720 190 720 190 750 c 0,13,14
 190 786 190 786 192 820 c 1,15,-1
 120 820 l 2,16,17
 80 820 80 820 80 860 c 2,18,-1
 80 900 l 2,19,20
 80 940 80 940 120 940 c 2,21,-1
 203 940 l 1,22,23
 231 1140 231 1140 322 1294 c 0,24,25
 459 1520 459 1520 717.5 1520 c 128,-1,26
 976 1520 976 1520 1109 1294 c 0,27,28
 1120 1275 1120 1275 1120 1266 c 0,29,30
 1120 1251 1120 1251 1102 1237 c 2,31,-1
 1025 1180 l 2,32,33
 1010 1169 1010 1169 998 1169 c 0,34,35
 984 1169 984 1169 972 1188 c 0,36,37
 862 1360 862 1360 728 1360 c 0,38,39
 560 1360 560 1360 460 1189 c 1,40,41
 406 1082 406 1082 385 940 c 1,42,-1
 774 940 l 2,43,44
 814 940 814 940 814 900 c 2,45,-1
 814 860 l 2,46,47
 814 820 814 820 774 820 c 2,48,-1
 374 820 l 1,49,50
 372 786 372 786 372 750 c 0,51,52
 372 719 372 719 373 690 c 1,53,-1
 774 690 l 2,54,55
 814 690 814 690 814 650 c 2,56,-1
 814 610 l 2,57,58
 814 570 814 570 774 570 c 2,59,-1
 384 570 l 1,60,61
 404 422 404 422 460 311 c 1,62,63
 558 140 558 140 728 140 c 0,64,65
 862 140 862 140 972 312 c 0,66,67
 984 331 984 331 998 331 c 0,68,69
 1010 331 1010 331 1025 320 c 2,70,-1
 1102 263 l 2,71,72
 1120 249 1120 249 1120 234 c 0,73,74
 1120 225 1120 225 1109 206 c 0,75,0
 976 -20 976 -20 717.5 -20 c 128,-1,1
EndSplineSet
Validated: 1
EndChar

StartChar: afii61248
Encoding: 8453 8453 103
Width: 1200
GlyphClass: 2
Flags: W
HStem: -20 120<805.323 976.848> 650 120<806.549 976.746> 730 120<223.602 398.263> 1400 120<224.053 399.594>
VStem: 30 132<917.707 1332.7> 612 131<171.467 578.533> 1041 129<174.739 575.214>
DStem2: 954 1522 1088 1445 0.499465 0.866334<-1711.56 28.9864>
LayerCount: 2
Fore
SplineSet
891 100 m 16,0,1
 956 100 956 100 995 172 c 0,2,3
 1041 253 1041 253 1041 373 c 0,4,5
 1041 494 1041 494 995 578 c 0,6,7
 956 650 956 650 891 650 c 128,-1,8
 826 650 826 650 787 578 c 0,9,10
 743 499 743 499 743 376 c 0,11,12
 743 249 743 249 787 172 c 0,13,14
 827 100 827 100 891 100 c 16,0,1
891 -20 m 128,-1,16
 762 -20 762 -20 685 99 c 0,17,18
 612 213 612 213 612 375 c 128,-1,19
 612 537 612 537 685 651 c 0,20,21
 761 770 761 770 890.5 770 c 128,-1,22
 1020 770 1020 770 1097 651 c 0,23,24
 1170 537 1170 537 1170 375 c 128,-1,25
 1170 213 1170 213 1097 99 c 0,26,15
 1020 -20 1020 -20 891 -20 c 128,-1,16
314 730 m 0,27,28
 171 730 171 730 99 850 c 0,29,30
 30 964 30 964 30 1125 c 0,31,32
 30 1288 30 1288 99 1400 c 0,33,34
 173 1520 173 1520 314 1520 c 0,35,36
 448 1520 448 1520 527 1397 c 0,37,38
 536 1383 536 1383 536 1373 c 0,39,40
 535 1356 535 1356 517 1342 c 2,41,-1
 479 1313 l 2,42,43
 469 1305 469 1305 454 1305 c 0,44,45
 437 1305 437 1305 425 1323 c 0,46,47
 375 1400 375 1400 318 1400 c 16,48,49
 244 1400 244 1400 204 1328 c 0,50,51
 162 1254 162 1254 162 1127 c 0,52,53
 162 996 162 996 204 922 c 0,54,55
 244 850 244 850 318 850 c 8,56,57
 374 850 374 850 425 927 c 0,58,59
 437 945 437 945 454 945 c 0,60,61
 467 945 467 945 479 936 c 2,62,-1
 518 907 l 2,63,64
 536 894 536 894 536 877 c 0,65,66
 536 867 536 867 527 853 c 0,67,68
 451 730 451 730 314 730 c 0,27,28
208 -40 m 0,69,70
 196 -40 196 -40 180 -31 c 2,71,-1
 132 -3 l 2,72,73
 104 13 104 13 104 36 c 0,74,75
 104 49 104 49 114 65 c 2,76,-1
 954 1522 l 2,77,78
 970 1550 970 1550 992 1550 c 0,79,80
 1006 1550 1006 1550 1022 1541 c 2,81,-1
 1070 1513 l 2,82,83
 1096 1497 1096 1497 1096 1474 c 0,84,85
 1096 1461 1096 1461 1088 1445 c 2,86,-1
 248 -12 l 2,87,88
 232 -40 232 -40 208 -40 c 0,69,70
EndSplineSet
Validated: 1
EndChar

StartChar: afii61289
Encoding: 8467 8467 104
Width: 1200
GlyphClass: 2
Flags: W
HStem: -20 136<558.002 669.961> 0 21G<150 363> 1500 20G<727 794>
VStem: 332 155<466 794.977> 755 153<1042.58 1356.69>
LayerCount: 2
Fore
SplineSet
487 466 m 1,0,1
 598 708 598 708 654 860 c 0,2,3
 755 1134 755 1134 755 1359 c 1,4,5
 687 1266 687 1266 594 1004 c 0,6,7
 487 704 487 704 487 466 c 1,0,1
150 0 m 1,8,9
 261 144 261 144 342 292 c 1,10,11
 332 362 332 362 332 443 c 0,12,13
 332 590 332 590 361 732 c 0,14,15
 469 1246 469 1246 617 1434 c 0,16,17
 685 1520 685 1520 769 1520 c 0,18,19
 819 1520 819 1520 859 1488 c 0,20,21
 908 1449 908 1449 908 1318 c 0,22,23
 908 1226 908 1226 878 1072 c 0,24,25
 808 722 808 722 522 271 c 1,26,27
 554 116 554 116 611 116 c 0,28,29
 630 116 630 116 653 140 c 0,30,31
 684 172 684 172 716 228 c 1,32,-1
 892 228 l 1,33,34
 815 100 815 100 750.5 40 c 128,-1,35
 686 -20 686 -20 602 -20 c 0,36,37
 482 -20 482 -20 405 90 c 1,38,-1
 351 0 l 1,39,-1
 150 0 l 1,8,9
EndSplineSet
Validated: 1
EndChar

StartChar: trademark
Encoding: 8482 8482 105
Width: 1200
GlyphClass: 2
Flags: W
HStem: 974 174<723 957> 1390 120<45.3762 225 355 534.624>
VStem: 225 130<730.378 1390> 580 125<750.378 1215> 975 125<750.378 1218>
LayerCount: 2
Fore
SplineSet
623 740 m 2,0,1
 607 740 607 740 595 750 c 0,2,3
 580 762 580 762 580 785 c 2,4,-1
 580 1465 l 2,5,6
 580 1488 580 1488 595 1500 c 0,7,8
 608 1510 608 1510 625 1510 c 2,9,-1
 706 1510 l 2,10,11
 724 1510 724 1510 737 1495 c 0,12,13
 745 1485 745 1485 749 1471 c 2,14,-1
 840 1148 l 1,15,-1
 931 1471 l 2,16,17
 935 1485 935 1485 943 1495 c 0,18,19
 956 1510 956 1510 975 1510 c 2,20,-1
 1055 1510 l 2,21,22
 1073 1510 1073 1510 1085 1500 c 0,23,24
 1100 1488 1100 1488 1100 1465 c 2,25,-1
 1100 785 l 2,26,27
 1100 762 1100 762 1085 750 c 0,28,29
 1074 741 1074 741 1056 740 c 2,30,-1
 1019 740 l 2,31,32
 1002 740 1002 740 990 750 c 0,33,34
 975 762 975 762 975 785 c 2,35,-1
 975 1218 l 1,36,-1
 913 1012 l 2,37,38
 909 997 909 997 902 989 c 0,39,40
 889 974 889 974 870 974 c 2,41,-1
 810 974 l 2,42,43
 791 974 791 974 778 987 c 0,44,45
 768 997 768 997 765 1011 c 2,46,-1
 705 1215 l 1,47,-1
 705 785 l 2,48,49
 705 762 705 762 690 750 c 0,50,51
 678 740 678 740 661 740 c 2,52,-1
 623 740 l 2,0,1
269 720 m 2,53,54
 252 720 252 720 240 730 c 0,55,56
 225 742 225 742 225 765 c 2,57,-1
 225 1390 l 1,58,-1
 74 1390 l 2,59,60
 57 1390 57 1390 45 1400 c 0,61,62
 30 1412 30 1412 30 1435 c 2,63,-1
 30 1465 l 2,64,65
 30 1488 30 1488 45 1500 c 0,66,67
 57 1510 57 1510 74 1510 c 2,68,-1
 506 1510 l 2,69,70
 523 1510 523 1510 535 1500 c 0,71,72
 550 1488 550 1488 550 1465 c 2,73,-1
 550 1435 l 2,74,75
 550 1412 550 1412 535 1400 c 0,76,77
 523 1390 523 1390 506 1390 c 2,78,-1
 355 1390 l 1,79,-1
 355 765 l 2,80,81
 355 742 355 742 340 730 c 0,82,83
 328 720 328 720 311 720 c 2,84,-1
 269 720 l 2,53,54
EndSplineSet
Validated: 1
EndChar

StartChar: uni2126
Encoding: 8486 8486 106
Width: 1200
GlyphClass: 2
Flags: W
HStem: 0 160<97.1099 254 435.012 550.045 649.955 764.988 946 1102.89> 1360 160<462 738>
VStem: 82 179<436.938 1060.11> 939 179<436.938 1060.11>
LayerCount: 2
Fore
SplineSet
147 0 m 2,0,1
 97 0 97 0 97 49 c 2,2,-1
 97 111 l 2,3,4
 97 160 97 160 147 160 c 2,5,-1
 254 160 l 1,6,7
 238 183 238 183 222 206 c 0,8,9
 82 423 82 423 82 731 c 0,10,11
 82 1070 82 1070 222 1294 c 0,12,13
 363 1520 363 1520 600 1520 c 128,-1,14
 837 1520 837 1520 978 1294 c 0,15,16
 1118 1070 1118 1070 1118 731 c 0,17,18
 1118 423 1118 423 978 206 c 0,19,20
 962 183 962 183 946 160 c 1,21,-1
 1053 160 l 2,22,23
 1103 160 1103 160 1103 111 c 2,24,-1
 1103 49 l 2,25,26
 1103 0 1103 0 1053 0 c 2,27,-1
 696 0 l 2,28,29
 646 0 646 0 646 49 c 2,30,-1
 646 90 l 2,31,32
 646 141 646 141 696 160 c 24,33,34
 779 192 779 192 843 311 c 0,35,36
 938 488 938 488 939 750 c 0,37,38
 939 1007 939 1007 843 1189 c 0,39,40
 753 1360 753 1360 600 1360 c 128,-1,41
 447 1360 447 1360 357 1189 c 0,42,43
 261 1007 261 1007 261 750 c 0,44,45
 262 488 262 488 357 311 c 0,46,47
 421 192 421 192 504 160 c 24,48,49
 554 141 554 141 554 90 c 2,50,-1
 554 49 l 2,51,52
 554 0 554 0 504 0 c 2,53,-1
 147 0 l 2,0,1
EndSplineSet
Validated: 1
EndChar

StartChar: estimated
Encoding: 8494 8494 107
Width: 1200
GlyphClass: 2
Flags: W
HStem: -20 85<426.595 770.12> 529 80<283 918> 1044 84<428.068 771.544>
VStem: 35 248<334.409 529 609 776.785> 918 247<609 775.294>
LayerCount: 2
Fore
SplineSet
1087 269 m 1,0,-1
 1061 230 l 1,1,2
 989 124 989 124 883 61 c 0,3,4
 747 -20 747 -20 600 -20 c 0,5,6
 455 -20 455 -20 319 56 c 0,7,8
 183 133 183 133 109 270 c 0,9,10
 35 406 35 406 35 554 c 0,11,12
 35 706 35 706 110 841 c 1,13,14
 186 980 186 980 321 1054 c 128,-1,15
 456 1128 456 1128 601 1128 c 0,16,17
 743 1128 743 1128 878 1054 c 128,-1,18
 1013 980 1013 980 1089 841 c 128,-1,19
 1165 702 1165 702 1165 553 c 2,20,-1
 1165 529 l 1,21,-1
 283 529 l 1,22,-1
 283 220 l 1,23,24
 326 167 326 167 388 129 c 0,25,26
 490 65 490 65 601 65 c 128,-1,27
 712 65 712 65 815 132 c 0,28,29
 887 180 887 180 940 258 c 1,30,-1
 948 269 l 1,31,-1
 1087 269 l 1,0,-1
283 890 m 1,32,-1
 283 609 l 1,33,-1
 918 609 l 1,34,-1
 918 889 l 1,35,36
 873 944 873 944 811 981 c 0,37,38
 706 1044 706 1044 601 1044 c 0,39,40
 493 1044 493 1044 389 982 c 0,41,42
 329 947 329 947 283 890 c 1,32,-1
EndSplineSet
Validated: 1
EndChar

StartChar: partialdiff
Encoding: 8706 8706 108
Width: 1200
GlyphClass: 2
Flags: W
HStem: -20 153<349.379 613.581> 870 140<497.102 774.163> 1325 152<442 780.231>
VStem: 100 188<198.966 602.91> 903 182<873.869 1171.56>
LayerCount: 2
Fore
SplineSet
370 1415 m 1,0,1
 504 1477 504 1477 653 1477 c 0,2,3
 1085 1477 1085 1477 1085 934 c 0,4,5
 1085 545 1085 545 916.5 262.5 c 128,-1,6
 748 -20 748 -20 462 -20 c 0,7,8
 100 -20 100 -20 100 375 c 0,9,10
 100 624 100 624 238 817 c 128,-1,11
 376 1010 376 1010 620 1010 c 0,12,13
 804 1010 804 1010 903 862 c 1,14,15
 903 1103 903 1103 848 1204 c 0,16,17
 782 1325 782 1325 628 1325 c 0,18,19
 497 1325 497 1325 370 1241 c 1,20,-1
 370 1415 l 1,0,1
870 680 m 1,21,22
 848 765 848 765 784.5 817.5 c 128,-1,23
 721 870 721 870 645 870 c 0,24,25
 485 870 485 870 386.5 710 c 128,-1,26
 288 550 288 550 288 369 c 0,27,28
 288 133 288 133 475 133 c 0,29,30
 613 133 613 133 722.5 286 c 128,-1,31
 832 439 832 439 870 680 c 1,21,22
EndSplineSet
Validated: 1
EndChar

StartChar: uni2206
Encoding: 8710 8710 109
Width: 1200
GlyphClass: 2
Flags: W
HStem: 0 160<267 923> 1322 178<423 777>
DStem2: 54 47 267 160 0.276511 0.961011<167.491 1374.88> 738 1465 595 1322 0.276511 -0.961011<97.8835 1305.27>
LayerCount: 2
Fore
SplineSet
87 0 m 2,0,1
 50 0 50 0 50 26 c 0,2,3
 50 33 50 33 54 47 c 2,4,-1
 462 1465 l 2,5,6
 472 1500 472 1500 512 1500 c 2,7,-1
 688 1500 l 2,8,9
 728 1500 728 1500 738 1465 c 2,10,-1
 1146 47 l 2,11,12
 1150 33 1150 33 1150 26 c 0,13,14
 1150 0 1150 0 1113 0 c 2,15,-1
 87 0 l 2,0,1
923 160 m 1,16,-1
 595 1322 l 1,17,-1
 267 160 l 1,18,-1
 923 160 l 1,16,-1
EndSplineSet
Validated: 1
EndChar

StartChar: product
Encoding: 8719 8719 110
Width: 1200
GlyphClass: 2
Flags: W
HStem: -400 21G<175 305 895 1025> 1340 160<330 870>
VStem: 150 180<-399.809 1340> 870 180<-399.809 1340>
LayerCount: 2
Fore
SplineSet
200 -400 m 2,0,1
 150 -400 150 -400 150 -351 c 2,2,-1
 150 1451 l 2,3,4
 150 1500 150 1500 200 1500 c 2,5,-1
 1000 1500 l 2,6,7
 1050 1500 1050 1500 1050 1451 c 2,8,-1
 1050 -351 l 2,9,10
 1050 -400 1050 -400 1000 -400 c 2,11,-1
 920 -400 l 2,12,13
 870 -400 870 -400 870 -351 c 2,14,-1
 870 1340 l 1,15,-1
 330 1340 l 1,16,-1
 330 -351 l 2,17,18
 330 -400 330 -400 280 -400 c 2,19,-1
 200 -400 l 2,0,1
EndSplineSet
Validated: 1
EndChar

StartChar: summation
Encoding: 8721 8721 111
Width: 1160
GlyphClass: 2
Flags: W
HStem: -400 160<403 1039> 1340 160<399 1014>
DStem2: 399 1340 125 1466 0.47278 -0.881181<0 753.55> 149 -365 403 -240 0.423145 0.906062<220.737 1054.01>
LayerCount: 2
Fore
SplineSet
172 -400 m 2,0,1
 159 -400 159 -400 152 -395.5 c 128,-1,2
 145 -391 145 -391 145 -380 c 0,3,4
 145 -374 145 -374 149 -365 c 2,5,-1
 595 590 l 1,6,-1
 125 1466 l 2,7,8
 121 1473 121 1473 121 1482 c 128,-1,9
 121 1491 121 1491 128 1495.5 c 128,-1,10
 135 1500 135 1500 148 1500 c 2,11,-1
 974 1500 l 2,12,13
 1014 1500 1014 1500 1014 1461 c 2,14,-1
 1014 1379 l 2,15,16
 1014 1340 1014 1340 974 1340 c 2,17,-1
 399 1340 l 1,18,-1
 774 631 l 2,19,20
 783 614 783 614 783 594 c 0,21,22
 783 573 783 573 776 558 c 2,23,-1
 403 -240 l 1,24,-1
 999 -240 l 2,25,26
 1039 -240 1039 -240 1039 -279 c 2,27,-1
 1039 -361 l 2,28,29
 1039 -400 1039 -400 999 -400 c 2,30,-1
 172 -400 l 2,0,1
EndSplineSet
Validated: 1
EndChar

StartChar: minus
Encoding: 8722 8722 112
Width: 1200
GlyphClass: 2
Flags: W
HStem: 680 150<184.195 1015.8>
LayerCount: 2
Fore
SplineSet
234 830 m 2,0,-1
 966 830 l 2,1,2
 1016 830 1016 830 1016 780 c 2,3,4
 1016 730 l 2,5,6
 1016 680 1016 680 966 680 c 2,7,-1
 234 680 l 2,8,9
 184 680 184 680 184 730 c 2,10,-1
 184 780 l 2,11,12
 184 830 184 830 234 830 c 2,0,-1
EndSplineSet
Validated: 1
EndChar

StartChar: uni2215
Encoding: 8725 8725 113
Width: 1200
GlyphClass: 2
Flags: W
DStem2: 954 1522 1088 1445 0.499465 0.866334<-1711.56 28.9864>
LayerCount: 2
Fore
SplineSet
208 -40 m 0,0,1
 196 -40 196 -40 180 -31 c 2,2,-1
 132 -3 l 2,3,4
 104 13 104 13 104 36 c 0,5,6
 104 49 104 49 114 65 c 2,7,-1
 954 1522 l 2,8,9
 970 1550 970 1550 992 1550 c 0,10,11
 1006 1550 1006 1550 1022 1541 c 2,12,-1
 1070 1513 l 2,13,14
 1096 1497 1096 1497 1096 1474 c 0,15,16
 1096 1461 1096 1461 1088 1445 c 2,17,-1
 248 -12 l 2,18,19
 232 -40 232 -40 208 -40 c 0,0,1
EndSplineSet
Validated: 1
EndChar

StartChar: uni2219
Encoding: 8729 8729 114
Width: 1200
GlyphClass: 2
Flags: W
HStem: 616 264<507.253 692.777>
VStem: 466 268<655.223 841.323>
LayerCount: 2
Fore
SplineSet
600 880 m 0,0,1
 659 880 659 880 694 844 c 0,2,3
 734 803 734 803 734 748 c 128,-1,4
 734 693 734 693 694 654 c 0,5,6
 655 616 655 616 600 616 c 0,7,8
 543 616 543 616 506 652 c 0,9,10
 466 691 466 691 466 748 c 128,-1,11
 466 805 466 805 506 842.5 c 128,-1,12
 546 880 546 880 600 880 c 0,0,1
EndSplineSet
Validated: 1
EndChar

StartChar: radical
Encoding: 8730 8730 115
Width: 1200
GlyphClass: 2
Flags: W
HStem: 0 21G<392.5 640> 620 160<70.1099 213> 1340 160<975 1178.89>
DStem2: 351 746 213 620 0.254795 -0.966995<86.6796 651.503> 517 116 669 35 0.23201 0.972713<0 1296.86>
LayerCount: 2
Fore
SplineSet
413 0 m 2,0,1
 372 0 372 0 363 35 c 2,2,-1
 213 620 l 1,3,-1
 120 620 l 2,4,5
 70 620 70 620 70 669 c 2,6,-1
 70 731 l 2,7,8
 70 780 70 780 120 780 c 2,9,-1
 302 780 l 2,10,11
 342 780 342 780 351 746 c 2,12,-1
 517 116 l 1,13,-1
 839 1466 l 2,14,15
 847 1500 847 1500 889 1500 c 2,16,-1
 1129 1500 l 2,17,18
 1179 1500 1179 1500 1179 1451 c 2,19,-1
 1179 1389 l 2,20,21
 1179 1340 1179 1340 1129 1340 c 2,22,-1
 975 1340 l 1,23,-1
 669 35 l 2,24,25
 661 0 661 0 619 0 c 2,26,-1
 413 0 l 2,0,1
EndSplineSet
Validated: 1
EndChar

StartChar: infinity
Encoding: 8734 8734 116
Width: 1200
GlyphClass: 2
Flags: W
HStem: 462 121<257.079 481.942 719.079 942.233> 926 122<256.367 482.074 718.308 944.074>
VStem: 71 133<636.097 874.137> 533 134<635.506 874.525> 996 133<636.128 873.903>
CounterMasks: 1 38
LayerCount: 2
Fore
SplineSet
369 583 m 0,0,1
 440 584 440 584 488 634 c 0,2,3
 533 682 533 682 533 755 c 0,4,5
 533 830 533 830 488 876 c 0,6,7
 438 926 438 926 369 926 c 0,8,9
 299 926 299 926 250 876 c 0,10,11
 204 829 204 829 204 755 c 0,12,13
 204 680 204 680 250 634 c 0,14,15
 300 584 300 584 369 583 c 0,0,1
369 1048 m 0,16,17
 498 1048 498 1048 578 970 c 0,18,19
 590 958 590 958 600 946 c 1,20,21
 610 959 610 959 622 970 c 0,22,23
 704 1048 704 1048 831 1048 c 0,24,25
 960 1048 960 1048 1040 970 c 0,26,27
 1129 884 1129 884 1129 755 c 128,-1,28
 1129 626 1129 626 1040 540 c 0,29,30
 959 462 959 462 831 462 c 0,31,32
 700 462 700 462 622 540 c 0,33,34
 610 552 610 552 600 564 c 1,35,36
 590 551 590 551 578 540 c 0,37,38
 497 462 497 462 369 462 c 0,39,40
 238 462 238 462 160 540 c 0,41,42
 71 626 71 626 71 755 c 0,43,44
 71 885 71 885 160 970 c 0,45,46
 242 1048 242 1048 369 1048 c 0,16,17
831 583 m 0,47,48
 901 584 901 584 950 634 c 0,49,50
 996 682 996 682 996 755 c 0,51,52
 996 830 996 830 950 876 c 0,53,54
 900 926 900 926 831 926 c 0,55,56
 760 926 760 926 712 876 c 0,57,58
 667 829 667 829 667 755 c 0,59,60
 667 679 667 679 712 634 c 0,61,62
 762 584 762 584 831 583 c 0,47,48
EndSplineSet
Validated: 1
EndChar

StartChar: approxequal
Encoding: 8776 8776 117
Width: 1200
GlyphClass: 2
Flags: W
HStem: 376 147<688.955 843.153> 590 147<356.847 511.045> 776 147<688.955 843.153> 990 147<356.847 511.045> 1096 20G<887 989>
VStem: 186 152<397.195 573.875 797.195 973.875> 862 152<539.125 715.805 939.125 1115.8>
LayerCount: 2
Fore
SplineSet
417 737 m 0,0,1
 554 737 554 737 652 610 c 0,2,3
 719 523 719 523 769 523 c 0,4,5
 862 523 862 523 862 666 c 8,6,7
 862 716 862 716 912 716 c 2,8,-1
 964 716 l 2,9,10
 1014 716 1014 716 1014 666 c 0,11,12
 1014 376 1014 376 783 376 c 0,13,14
 646 376 646 376 548 503 c 0,15,16
 481 590 481 590 431 590 c 0,17,18
 338 590 338 590 338 447 c 8,19,20
 338 397 338 397 288 397 c 2,21,-1
 236 397 l 2,22,23
 186 397 186 397 186 447 c 0,24,25
 186 737 186 737 417 737 c 0,0,1
417 1137 m 0,26,27
 554 1137 554 1137 652 1010 c 0,28,29
 719 923 719 923 769 923 c 0,30,31
 862 923 862 923 862 1066 c 8,32,33
 862 1116 862 1116 912 1116 c 2,34,-1
 964 1116 l 2,35,36
 1014 1116 1014 1116 1014 1066 c 0,37,38
 1014 776 1014 776 783 776 c 0,39,40
 646 776 646 776 548 903 c 0,41,42
 481 990 481 990 431 990 c 0,43,44
 338 990 338 990 338 847 c 8,45,46
 338 797 338 797 288 797 c 2,47,-1
 236 797 l 2,48,49
 186 797 186 797 186 847 c 0,50,51
 186 1137 186 1137 417 1137 c 0,26,27
EndSplineSet
Validated: 1
EndChar

StartChar: notequal
Encoding: 8800 8800 118
Width: 1200
GlyphClass: 2
Flags: W
HStem: 490 150<184.195 390 594 1015.8> 870 150<184.195 610 814 1015.8>
DStem2: 248 242 334 192 0.500143 0.865943<-23.619 285.774 517.695 724.864 956.784 1258.98>
LayerCount: 2
Fore
SplineSet
896 1334 m 0,0,1
 906 1334 906 1334 920 1327 c 2,2,-1
 938 1316 l 2,3,4
 960 1303 960 1303 960 1285 c 0,5,6
 960 1274 960 1274 952 1262 c 2,7,-1
 814 1020 l 1,8,-1
 966 1020 l 2,9,10
 1016 1020 1016 1020 1016 970 c 2,11,-1
 1016 920 l 2,12,13
 1016 870 1016 870 966 870 c 2,14,-1
 726 870 l 1,15,-1
 594 640 l 1,16,-1
 966 640 l 2,17,18
 1016 640 1016 640 1016 590 c 2,19,-1
 1016 540 l 2,20,21
 1016 490 1016 490 966 490 c 2,22,-1
 506 490 l 1,23,-1
 334 192 l 2,24,25
 322 170 322 170 304 170 c 0,26,27
 294 170 294 170 280 177 c 2,28,-1
 262 188 l 2,29,30
 240 201 240 201 240 219 c 0,31,32
 240 230 240 230 248 242 c 2,33,-1
 390 490 l 1,34,-1
 234 490 l 2,35,36
 184 490 184 490 184 540 c 2,37,-1
 184 590 l 2,38,39
 184 640 184 640 234 640 c 2,40,-1
 476 640 l 1,41,-1
 610 870 l 1,42,-1
 234 870 l 2,43,44
 184 870 184 870 184 920 c 2,45,-1
 184 970 l 2,46,47
 184 1020 184 1020 234 1020 c 2,48,-1
 696 1020 l 1,49,-1
 866 1312 l 2,50,51
 878 1334 878 1334 896 1334 c 0,0,1
EndSplineSet
Validated: 1
EndChar

StartChar: lessequal
Encoding: 8804 8804 119
Width: 1200
GlyphClass: 2
Flags: W
HStem: 190 150<184.195 1015.8>
DStem2: 234 969 374 883 0.877675 0.479257<81.6584 723.052> 374 883 234 788 0.877675 -0.479257<0 645.706>
LayerCount: 2
Fore
SplineSet
872 1310 m 0,0,1
 894 1310 894 1310 910 1283 c 2,2,-1
 938 1236 l 2,3,4
 948 1219 948 1219 948 1206 c 0,5,6
 948 1183 948 1183 920 1168 c 2,7,-1
 374 883 l 1,8,-1
 922 594 l 2,9,10
 950 579 950 579 950 556 c 0,11,12
 950 544 950 544 940 526 c 2,13,-1
 910 474 l 2,14,15
 896 447 896 447 872 447 c 0,16,17
 860 447 860 447 842 456 c 2,18,-1
 234 788 l 2,19,20
 184 815 184 815 184 858 c 2,21,-1
 184 899 l 2,22,23
 184 942 184 942 234 969 c 2,24,-1
 842 1301 l 2,25,26
 860 1310 860 1310 872 1310 c 0,0,1
234 340 m 2,27,-1
 966 340 l 2,28,29
 1016 340 1016 340 1016 290 c 2,30,-1
 1016 240 l 2,31,32
 1016 190 1016 190 966 190 c 2,33,-1
 234 190 l 2,34,35
 184 190 184 190 184 240 c 2,36,-1
 184 290 l 2,37,38
 184 340 184 340 234 340 c 2,27,-1
EndSplineSet
Validated: 1
EndChar

StartChar: greaterequal
Encoding: 8805 8805 120
Width: 1200
GlyphClass: 2
Flags: W
HStem: 190 150<184.195 1015.8>
DStem2: 966 1004 826 909 0.877675 -0.479257<-723.052 -77.3451> 826 909 966 823 0.877675 0.479257<-641.393 0>
LayerCount: 2
Fore
SplineSet
328 482 m 0,0,1
 306 482 306 482 290 509 c 2,2,-1
 262 556 l 2,3,4
 252 573 252 573 252 586 c 0,5,6
 252 609 252 609 280 624 c 2,7,-1
 826 909 l 1,8,-1
 278 1198 l 2,9,10
 250 1213 250 1213 250 1236 c 0,11,12
 250 1248 250 1248 260 1266 c 2,13,-1
 290 1318 l 2,14,15
 304 1345 304 1345 328 1345 c 0,16,17
 340 1345 340 1345 358 1336 c 2,18,-1
 966 1004 l 2,19,20
 1016 977 1016 977 1016 934 c 2,21,-1
 1016 893 l 2,22,23
 1016 850 1016 850 966 823 c 2,24,-1
 358 491 l 2,25,26
 340 482 340 482 328 482 c 0,0,1
234 340 m 2,27,-1
 966 340 l 2,28,29
 1016 340 1016 340 1016 290 c 2,30,-1
 1016 240 l 2,31,32
 1016 190 1016 190 966 190 c 2,33,-1
 234 190 l 2,34,35
 184 190 184 190 184 240 c 2,36,-1
 184 290 l 2,37,38
 184 340 184 340 234 340 c 2,27,-1
EndSplineSet
Validated: 1
EndChar

StartChar: lozenge
Encoding: 9674 9674 121
Width: 1200
GlyphClass: 2
Flags: W
HStem: -20 21G<587.678 612.273> 1500 20G<588.056 611.99>
DStem2: 133 738 321 775 0.512719 0.858557<128.158 619.841> 321 775 133 738 0.524536 -0.851388<0 582.074> 600 1520 575 1196 0.514172 -0.857687<265.036 844.357> 624 278 600 -20 0.523035 0.852311<0 492.332>
LayerCount: 2
Fore
SplineSet
624 278 m 1,0,-1
 876 701 l 1,1,-1
 575 1196 l 1,2,-1
 321 775 l 1,3,-1
 624 278 l 1,0,-1
600 -20 m 1,4,-1
 133 738 l 1,5,-1
 600 1520 l 1,6,-1
 1067 741 l 1,7,-1
 600 -20 l 1,4,-1
EndSplineSet
Validated: 1
EndChar

StartChar: circumflex
Encoding: 710 710 122
Width: 1200
Flags: W
HStem: 1367 94<518 682>
VStem: 350 500<1180 1214>
DStem2: 360 1228 500 1220 0.590642 0.806934<-6.00755 253.521> 840 1228 600 1367 0.590642 -0.806934<-253.521 10.4097>
LayerCount: 2
Fore
SplineSet
565 1461 m 2,0,-1
 635 1461 l 2,1,2
 669 1461 669 1461 698 1422 c 2,3,-1
 840 1228 l 2,4,5
 850 1214 850 1214 850 1200 c 0,6,7
 850 1180 850 1180 826 1180 c 2,8,-1
 773 1180 l 2,9,10
 727 1180 727 1180 700 1220 c 2,11,-1
 600 1367 l 1,12,-1
 500 1220 l 2,13,14
 473 1180 473 1180 427 1180 c 2,15,-1
 374 1180 l 2,16,17
 350 1180 350 1180 350 1200 c 0,18,19
 350 1214 350 1214 360 1228 c 2,20,-1
 502 1422 l 2,21,22
 531 1461 531 1461 565 1461 c 2,0,-1
EndSplineSet
Validated: 1
EndChar

StartChar: caron
Encoding: 711 711 123
Width: 1200
Flags: W
HStem: 1180 94<518 682>
VStem: 350 500<1427 1461>
DStem2: 600 1274 360 1413 0.590642 -0.806934<-264.328 -0.397041> 600 1274 698 1219 0.590642 0.806934<0.397041 264.328>
LayerCount: 2
Fore
SplineSet
427 1461 m 2,0,1
 473 1461 473 1461 500 1421 c 2,2,-1
 600 1274 l 1,3,-1
 700 1421 l 2,4,5
 727 1461 727 1461 773 1461 c 2,6,-1
 826 1461 l 2,7,8
 850 1461 850 1461 850 1441 c 0,9,10
 850 1427 850 1427 840 1413 c 2,11,-1
 698 1219 l 2,12,13
 669 1180 669 1180 635 1180 c 2,14,-1
 565 1180 l 2,15,16
 531 1180 531 1180 502 1219 c 2,17,-1
 360 1413 l 2,18,19
 350 1427 350 1427 350 1441 c 0,20,21
 350 1461 350 1461 374 1461 c 2,22,-1
 427 1461 l 2,0,1
EndSplineSet
Validated: 1
EndChar

StartChar: uni02C9
Encoding: 713 713 124
Width: 1200
Flags: W
HStem: 1246 130<350 850>
VStem: 350 500<1246 1376>
LayerCount: 2
Fore
SplineSet
390 1376 m 2,0,-1
 810 1376 l 2,1,2
 850 1376 850 1376 850 1336 c 2,3,4
 850 1286 l 2,5,6
 850 1246 850 1246 810 1246 c 2,7,-1
 390 1246 l 2,8,9
 350 1246 350 1246 350 1286 c 2,10,-1
 350 1336 l 2,11,12
 350 1376 350 1376 390 1376 c 2,0,-1
EndSplineSet
Validated: 1
EndChar

StartChar: breve
Encoding: 728 728 125
Width: 1200
Flags: W
HStem: 1190 125<494.481 705.519>
VStem: 350 128<1332.88 1455> 722 128<1332.88 1455>
LayerCount: 2
Fore
SplineSet
390 1455 m 2,0,1
 438 1455 l 2,2,3
 478 1455 478 1455 478 1415 c 0,4,5
 478 1315 478 1315 600 1315 c 128,-1,6
 722 1315 722 1315 722 1415 c 0,7,8
 722 1455 722 1455 762 1455 c 2,9,-1
 810 1455 l 2,10,11
 850 1455 850 1455 850 1415 c 0,12,13
 850 1190 850 1190 600 1190 c 128,-1,14
 350 1190 350 1190 350 1415 c 0,15,16
 350 1455 350 1455 390 1455 c 2,0,1
EndSplineSet
Validated: 1
EndChar

StartChar: dotaccent
Encoding: 729 729 126
Width: 1200
Flags: W
HStem: 1220 245<516.097 683.903>
VStem: 480 240<1257.13 1427.87>
LayerCount: 2
Fore
SplineSet
600 1465 m 128,-1,1
 650 1465 650 1465 685 1429 c 128,-1,2
 720 1393 720 1393 720 1342.5 c 128,-1,3
 720 1292 720 1292 685 1256 c 128,-1,4
 650 1220 650 1220 600 1220 c 128,-1,5
 550 1220 550 1220 515 1256 c 128,-1,6
 480 1292 480 1292 480 1342.5 c 128,-1,7
 480 1393 480 1393 515 1429 c 128,-1,0
 550 1465 550 1465 600 1465 c 128,-1,1
EndSplineSet
Validated: 1
EndChar

StartChar: ring
Encoding: 730 730 127
Width: 1200
Flags: W
HStem: 1160 98<534.776 672.24> 1426 98<535.247 672.469>
VStem: 420 97<1276.75 1408.1> 683 97<1268.01 1415.38>
LayerCount: 2
Fore
SplineSet
601 1426 m 0,0,1
 566 1425 566 1425 542 1401 c 0,2,3
 517 1376 517 1376 517 1342 c 128,-1,4
 517 1308 517 1308 541 1284 c 128,-1,5
 565 1260 565 1260 600 1258 c 256,6,7
 636 1258 636 1258 658 1283 c 0,8,9
 682 1309 682 1309 683 1342 c 0,10,11
 682 1379 682 1379 658 1401 c 0,12,13
 632 1425 632 1425 601 1426 c 0,0,1
602 1524 m 0,14,15
 675 1524 675 1524 727 1471 c 0,16,17
 780 1416 780 1416 780 1343 c 0,18,19
 780 1267 780 1267 727 1214 c 0,20,21
 673 1160 673 1160 600 1160 c 256,22,23
 527 1160 527 1160 473 1214 c 0,24,25
 420 1267 420 1267 420 1343 c 0,26,27
 420 1417 420 1417 473 1471 c 0,28,29
 526 1524 526 1524 602 1524 c 0,14,15
EndSplineSet
Validated: 1
EndChar

StartChar: ogonek
Encoding: 731 731 128
Width: 1200
Flags: W
HStem: -420 162<602.04 751.805> -20 20G<500 620>
VStem: 448 120<-231.84 -66.2817>
LayerCount: 2
Fore
SplineSet
552 0 m 1,0,-1
 620 0 l 1,1,2
 568 -81 568 -81 568 -142 c 0,3,4
 568 -199 568 -199 601 -228.5 c 128,-1,5
 634 -258 634 -258 702 -258 c 0,6,7
 752 -258 752 -258 752 -308 c 2,8,-1
 752 -370 l 2,9,10
 752 -420 752 -420 702 -420 c 0,11,12
 578 -420 578 -420 510 -354 c 0,13,14
 448 -294 448 -294 448 -207 c 0,15,16
 448 -91 448 -91 552 0 c 1,0,-1
EndSplineSet
Validated: 1
EndChar

StartChar: tilde
Encoding: 732 732 129
Width: 1200
Flags: W
HStem: 1220 125<642.161 718.877> 1338 125<481.123 557.839>
VStem: 350 128<1228 1334.27> 722 128<1348.73 1455>
LayerCount: 2
Fore
SplineSet
762 1455 m 2,0,1
 810 1455 l 2,2,3
 850 1455 850 1455 850 1415 c 24,4,5
 850 1220 850 1220 688 1220 c 0,6,7
 617 1220 617 1220 554 1299 c 0,8,9
 523 1338 523 1338 507 1338 c 0,10,11
 478 1338 478 1338 478 1268 c 24,12,13
 478 1228 478 1228 438 1228 c 2,14,-1
 390 1228 l 2,15,16
 350 1228 350 1228 350 1268 c 24,17,18
 350 1463 350 1463 512 1463 c 8,19,20
 583 1463 583 1463 646 1384 c 0,21,22
 676 1345 676 1345 693 1345 c 0,23,24
 722 1345 722 1345 722 1415 c 24,25,26
 722 1455 722 1455 762 1455 c 2,0,1
EndSplineSet
Validated: 1
EndChar

StartChar: hungarumlaut
Encoding: 733 733 130
Width: 1200
Flags: W
HStem: 1190 306
VStem: 350 500
LayerCount: 2
Fore
SplineSet
750 1496 m 0,0,1
 761 1496 761 1496 772 1489 c 2,2,-1
 833 1447 l 2,3,4
 850 1435 850 1435 850 1419 c 0,5,6
 850 1407 850 1407 840 1395 c 2,7,-1
 682 1205 l 2,8,9
 669 1190 669 1190 656 1190 c 128,-1,10
 643 1190 643 1190 633 1198 c 2,11,-1
 603 1220 l 2,12,13
 586 1233 586 1233 586 1246 c 0,14,15
 586 1255 586 1255 593 1267 c 2,16,-1
 725 1479 l 2,17,18
 735 1496 735 1496 750 1496 c 0,0,1
514 1496 m 0,19,20
 525 1496 525 1496 536 1489 c 2,21,-1
 597 1447 l 2,22,23
 614 1435 614 1435 614 1419 c 0,24,25
 614 1407 614 1407 604 1395 c 2,26,-1
 446 1205 l 2,27,28
 433 1190 433 1190 420 1190 c 128,-1,29
 407 1190 407 1190 397 1198 c 2,30,-1
 367 1220 l 2,31,32
 350 1233 350 1233 350 1246 c 0,33,34
 350 1255 350 1255 357 1267 c 2,35,-1
 489 1479 l 2,36,37
 499 1496 499 1496 514 1496 c 0,19,20
EndSplineSet
Validated: 1
EndChar

StartChar: C
Encoding: 67 67 131
Width: 1200
Flags: W
HStem: -20 160<545.362 824.49> 1360 160<545.862 824.49>
VStem: 160 182<421.563 1078.85>
LayerCount: 2
Fore
SplineSet
687.5 -20 m 128,-1,1
 429 -20 429 -20 292 206 c 0,2,3
 160 430 160 430 160 750 c 128,-1,4
 160 1070 160 1070 292 1294 c 0,5,6
 429 1520 429 1520 687.5 1520 c 128,-1,7
 946 1520 946 1520 1079 1294 c 24,8,9
 1090 1275 1090 1275 1090 1266 c 0,10,11
 1090 1251 1090 1251 1072 1237 c 2,12,-1
 995 1180 l 2,13,14
 980 1169 980 1169 968 1169 c 0,15,16
 954 1169 954 1169 942 1188 c 24,17,18
 832 1360 832 1360 698 1360 c 0,19,20
 530 1360 530 1360 430 1189 c 0,21,22
 342 1016 342 1016 342 750 c 0,23,24
 342 486 342 486 430 311 c 0,25,26
 528 140 528 140 698 140 c 0,27,28
 832 140 832 140 942 312 c 24,29,30
 954 331 954 331 968 331 c 0,31,32
 980 331 980 331 995 320 c 2,33,-1
 1072 263 l 2,34,35
 1090 249 1090 249 1090 234 c 0,36,37
 1090 225 1090 225 1079 206 c 24,38,0
 946 -20 946 -20 687.5 -20 c 128,-1,1
EndSplineSet
Validated: 1
EndChar

StartChar: G
Encoding: 71 71 132
Width: 1200
Flags: W
HStem: -20 160<497.926 801.27> 670 160<644.11 905> 1360 160<496.419 770.104>
VStem: 115 182<418.528 1082.1> 866 147<1217.52 1263.81> 905 180<246.309 670>
CounterMasks: 1 e0
LayerCount: 2
Fore
SplineSet
655 -20 m 0,0,1
 382 -20 382 -20 247 206 c 0,2,3
 115 427 115 427 115 750 c 128,-1,4
 115 1073 115 1073 247 1294 c 0,5,6
 382 1520 382 1520 624 1520 c 0,7,8
 865 1520 865 1520 1002 1296 c 0,9,10
 1013 1278 1013 1278 1013 1268 c 0,11,12
 1014 1251 1014 1251 996 1238 c 2,13,-1
 918 1181 l 2,14,15
 903 1170 903 1170 892 1170 c 0,16,17
 874 1170 874 1170 866 1189 c 16,18,19
 784 1360 784 1360 643 1360 c 0,20,21
 479 1360 479 1360 385 1189 c 0,22,23
 297 1028 297 1028 297 750 c 0,24,25
 297 475 297 475 385 311 c 0,26,27
 477 140 477 140 653 140 c 0,28,29
 826 140 826 140 905 316 c 9,30,-1
 905 670 l 1,31,-1
 694 670 l 2,32,33
 644 670 644 670 644 719 c 2,34,-1
 644 781 l 2,35,36
 644 830 644 830 694 830 c 2,37,-1
 1035 830 l 2,38,39
 1085 830 1085 830 1085 780 c 2,40,-1
 1085 283 l 1,41,42
 949 -20 949 -20 655 -20 c 0,0,1
EndSplineSet
Validated: 1
EndChar

StartChar: J
Encoding: 74 74 133
Width: 1200
Flags: W
HStem: -20 160<333.326 629.324> 1340 160<240.11 800>
VStem: 800 180<319.095 1340>
LayerCount: 2
Fore
SplineSet
483 -20 m 0,0,1
 279 -20 279 -20 138 114 c 0,2,3
 120 131 120 131 120 146 c 0,4,5
 120 168 120 168 137 184 c 2,6,-1
 192 237 l 2,7,8
 208 252 208 252 224 252 c 0,9,10
 245 252 245 252 262 237 c 0,11,12
 370 140 370 140 483 140 c 128,-1,13
 596 140 596 140 696 238 c 0,14,15
 800 339 800 339 800 528 c 2,16,-1
 800 1340 l 1,17,-1
 290 1340 l 2,18,19
 240 1340 240 1340 240 1389 c 2,20,-1
 240 1451 l 2,21,22
 240 1500 240 1500 290 1500 c 2,23,-1
 930 1500 l 2,24,25
 980 1500 980 1500 980 1451 c 2,26,-1
 980 528 l 2,27,28
 980 278 980 278 814 114 c 0,29,30
 685 -20 685 -20 483 -20 c 0,0,1
EndSplineSet
Validated: 1
EndChar

StartChar: M
Encoding: 77 77 134
Width: 1200
Flags: W
HStem: 0 21G<145 265 935 1055> 1480 20G<145 348 852 1055>
VStem: 120 170<0.191406 1220> 910 170<0.191406 1220>
DStem2: 380 1451 290 1220 0.269356 -0.963041<198.22 813.05> 599 668 709 517 0.271635 0.9624<0 615.724>
LayerCount: 2
Fore
SplineSet
170 0 m 2,0,1
 120 0 120 0 120 49 c 2,2,-1
 120 1451 l 2,3,4
 120 1500 120 1500 170 1500 c 2,5,-1
 330 1500 l 2,6,7
 366 1500 366 1500 380 1451 c 2,8,-1
 599 668 l 1,9,-1
 820 1451 l 2,10,11
 834 1500 834 1500 870 1500 c 2,12,-1
 1030 1500 l 2,13,14
 1080 1500 1080 1500 1080 1451 c 2,15,-1
 1080 49 l 2,16,17
 1080 0 1080 0 1030 0 c 2,18,-1
 960 0 l 2,19,20
 910 0 910 0 910 49 c 2,21,-1
 910 1220 l 1,22,-1
 709 517 l 2,23,24
 695 468 695 468 659 468 c 2,25,-1
 539 468 l 2,26,27
 503 468 503 468 489 516 c 2,28,-1
 290 1220 l 1,29,-1
 290 49 l 2,30,31
 290 0 290 0 240 0 c 2,32,-1
 170 0 l 2,0,1
EndSplineSet
Validated: 1
EndChar

StartChar: Y
Encoding: 89 89 135
Width: 1200
Flags: W
HStem: 0 21G<535 665> 1480 20G<105 244.5 955.5 1095>
VStem: 510 180<0.191406 650>
DStem2: 600 834 90 1453 0.463471 -0.886112<-774.612 0> 600 834 690 650 0.463471 0.886112<0 774.612>
LayerCount: 2
Fore
SplineSet
560 0 m 2,0,1
 510 0 510 0 510 49 c 2,2,-1
 510 650 l 1,3,-1
 90 1453 l 2,4,5
 86 1461 86 1461 86 1474 c 0,6,7
 86 1500 86 1500 124 1500 c 2,8,-1
 228 1500 l 2,9,10
 261 1500 261 1500 278 1466 c 2,11,-1
 600 834 l 1,12,-1
 922 1466 l 2,13,14
 939 1500 939 1500 972 1500 c 2,15,-1
 1076 1500 l 2,16,17
 1114 1500 1114 1500 1114 1474 c 0,18,19
 1114 1461 1114 1461 1110 1453 c 2,20,-1
 690 650 l 1,21,-1
 690 49 l 2,22,23
 690 0 690 0 640 0 c 2,24,-1
 560 0 l 2,0,1
EndSplineSet
Validated: 1
EndChar

StartChar: X
Encoding: 88 88 136
Width: 1200
Flags: W
HStem: 0 21G<118.5 252 948 1081.5> 578 344<428 772> 1480 20G<118.5 252 948 1081.5>
VStem: 502 196<652 848>
DStem2: 600 922 105 1451 0.493028 -0.870013<-689.864 0 299.285 988.425> 105 49 292 34 0.493028 0.870013<15.1461 704.286 1003.57 1692.71>
LayerCount: 2
Fore
SplineSet
137 0 m 2,0,1
 100 0 100 0 100 30 c 0,2,3
 100 40 100 40 105 49 c 2,4,-1
 502 750 l 1,5,-1
 105 1451 l 2,6,7
 100 1460 100 1460 100 1470 c 0,8,9
 100 1500 100 1500 137 1500 c 2,10,-1
 231 1500 l 2,11,12
 273 1500 273 1500 292 1466 c 2,13,-1
 600 922 l 1,14,-1
 908 1466 l 2,15,16
 927 1500 927 1500 969 1500 c 2,17,-1
 1063 1500 l 2,18,19
 1100 1500 1100 1500 1100 1470 c 0,20,21
 1100 1460 1100 1460 1095 1451 c 2,22,-1
 698 750 l 1,23,-1
 1095 49 l 2,24,25
 1100 40 1100 40 1100 30 c 0,26,27
 1100 0 1100 0 1063 0 c 2,28,-1
 969 0 l 2,29,30
 927 0 927 0 908 34 c 2,31,-1
 600 578 l 1,32,-1
 292 34 l 2,33,34
 273 0 273 0 231 0 c 2,35,-1
 137 0 l 2,0,1
EndSplineSet
Validated: 1
EndChar

StartChar: S
Encoding: 83 83 137
Width: 1200
Flags: W
HStem: -20 160<383.885 703.666> 1360 160<470.884 720.215>
VStem: 247 173<1057.19 1307.1> 855 185<293.672 594.513>
DStem2: 595 954 487 811 0.884918 -0.465746<-187.471 360.791>
LayerCount: 2
Fore
SplineSet
538 -20 m 0,0,1
 306 -20 306 -20 130 191 c 0,2,3
 120 203 120 203 120 218 c 128,-1,4
 120 233 120 233 138 248 c 2,5,-1
 213 307 l 2,6,7
 225 317 225 317 238 317 c 0,8,9
 255 317 255 317 268 298 c 0,10,11
 376 140 376 140 545 140 c 0,12,13
 679 140 679 140 765 236 c 0,14,15
 855 329 855 329 855 448 c 0,16,17
 855 619 855 619 661 719 c 2,18,-1
 487 811 l 2,19,20
 247 931 247 931 247 1157 c 0,21,22
 247 1336 247 1336 380 1447 c 0,23,24
 461 1520 461 1520 597 1520 c 0,25,26
 780 1519 780 1519 899 1379 c 0,27,28
 910 1366 910 1366 910 1351 c 128,-1,29
 910 1336 910 1336 892 1322 c 2,30,-1
 815 1265 l 2,31,32
 801 1254 801 1254 788 1254 c 0,33,34
 777 1254 777 1254 762 1273 c 0,35,36
 691 1360 691 1360 596 1360 c 0,37,38
 512 1360 512 1360 466 1310.5 c 128,-1,39
 420 1261 420 1261 420 1184 c 0,40,41
 420 1046 420 1046 595 954 c 2,42,-1
 785 854 l 2,43,44
 1040 734 1040 734 1040 463 c 0,45,46
 1040 292 1040 292 918 148 c 0,47,48
 778 -20 778 -20 538 -20 c 0,0,1
EndSplineSet
Validated: 1
EndChar

StartChar: P
Encoding: 80 80 138
Width: 1200
Flags: W
HStem: 0 21G<225 355> 538 160<380 744.638> 1340 160<380 744.877>
VStem: 200 180<0.191406 538 698 1340> 878 190<840.661 1198.26>
LayerCount: 2
Fore
SplineSet
330 0 m 2,0,-1
 250 0 l 2,1,2
 200 0 200 0 200 49 c 2,3,-1
 200 1451 l 2,4,5
 200 1500 200 1500 250 1500 c 2,6,-1
 583 1500 l 2,7,8
 807 1500 807 1500 945 1351 c 0,9,10
 1068 1219 1068 1219 1068 1019 c 128,-1,11
 1068 819 1068 819 945 687 c 0,12,13
 807 538 807 538 583 538 c 2,14,-1
 380 538 l 1,15,-1
 380 49 l 2,16,17
 380 0 380 0 330 0 c 2,0,-1
380 1340 m 1,18,-1
 380 698 l 1,19,-1
 603 698 l 2,20,21
 727 698 727 698 809 803 c 0,22,23
 878 890 878 890 878 1020 c 0,24,25
 878 1144 878 1144 810 1235 c 0,26,27
 732 1340 732 1340 603 1340 c 2,28,-1
 380 1340 l 1,18,-1
EndSplineSet
Validated: 1
EndChar

StartChar: s
Encoding: 115 115 139
Width: 1200
Flags: W
HStem: -20 151<422.036 726.914> 969 151<507.463 731.462>
VStem: 305 170<760.527 943.994> 811 170<210.443 440.44>
DStem2: 621 701 561 540 0.929906 -0.367798<-161.429 273.584>
LayerCount: 2
Fore
SplineSet
574 -20 m 128,-1,1
 391 -20 391 -20 232 119 c 0,2,3
 219 131 219 131 219 148 c 128,-1,4
 219 165 219 165 237 182 c 2,5,-1
 294 240 l 2,6,7
 307 253 307 253 320 252 c 0,8,9
 341 252 341 252 356 234 c 0,10,11
 442 131 442 131 571 131 c 0,12,13
 671 131 671 131 738 184 c 0,14,15
 811 241 811 241 811 328 c 0,16,17
 811 447 811 447 669 499 c 2,18,-1
 561 540 l 2,19,20
 305 636 305 636 305 848 c 0,21,22
 305 966 305 966 401 1051 c 0,23,24
 480 1120 480 1120 613 1120 c 0,25,26
 794 1120 794 1120 885 1009 c 0,27,28
 899 992 899 992 899 980 c 0,29,30
 899 963 899 963 881 945 c 2,31,-1
 824 887 l 2,32,33
 811 874 811 874 798 875 c 0,34,35
 777 875 777 875 762 893 c 0,36,37
 700 968 700 968 611 969 c 0,38,39
 552 969 552 969 517 944 c 0,40,41
 475 914 475 914 475 852 c 0,42,43
 475 758 475 758 621 701 c 2,44,-1
 755 648 l 2,45,46
 981 559 981 559 981 348 c 0,47,48
 981 193 981 193 875 92 c 0,49,0
 757 -20 757 -20 574 -20 c 128,-1,1
EndSplineSet
Validated: 1
EndChar

StartChar: K
Encoding: 75 75 140
Width: 1200
Flags: W
HStem: 0 21G<225 343 943.5 1081.5> 1480 20G<225 343 936.5 1059.5>
VStem: 200 168<0.191406 529 788 1499.81>
DStem2: 368 788 511 711 0.607193 0.794555<0 25.6478 209.891 929.792> 626 855 511 711 0.502937 -0.864323<66.6247 915.213>
LayerCount: 2
Fore
SplineSet
318 0 m 2,0,-1
 250 0 l 2,1,2
 200 0 200 0 200 49 c 2,3,-1
 200 1451 l 2,4,5
 200 1500 200 1500 250 1500 c 2,6,-1
 318 1500 l 2,7,8
 368 1500 368 1500 368 1451 c 2,9,-1
 368 788 l 1,10,-1
 893 1466 l 2,11,12
 919 1500 919 1500 954 1500 c 2,13,-1
 1041 1500 l 2,14,15
 1078 1500 1078 1500 1078 1470 c 0,16,17
 1078 1458 1078 1458 1068 1445 c 2,18,-1
 626 855 l 1,19,-1
 1095 49 l 2,20,21
 1100 40 1100 40 1100 30 c 0,22,23
 1100 0 1100 0 1063 0 c 2,24,-1
 964 0 l 2,25,26
 923 0 923 0 903 34 c 2,27,-1
 511 711 l 1,28,-1
 368 529 l 1,29,-1
 368 49 l 2,30,31
 368 0 368 0 318 0 c 2,0,-1
EndSplineSet
Validated: 1
EndChar

StartChar: R
Encoding: 82 82 141
Width: 1200
Flags: W
HStem: 0 21G<225 355 941.5 1079.5> 538 160<380 609> 1340 160<380 744.877>
VStem: 200 180<0.191406 538 698 1340> 878 190<840.661 1198.26>
DStem2: 787 576 609 538 0.502136 -0.864789<0 591.429>
LayerCount: 2
Fore
SplineSet
380 1340 m 1,0,-1
 380 698 l 1,1,-1
 603 698 l 2,2,3
 727 698 727 698 809 803 c 0,4,5
 878 890 878 890 878 1020 c 0,6,7
 878 1144 878 1144 810 1235 c 0,8,9
 732 1340 732 1340 603 1340 c 2,10,-1
 380 1340 l 1,0,-1
250 0 m 2,11,12
 200 0 200 0 200 49 c 2,13,-1
 200 1451 l 2,14,15
 200 1500 200 1500 250 1500 c 2,16,-1
 583 1500 l 2,17,18
 807 1500 807 1500 945 1351 c 0,19,20
 1068 1219 1068 1219 1068 1019 c 128,-1,21
 1068 819 1068 819 945 687 c 0,22,23
 876 613 876 613 787 576 c 1,24,-1
 1093 49 l 2,25,26
 1098 40 1098 40 1098 30 c 0,27,28
 1098 0 1098 0 1061 0 c 2,29,-1
 962 0 l 2,30,31
 921 0 921 0 901 34 c 2,32,-1
 609 538 l 1,33,-1
 380 538 l 1,34,-1
 380 49 l 2,35,36
 380 0 380 0 330 0 c 2,37,-1
 250 0 l 2,11,12
EndSplineSet
Validated: 1
EndChar

StartChar: B
Encoding: 66 66 142
Width: 1200
Flags: W
HStem: 0 160<370 745.971> 746 160<370 709> 1340 160<370 710.441>
VStem: 200 170<160 746 906 1340> 790 179<984.872 1262.2> 880 180<289.409 615.646>
LayerCount: 2
Fore
SplineSet
565 906 m 2,0,1
 661 906 661 906 722 959 c 0,2,3
 790 1019 790 1019 790 1123 c 128,-1,4
 790 1227 790 1227 722 1287 c 0,5,6
 661 1340 661 1340 565 1340 c 2,7,-1
 370 1340 l 1,8,-1
 370 906 l 1,9,-1
 565 906 l 2,0,1
565 160 m 2,10,11
 726 160 726 160 812 258 c 0,12,13
 880 334 880 334 880 451.5 c 128,-1,14
 880 569 880 569 813 647 c 0,15,16
 729 746 729 746 565 746 c 2,17,-1
 370 746 l 1,18,-1
 370 160 l 1,19,-1
 565 160 l 2,10,11
240 0 m 2,20,21
 221 0 221 0 212 8 c 0,22,23
 200 17 200 17 200 39 c 2,24,-1
 200 1461 l 2,25,26
 200 1483 200 1483 212 1492 c 0,27,28
 221 1500 221 1500 240 1500 c 2,29,-1
 565 1500 l 2,30,31
 727 1500 727 1500 840 1410 c 0,32,33
 969 1307 969 1307 969 1142 c 0,34,35
 969 972 969 972 807 842 c 1,36,37
 876 814 876 814 919 777 c 0,38,39
 1060 656 1060 656 1060 453 c 0,40,41
 1060 258 1060 258 935 134 c 0,42,43
 801 0 801 0 565 0 c 2,44,-1
 240 0 l 2,20,21
EndSplineSet
Validated: 1
EndChar

StartChar: l
Encoding: 108 108 143
Width: 1200
Flags: W
HStem: 0 150<773.762 1075> 1350 150<225.11 515>
VStem: 515 170<238.176 1350>
LayerCount: 2
Fore
SplineSet
925 0 m 2,0,1
 734 0 734 0 626 105 c 0,2,3
 515 213 515 213 515 403 c 2,4,-1
 515 1350 l 17,5,-1
 275 1350 l 2,6,7
 225 1350 225 1350 225 1399 c 2,8,-1
 225 1451 l 2,9,10
 225 1500 225 1500 275 1500 c 2,11,-1
 635 1500 l 2,12,13
 685 1500 685 1500 685 1451 c 2,14,-1
 685 381 l 2,15,16
 685 273 685 273 752 211 c 0,17,18
 818 150 818 150 925 150 c 2,19,-1
 1030 150 l 2,20,21
 1075 150 1075 150 1075 106 c 2,22,-1
 1075 44 l 2,23,24
 1075 0 1075 0 1030 0 c 2,25,-1
 925 0 l 2,0,1
EndSplineSet
Validated: 1
EndChar

StartChar: i
Encoding: 105 105 144
Width: 1200
Flags: W
HStem: 0 150<773.762 1075> 950 150<225.11 515> 1256 264<467.253 652.777>
VStem: 426 268<1295.22 1481.32> 515 170<238.176 950>
LayerCount: 2
Fore
SplineSet
925 0 m 2,0,1
 734 0 734 0 626 105 c 0,2,3
 515 213 515 213 515 403 c 2,4,-1
 515 950 l 17,5,-1
 275 950 l 2,6,7
 225 950 225 950 225 999 c 2,8,-1
 225 1051 l 2,9,10
 225 1100 225 1100 275 1100 c 2,11,-1
 635 1100 l 2,12,13
 685 1100 685 1100 685 1051 c 2,14,-1
 685 381 l 2,15,16
 685 273 685 273 752 211 c 0,17,18
 818 150 818 150 925 150 c 2,19,-1
 1030 150 l 2,20,21
 1075 150 1075 150 1075 106 c 2,22,-1
 1075 44 l 2,23,24
 1075 0 1075 0 1030 0 c 2,25,-1
 925 0 l 2,0,1
560 1520 m 0,26,27
 619 1520 619 1520 654 1484 c 0,28,29
 694 1443 694 1443 694 1388 c 128,-1,30
 694 1333 694 1333 654 1294 c 0,31,32
 615 1256 615 1256 560 1256 c 0,33,34
 503 1256 503 1256 466 1292 c 0,35,36
 426 1331 426 1331 426 1388 c 128,-1,37
 426 1445 426 1445 466 1482.5 c 128,-1,38
 506 1520 506 1520 560 1520 c 0,26,27
EndSplineSet
Validated: 1
EndChar

StartChar: t
Encoding: 116 116 145
Width: 1200
Flags: W
HStem: 0 150<731.106 1033.89> 950 150<140.11 464 634 967.89> 1480 20G<489 609>
VStem: 464 170<246.018 950 1100 1499.81>
LayerCount: 2
Fore
SplineSet
879 0 m 2,0,1
 686 0 686 0 577 106 c 0,2,3
 464 216 464 216 464 408 c 2,4,-1
 464 950 l 1,5,-1
 190 950 l 2,6,7
 140 950 140 950 140 999 c 2,8,-1
 140 1051 l 2,9,10
 140 1100 140 1100 190 1100 c 2,11,-1
 464 1100 l 1,12,-1
 464 1451 l 2,13,14
 464 1500 464 1500 514 1500 c 2,15,-1
 584 1500 l 2,16,17
 634 1500 634 1500 634 1451 c 2,18,-1
 634 1100 l 1,19,-1
 918 1100 l 2,20,21
 968 1100 968 1100 968 1051 c 2,22,-1
 968 999 l 2,23,24
 968 950 968 950 918 950 c 2,25,-1
 634 950 l 1,26,-1
 634 386 l 2,27,28
 634 280 634 280 704 215 c 128,-1,29
 774 150 774 150 879 150 c 2,30,-1
 984 150 l 2,31,32
 1034 150 1034 150 1034 101 c 2,33,-1
 1034 49 l 2,34,35
 1034 0 1034 0 984 0 c 2,36,-1
 879 0 l 2,0,1
EndSplineSet
Validated: 1
EndChar

StartChar: j
Encoding: 106 106 146
Width: 1200
Flags: W
HStem: -400 150<220 521.238> 950 150<320.11 610> 1256 264<557.253 742.777>
VStem: 516 268<1295.22 1481.32> 610 170<-161.824 950>
LayerCount: 2
Fore
SplineSet
370 -400 m 2,0,-1
 265 -400 l 2,1,2
 220 -400 220 -400 220 -356 c 2,3,-1
 220 -294 l 2,4,5
 220 -250 220 -250 265 -250 c 2,6,7
 370 -250 l 2,8,9
 477 -250 477 -250 543 -189 c 0,10,11
 610 -127 610 -127 610 -19 c 2,12,-1
 610 950 l 17,13,-1
 370 950 l 2,14,15
 320 950 320 950 320 999 c 2,16,-1
 320 1051 l 2,17,18
 320 1100 320 1100 370 1100 c 2,19,-1
 730 1100 l 2,20,21
 780 1100 780 1100 780 1051 c 2,22,-1
 780 3 l 2,23,24
 780 -187 780 -187 669 -295 c 0,25,26
 561 -400 561 -400 370 -400 c 2,0,-1
650 1520 m 0,27,28
 709 1520 709 1520 744 1484 c 0,29,30
 784 1443 784 1443 784 1388 c 128,-1,31
 784 1333 784 1333 744 1294 c 0,32,33
 705 1256 705 1256 650 1256 c 0,34,35
 593 1256 593 1256 556 1292 c 0,36,37
 516 1331 516 1331 516 1388 c 128,-1,38
 516 1445 516 1445 556 1482.5 c 128,-1,39
 596 1520 596 1520 650 1520 c 0,27,28
EndSplineSet
Validated: 1
EndChar

StartChar: f
Encoding: 102 102 147
Width: 1200
Flags: W
HStem: 0 21G<479 599> 740 150<130.11 454 624 957.89> 1350 150<721.106 1023.89>
VStem: 454 170<0.191406 740 890 1253.98>
LayerCount: 2
Fore
SplineSet
504 0 m 2,0,1
 454 0 454 0 454 49 c 2,2,-1
 454 740 l 1,3,-1
 180 740 l 2,4,5
 130 740 130 740 130 789 c 2,6,-1
 130 841 l 2,7,8
 130 890 130 890 180 890 c 2,9,-1
 454 890 l 1,10,-1
 454 1092 l 2,11,12
 454 1284 454 1284 567 1394 c 0,13,14
 676 1500 676 1500 869 1500 c 2,15,-1
 974 1500 l 2,16,17
 1024 1500 1024 1500 1024 1451 c 2,18,-1
 1024 1399 l 2,19,20
 1024 1350 1024 1350 974 1350 c 2,21,-1
 869 1350 l 2,22,23
 764 1350 764 1350 694 1285 c 128,-1,24
 624 1220 624 1220 624 1114 c 2,25,-1
 624 890 l 1,26,-1
 908 890 l 2,27,28
 958 890 958 890 958 841 c 2,29,-1
 958 789 l 2,30,31
 958 740 958 740 908 740 c 2,32,-1
 624 740 l 1,33,-1
 624 49 l 2,34,35
 624 0 624 0 574 0 c 2,36,-1
 504 0 l 2,0,1
EndSplineSet
Validated: 1
EndChar

StartChar: d
Encoding: 100 100 148
Width: 1200
Flags: W
HStem: -20 155<471.677 748.358> 0 21G<831 958.5> 963 157<465.917 747.23> 1480 20G<831 958.5>
VStem: 148 170<310.363 791.968> 810 170<0 72 189.877 910.101 1026 1500>
LayerCount: 2
Fore
SplineSet
852 0 m 2,0,1
 810 0 810 0 810 44 c 2,2,-1
 810 72 l 1,3,4
 713 -20 713 -20 593 -20 c 0,5,6
 413 -20 413 -20 294 119 c 0,7,8
 148 288 148 288 148 550 c 0,9,10
 148 820 148 820 293 979 c 0,11,12
 422 1120 422 1120 593 1120 c 0,13,14
 715 1120 715 1120 810 1026 c 1,15,-1
 810 1456 l 2,16,17
 810 1500 810 1500 852 1500 c 2,18,-1
 937 1500 l 2,19,20
 980 1500 980 1500 980 1456 c 2,21,-1
 980 44 l 2,22,23
 980 0 980 0 937 0 c 2,24,-1
 852 0 l 2,0,1
810 856 m 1,25,26
 744 963 744 963 618 963 c 128,-1,27
 492 963 492 963 411 869 c 0,28,29
 318 761 318 761 318 552.5 c 128,-1,30
 318 344 318 344 408 237 c 0,31,32
 494 135 494 135 620 135 c 0,33,34
 744 135 744 135 810 246 c 1,35,-1
 810 856 l 1,25,26
EndSplineSet
Validated: 1
EndChar

StartChar: p
Encoding: 112 112 149
Width: 1200
Flags: W
HStem: -400 21G<241.5 369> -20 157<452.77 734.083> 965 155<451.642 728.323> 1080 20G<241.5 369>
VStem: 220 170<-400 74 189.899 910.123 1028 1100> 882 170<308.032 789.637>
LayerCount: 2
Fore
SplineSet
607 -20 m 0,0,1
 485 -20 485 -20 390 74 c 1,2,-1
 390 -356 l 2,3,4
 390 -400 390 -400 348 -400 c 2,5,-1
 263 -400 l 2,6,7
 220 -400 220 -400 220 -356 c 2,8,-1
 220 1056 l 2,9,10
 220 1100 220 1100 263 1100 c 2,11,-1
 348 1100 l 2,12,13
 390 1100 390 1100 390 1056 c 2,14,-1
 390 1028 l 1,15,16
 487 1120 487 1120 607 1120 c 0,17,18
 787 1120 787 1120 906 981 c 0,19,20
 1052 812 1052 812 1052 550 c 0,21,22
 1052 280 1052 280 907 121 c 0,23,24
 778 -20 778 -20 607 -20 c 0,0,1
390 244 m 1,25,26
 456 137 456 137 582 137 c 128,-1,27
 708 137 708 137 789 231 c 0,28,29
 882 339 882 339 882 547.5 c 128,-1,30
 882 756 882 756 792 863 c 0,31,32
 706 965 706 965 580 965 c 0,33,34
 456 965 456 965 390 854 c 1,35,-1
 390 244 l 1,25,26
EndSplineSet
Validated: 1
EndChar

StartChar: b
Encoding: 98 98 150
Width: 1200
Flags: W
HStem: -20 155<451.642 728.323> 0 21G<241.5 369> 963 157<452.77 734.083> 1480 20G<241.5 369>
VStem: 220 170<0 72 189.877 910.101 1026 1500> 882 170<310.363 791.968>
LayerCount: 2
Fore
SplineSet
263 0 m 2,0,1
 220 0 220 0 220 44 c 2,2,-1
 220 1456 l 2,3,4
 220 1500 220 1500 263 1500 c 2,5,-1
 348 1500 l 2,6,7
 390 1500 390 1500 390 1456 c 2,8,-1
 390 1026 l 1,9,10
 485 1120 485 1120 607 1120 c 0,11,12
 778 1120 778 1120 907 979 c 0,13,14
 1052 820 1052 820 1052 550 c 0,15,16
 1052 288 1052 288 906 119 c 0,17,18
 787 -20 787 -20 607 -20 c 0,19,20
 487 -20 487 -20 390 72 c 1,21,-1
 390 44 l 2,22,23
 390 0 390 0 348 0 c 2,24,-1
 263 0 l 2,0,1
390 856 m 1,25,26
 390 246 l 1,27,28
 456 135 456 135 580 135 c 0,29,30
 706 135 706 135 792 237 c 0,31,32
 882 344 882 344 882 552.5 c 128,-1,33
 882 761 882 761 789 869 c 0,34,35
 708 963 708 963 582 963 c 128,-1,36
 456 963 456 963 390 856 c 1,25,26
EndSplineSet
Validated: 1
EndChar

StartChar: q
Encoding: 113 113 151
Width: 1200
Flags: W
HStem: -400 150<980 1159.89> -20 157<465.917 747.23> 965 155<471.677 748.358> 1080 20G<831 958.5>
VStem: 148 170<308.032 789.637> 810 170<-250 74 189.899 910.123 1028 1100>
LayerCount: 2
Fore
SplineSet
593 -20 m 0,0,1
 422 -20 422 -20 293 121 c 0,2,3
 148 280 148 280 148 550 c 0,4,5
 148 812 148 812 294 981 c 0,6,7
 413 1120 413 1120 593 1120 c 0,8,9
 713 1120 713 1120 810 1028 c 1,10,-1
 810 1056 l 2,11,12
 810 1100 810 1100 852 1100 c 2,13,-1
 937 1100 l 2,14,15
 980 1100 980 1100 980 1056 c 2,16,-1
 980 -250 l 1,17,-1
 1110 -250 l 2,18,19
 1160 -250 1160 -250 1160 -299 c 2,20,-1
 1160 -351 l 2,21,22
 1160 -400 1160 -400 1110 -400 c 2,23,-1
 860 -400 l 2,24,25
 810 -400 810 -400 810 -351 c 2,26,-1
 810 74 l 1,27,28
 715 -20 715 -20 593 -20 c 0,0,1
810 244 m 1,29,-1
 810 854 l 1,30,31
 744 965 744 965 620 965 c 0,32,33
 494 965 494 965 408 863 c 0,34,35
 318 756 318 756 318 547.5 c 128,-1,36
 318 339 318 339 411 231 c 0,37,38
 492 137 492 137 618 137 c 128,-1,39
 744 137 744 137 810 244 c 1,29,-1
EndSplineSet
Validated: 1
EndChar

StartChar: a
Encoding: 97 97 152
Width: 1200
Flags: W
HStem: -20 142<415.931 713.763> -0 21G<817.5 942.5> 950 150<353 708.77>
VStem: 185 166<186.501 424.287> 795 170<4.4e-07 71 191.625 555 700 859.93>
DStem2: 585 659 583 514 0.981808 0.189878<-217.827 186.432>
LayerCount: 2
Fore
SplineSet
840 -0 m 2,0,1
 795 0 795 0 795 44 c 2,2,-1
 795 71 l 1,3,4
 694 -20 694 -20 557 -20 c 0,5,6
 364 -20 364 -20 263 93 c 0,7,8
 185 180 185 180 185 304 c 0,9,10
 185 435 185 435 281 524 c 0,11,12
 384 620 384 620 585 659 c 2,13,-1
 795 700 l 1,14,15
 790 825 790 825 733 885 c 0,16,17
 670 950 670 950 563 950 c 2,18,-1
 398 950 l 2,19,20
 353 950 353 950 353 994 c 2,21,-1
 353 1056 l 2,22,23
 353 1100 353 1100 398 1100 c 2,24,-1
 563 1100 l 2,25,26
 746 1100 746 1100 854 995 c 24,27,28
 965 887 965 887 965 707 c 2,29,-1
 965 44 l 2,30,31
 965 0 965 0 920 -0 c 2,32,-1
 840 -0 l 2,0,1
387 196 m 0,33,34
 443 122 443 122 558 122 c 0,35,36
 658 122 658 122 743 186 c 0,37,38
 774 208 774 208 795 238 c 1,39,-1
 795 555 l 1,40,-1
 583 514 l 2,41,42
 478 494 478 494 414.5 442.5 c 128,-1,43
 351 391 351 391 351 315 c 0,44,45
 351 245 351 245 387 196 c 0,33,34
EndSplineSet
Validated: 1
EndChar

StartChar: c
Encoding: 99 99 153
Width: 1200
Flags: W
HStem: -20 155<541.533 818.412> 965 155<539.057 822.583>
VStem: 220 173<308.051 793.988>
LayerCount: 2
Fore
SplineSet
677 -20 m 0,0,1
 482 -20 482 -20 363 119 c 0,2,3
 220 288 220 288 220 550 c 0,4,5
 220 821 220 821 362 979 c 0,6,7
 489 1120 489 1120 676 1120 c 0,8,9
 872 1120 872 1120 991 979 c 8,10,11
 1002 966 1002 966 1002 951 c 0,12,13
 1002 935 1002 935 984 922 c 2,14,-1
 915 872 l 2,15,16
 900 861 900 861 888 861 c 0,17,18
 875 862 875 862 862 880 c 16,19,20
 801 965 801 965 676 965 c 0,21,22
 563 965 563 965 483 869 c 0,23,24
 393 759 393 759 393 553 c 0,25,26
 393 343 393 343 480 237 c 0,27,28
 565 135 565 135 677 135 c 0,29,30
 793 135 793 135 860 221 c 8,31,32
 875 240 875 240 886 240 c 0,33,34
 898 240 898 240 913 229 c 2,35,-1
 983 176 l 2,36,37
 1001 162 1001 162 1001 146.5 c 128,-1,38
 1001 131 1001 131 990 119 c 16,39,40
 863 -20 863 -20 677 -20 c 0,0,1
EndSplineSet
Validated: 1
EndChar

StartChar: e
Encoding: 101 101 154
Width: 1200
Flags: W
HStem: -20 155<480.963 769.65> 965 155<479.057 757.696>
VStem: 160 173<506 792.75>
DStem2: 334 506 362 344 0.939708 0.341978<0 589.503>
LayerCount: 2
Fore
SplineSet
617 -20 m 0,0,1
 422 -20 422 -20 303 119 c 0,2,3
 160 288 160 288 160 550 c 0,4,5
 160 821 160 821 302 979 c 0,6,7
 429 1120 429 1120 616 1120 c 128,-1,8
 803 1120 803 1120 930 979 c 0,9,10
 1050 845 1050 845 1069 676 c 0,11,12
 1070 669 1070 669 1070 662 c 0,13,14
 1070 601 1070 601 1005 578 c 2,15,-1
 362 344 l 1,16,17
 373 296 373 296 420 237 c 0,18,19
 503 135 503 135 615 135 c 0,20,21
 747 135 747 135 831 233 c 0,22,23
 848 253 848 253 871 253 c 0,24,25
 887 253 887 253 901 239 c 2,26,-1
 951 189 l 2,27,28
 970 170 970 170 970 151 c 0,29,30
 970 137 970 137 955 119 c 0,31,32
 839 -20 839 -20 617 -20 c 0,0,1
884 706 m 1,33,34
 869 787 869 787 809 869 c 0,35,36
 739 965 739 965 616 965 c 0,37,38
 503 965 503 965 423 869 c 0,39,40
 333 759 333 759 333 553 c 0,41,42
 333 529 333 529 334 506 c 1,43,-1
 884 706 l 1,33,34
EndSplineSet
Validated: 1
EndChar

StartChar: g
Encoding: 103 103 155
Width: 1200
Flags: W
HStem: -400 150<290 721.238> -20 157<465.917 747.23> 965 155<471.677 748.358> 1080 20G<831 958.5>
VStem: 148 170<308.032 789.637> 810 170<-161.824 74 189.899 910.123 1028 1100>
LayerCount: 2
Fore
SplineSet
593 -20 m 0,0,1
 422 -20 422 -20 293 121 c 0,2,3
 148 280 148 280 148 550 c 0,4,5
 148 812 148 812 294 981 c 0,6,7
 413 1120 413 1120 593 1120 c 0,8,9
 713 1120 713 1120 810 1028 c 1,10,-1
 810 1056 l 2,11,12
 810 1100 810 1100 852 1100 c 2,13,-1
 937 1100 l 2,14,15
 980 1100 980 1100 980 1056 c 2,16,-1
 980 3 l 2,17,18
 980 -187 980 -187 869 -295 c 0,19,20
 761 -400 761 -400 570 -400 c 2,21,-1
 335 -400 l 2,22,23
 290 -400 290 -400 290 -356 c 2,24,-1
 290 -294 l 2,25,26
 290 -250 290 -250 335 -250 c 2,27,-1
 570 -250 l 2,28,29
 677 -250 677 -250 743 -189 c 0,30,31
 810 -127 810 -127 810 -19 c 2,32,-1
 810 74 l 1,33,34
 715 -20 715 -20 593 -20 c 0,0,1
810 244 m 1,35,-1
 810 854 l 1,36,37
 744 965 744 965 620 965 c 0,38,39
 494 965 494 965 408 863 c 0,40,41
 318 756 318 756 318 547.5 c 128,-1,42
 318 339 318 339 411 231 c 0,43,44
 492 137 492 137 618 137 c 128,-1,45
 744 137 744 137 810 244 c 1,35,-1
EndSplineSet
Validated: 1
EndChar

StartChar: v
Encoding: 118 118 156
Width: 1200
Flags: W
HStem: 0 158<512 688> 1080 20G<118.5 250 960 1081.5>
DStem2: 605 158 104 1053 0.331754 -0.943366<-1014.12 0> 605 158 738 35 0.331754 0.943366<0 1014.03>
LayerCount: 2
Fore
SplineSet
512 0 m 2,0,1
 474 0 474 0 462 35 c 2,2,-1
 104 1053 l 2,3,4
 100 1064 100 1064 100 1074 c 0,5,6
 100 1100 100 1100 137 1100 c 2,7,-1
 231 1100 l 2,8,9
 269 1100 269 1100 281 1066 c 2,10,-1
 605 158 l 1,11,-1
 929 1066 l 2,12,13
 941 1100 941 1100 979 1100 c 2,14,-1
 1063 1100 l 2,15,16
 1100 1100 1100 1100 1100 1074 c 0,17,18
 1100 1064 1100 1064 1096 1053 c 2,19,-1
 738 35 l 2,20,21
 726 0 726 0 688 0 c 2,22,-1
 512 0 l 2,0,1
EndSplineSet
Validated: 1
EndChar

StartChar: y
Encoding: 121 121 157
Width: 1200
Flags: W
HStem: -420 150<279.11 446.77> 1080 20G<118.5 250 960 1081.5>
DStem2: 605 158 104 1053 0.331754 -0.943366<-1014.12 0> 510 -122 666 -168 0.332174 0.943218<-147.257 130.685 295.658 1311.02>
LayerCount: 2
Fore
SplineSet
512 0 m 2,0,1
 474 0 474 0 462 35 c 2,2,-1
 104 1053 l 2,3,4
 100 1064 100 1064 100 1074 c 0,5,6
 100 1100 100 1100 137 1100 c 2,7,-1
 231 1100 l 2,8,9
 269 1100 269 1100 281 1066 c 2,10,-1
 605 158 l 1,11,-1
 929 1066 l 2,12,13
 941 1100 941 1100 979 1100 c 2,14,-1
 1063 1100 l 2,15,16
 1100 1100 1100 1100 1100 1074 c 0,17,18
 1100 1064 1100 1064 1096 1053 c 2,19,-1
 666 -168 l 2,20,21
 632 -264 632 -264 574 -321 c 0,22,23
 473 -420 473 -420 329 -420 c 0,24,25
 279 -420 279 -420 279 -371 c 2,26,-1
 279 -319 l 2,27,28
 279 -270 279 -270 329 -270 c 0,29,30
 398 -270 398 -270 447 -226 c 0,31,32
 482 -194 482 -194 510 -122 c 2,33,-1
 557 0 l 1,34,-1
 512 0 l 2,0,1
EndSplineSet
Validated: 1
EndChar

StartChar: z
Encoding: 122 122 158
Width: 1200
Flags: W
HStem: 0 150<431 989.89> 950 150<250.11 768>
DStem2: 220 135 431 150 0.557986 0.829851<130.183 982.104>
LayerCount: 2
Fore
SplineSet
260 0 m 2,0,1
 210 0 210 0 210 49 c 2,2,-1
 210 101 l 2,3,4
 210 120 210 120 220 135 c 2,5,-1
 768 950 l 1,6,-1
 300 950 l 2,7,8
 250 950 250 950 250 999 c 2,9,-1
 250 1051 l 2,10,11
 250 1100 250 1100 300 1100 c 2,12,-1
 940 1100 l 2,13,14
 990 1100 990 1100 990 1051 c 2,15,-1
 990 999 l 2,16,17
 990 980 990 980 978 962 c 2,18,-1
 431 150 l 1,19,-1
 940 150 l 2,20,21
 990 150 990 150 990 101 c 2,22,-1
 990 49 l 2,23,24
 990 0 990 0 940 0 c 2,25,-1
 260 0 l 2,0,1
EndSplineSet
Validated: 1
EndChar

StartChar: n
Encoding: 110 110 159
Width: 1200
Flags: W
HStem: 0 21G<212.5 337.5 862.5 987.5> 970 150<427.7 744.37> 1080 20G<212.5 337.5>
VStem: 190 170<4.4e-07 911.216 1026 1100> 840 170<4.4e-07 872.351>
LayerCount: 2
Fore
SplineSet
235 0 m 2,0,1
 190 0 190 0 190 44 c 2,2,-1
 190 1056 l 2,3,4
 190 1100 190 1100 235 1100 c 2,5,-1
 315 1100 l 2,6,7
 360 1100 360 1100 360 1056 c 2,8,-1
 360 1026 l 1,9,10
 462 1120 462 1120 608 1120 c 0,11,12
 791 1120 791 1120 899 1015 c 0,13,14
 1010 907 1010 907 1010 717 c 2,15,-1
 1010 44 l 2,16,17
 1010 0 1010 0 965 0 c 2,18,-1
 885 0 l 2,19,20
 840 0 840 0 840 44 c 2,21,-1
 840 717 l 2,22,23
 840 831 840 831 774 900 c 0,24,25
 707 970 707 970 583 970 c 0,26,27
 430 970 430 970 360 861 c 1,28,-1
 360 44 l 2,29,30
 360 0 360 0 315 0 c 2,31,-1
 235 0 l 2,0,1
EndSplineSet
Validated: 1
EndChar

StartChar: u
Encoding: 117 117 160
Width: 1200
Flags: W
HStem: -20 150<455.63 772.3> 0 21G<862.5 987.5> 1080 20G<212.5 337.5 862.5 987.5>
VStem: 190 170<227.649 1100> 840 170<4.4e-07 74 188.784 1100>
LayerCount: 2
Fore
SplineSet
965 0 m 2,0,-1
 885 0 l 2,1,2
 840 0 840 0 840 44 c 2,3,-1
 840 74 l 1,4,5
 738 -20 738 -20 592 -20 c 0,6,7
 409 -20 409 -20 301 85 c 0,8,9
 190 193 190 193 190 383 c 2,10,-1
 190 1056 l 2,11,12
 190 1100 190 1100 235 1100 c 2,13,-1
 315 1100 l 2,14,15
 360 1100 360 1100 360 1056 c 2,16,-1
 360 383 l 2,17,18
 360 269 360 269 426 200 c 0,19,20
 493 130 493 130 617 130 c 0,21,22
 770 130 770 130 840 239 c 1,23,-1
 840 1056 l 2,24,25
 840 1100 840 1100 885 1100 c 2,26,-1
 965 1100 l 2,27,28
 1010 1100 1010 1100 1010 1056 c 2,29,-1
 1010 44 l 2,30,31
 1010 0 1010 0 965 0 c 2,0,-1
EndSplineSet
Validated: 1
EndChar

StartChar: h
Encoding: 104 104 161
Width: 1200
Flags: W
HStem: 0 21G<212.5 337.5 862.5 987.5> 970 150<427.7 744.37> 1480 20G<212.5 337.5>
VStem: 190 170<4.4e-07 911.216 1026 1500> 840 170<4.4e-07 872.351>
LayerCount: 2
Fore
SplineSet
235 0 m 2,0,1
 190 0 190 0 190 44 c 2,2,-1
 190 1456 l 2,3,4
 190 1500 190 1500 235 1500 c 2,5,-1
 315 1500 l 2,6,7
 360 1500 360 1500 360 1456 c 2,8,-1
 360 1026 l 1,9,10
 462 1120 462 1120 608 1120 c 0,11,12
 791 1120 791 1120 899 1015 c 0,13,14
 1010 907 1010 907 1010 717 c 2,15,-1
 1010 44 l 2,16,17
 1010 0 1010 0 965 0 c 2,18,-1
 885 0 l 2,19,20
 840 0 840 0 840 44 c 2,21,-1
 840 717 l 2,22,23
 840 831 840 831 774 900 c 0,24,25
 707 970 707 970 583 970 c 0,26,27
 430 970 430 970 360 861 c 1,28,-1
 360 44 l 2,29,30
 360 0 360 0 315 0 c 2,31,-1
 235 0 l 2,0,1
EndSplineSet
Validated: 1
EndChar

StartChar: m
Encoding: 109 109 162
Width: 1200
Flags: W
HStem: 0 21G<112.5 227.5 542.5 657.5 972.5 1087.5> 971 149<291.862 488.249 724.767 918.249> 1080 20G<112.5 227.5>
VStem: 90 160<4.4e-07 939.955 1026 1100> 520 160<4.4e-07 925.804> 950 160<4.4e-07 925.804>
CounterMasks: 1 1c
LayerCount: 2
Fore
SplineSet
135 0 m 2,0,1
 90 0 90 0 90 44 c 2,2,-1
 90 1056 l 2,3,4
 90 1100 90 1100 135 1100 c 2,5,-1
 205 1100 l 2,6,7
 250 1100 250 1100 250 1056 c 2,8,-1
 250 1026 l 1,9,10
 306 1120 306 1120 435 1120 c 0,11,12
 541 1120 541 1120 609 1041 c 0,13,14
 629 1018 629 1018 643 991 c 1,15,16
 732 1120 732 1120 865 1120 c 0,17,18
 971 1120 971 1120 1039 1041 c 0,19,20
 1110 959 1110 959 1110 816 c 2,21,-1
 1110 44 l 2,22,23
 1110 0 1110 0 1065 0 c 2,24,-1
 995 0 l 2,25,26
 950 0 950 0 950 44 c 2,27,-1
 950 816 l 2,28,29
 950 889 950 889 919 927 c 0,30,31
 883 971 883 971 815 971 c 0,32,33
 708 971 708 971 680 861 c 9,34,-1
 680 44 l 2,35,36
 680 0 680 0 635 0 c 2,37,-1
 565 0 l 2,38,39
 520 0 520 0 520 44 c 2,40,-1
 520 816 l 2,41,42
 520 889 520 889 489 927 c 0,43,44
 453 971 453 971 385 971 c 0,45,46
 278 971 278 971 250 861 c 1,47,-1
 250 44 l 2,48,49
 250 0 250 0 205 0 c 2,50,-1
 135 0 l 2,0,1
EndSplineSet
Validated: 1
EndChar

StartChar: r
Encoding: 114 114 163
Width: 1200
Flags: W
HStem: 0 21G<305 425> 967 153<515.088 833.611> 1080 20G<305 425>
VStem: 280 170<0.191406 906.598 1032 1099.81>
LayerCount: 2
Fore
SplineSet
330 0 m 2,0,1
 280 0 280 0 280 49 c 2,2,-1
 280 1051 l 2,3,4
 280 1100 280 1100 330 1100 c 2,5,-1
 400 1100 l 2,6,7
 450 1100 450 1100 450 1051 c 2,8,-1
 450 1032 l 1,9,10
 545 1120 545 1120 693 1120 c 0,11,12
 863 1120 863 1120 987 1014 c 0,13,14
 1001 1002 1001 1002 1001 981 c 0,15,16
 1001 962 1001 962 982 943 c 2,17,-1
 933 894 l 2,18,19
 919 880 919 880 903 880 c 0,20,21
 885 880 885 880 863 900 c 0,22,23
 791 967 791 967 670 967 c 0,24,25
 524 967 524 967 450 855 c 1,26,-1
 450 49 l 2,27,28
 450 0 450 0 400 0 c 2,29,-1
 330 0 l 2,0,1
EndSplineSet
Validated: 1
EndChar

StartChar: x
Encoding: 120 120 164
Width: 1200
Flags: W
HStem: 0 21G<158.5 284.5 915.5 1041.5> 415 270<465 735> 1080 20G<158.5 284.5 915.5 1041.5>
VStem: 504 192<454 646>
DStem2: 600 685 145 1051 0.58207 -0.813139<-542.387 0 219.547 761.934> 145 49 327 34 0.58207 0.813139<20.0639 562.451 781.998 1324.38>
LayerCount: 2
Fore
SplineSet
177 0 m 2,0,1
 140 0 140 0 140 30 c 0,2,3
 140 42 140 42 145 49 c 2,4,-1
 504 550 l 1,5,-1
 145 1051 l 2,6,7
 140 1058 140 1058 140 1070 c 0,8,9
 140 1100 140 1100 177 1100 c 2,10,-1
 266 1100 l 2,11,12
 303 1100 303 1100 327 1066 c 2,13,-1
 600 685 l 1,14,-1
 873 1066 l 2,15,16
 897 1100 897 1100 934 1100 c 2,17,-1
 1023 1100 l 2,18,19
 1060 1100 1060 1100 1060 1070 c 0,20,21
 1060 1058 1060 1058 1055 1051 c 2,22,-1
 696 550 l 1,23,-1
 1055 49 l 2,24,25
 1060 42 1060 42 1060 30 c 0,26,27
 1060 0 1060 0 1023 0 c 2,28,-1
 934 0 l 2,29,30
 897 0 897 0 873 34 c 2,31,-1
 600 415 l 1,32,-1
 327 34 l 2,33,34
 303 0 303 0 266 0 c 2,35,-1
 177 0 l 2,0,1
EndSplineSet
Validated: 1
EndChar

StartChar: k
Encoding: 107 107 165
Width: 1200
Flags: W
HStem: 0 21G<272.5 397.5 862 1014> 1080 20G<874 1003> 1480 20G<272.5 397.5>
VStem: 250 170<4.4e-07 307 546 1500>
DStem2: 420 546 562 486 0.620326 0.784344<0 41.0256 231.876 741.123> 680 636 562 486 0.503328 -0.864095<70.2216 658.095>
LayerCount: 2
Fore
SplineSet
295 0 m 2,0,1
 250 0 250 0 250 44 c 2,2,-1
 250 1456 l 2,3,4
 250 1500 250 1500 295 1500 c 2,5,-1
 375 1500 l 2,6,7
 420 1500 420 1500 420 1456 c 2,8,-1
 420 546 l 1,9,-1
 833 1068 l 2,10,11
 858 1100 858 1100 890 1100 c 2,12,-1
 987 1100 l 2,13,14
 1019 1100 1019 1100 1019 1075 c 0,15,16
 1019 1064 1019 1064 1010 1053 c 2,17,-1
 680 636 l 1,18,-1
 1026 42 l 2,19,20
 1030 34 1030 34 1030 25 c 0,21,22
 1030 0 1030 0 998 0 c 2,23,-1
 881 0 l 2,24,25
 843 0 843 0 824 31 c 2,26,-1
 562 486 l 1,27,-1
 420 307 l 1,28,-1
 420 44 l 2,29,30
 420 0 420 0 375 0 c 2,31,-1
 295 0 l 2,0,1
EndSplineSet
Validated: 1
EndChar

StartChar: w
Encoding: 119 119 166
Width: 1200
Flags: W
HStem: 0 21G<221 420.5 779.5 979> 1080 20G<37 148 1052 1163>
DStem2: 181 1066 22 1051 0.16727 -0.985911<-31.6126 877.05> 320 200 450 49 0.210721 0.977546<0 676.6> 709 983 599 832 0.213362 -0.976973<124.053 801.455> 880 200 1008 49 0.16727 0.985911<0 908.662>
LayerCount: 2
Fore
SplineSet
242 0 m 2,0,1
 200 0 200 0 192 49 c 2,2,-1
 22 1051 l 2,3,4
 20 1063 20 1063 20 1071 c 0,5,6
 20 1100 20 1100 54 1100 c 2,7,-1
 120 1100 l 2,8,9
 176 1100 176 1100 181 1066 c 2,10,-1
 320 200 l 17,11,-1
 489 984 l 2,12,13
 499 1032 499 1032 540 1032 c 2,14,-1
 659 1032 l 2,15,16
 698 1032 698 1032 709 983 c 2,17,-1
 880 200 l 9,18,-1
 1019 1066 l 2,19,20
 1024 1100 1024 1100 1080 1100 c 2,21,-1
 1146 1100 l 2,22,23
 1180 1100 1180 1100 1180 1071 c 0,24,25
 1180 1063 1180 1063 1178 1051 c 2,26,-1
 1008 49 l 2,27,28
 1000 0 1000 0 958 0 c 2,29,-1
 800 0 l 2,30,31
 759 0 759 0 750 49 c 2,32,-1
 599 832 l 1,33,-1
 450 49 l 2,34,35
 441 0 441 0 400 0 c 2,36,-1
 242 0 l 2,0,1
EndSplineSet
Validated: 1
EndChar

StartChar: Oslash
Encoding: 216 216 167
Width: 1200
Flags: W
HStem: -20 160<461.545 737.5> 1360 160<462.25 739.828>
VStem: 82 183<427.799 1071.54> 939 179<436.701 1062.61>
DStem2: 191 -3 282 -45 0.422854 0.906198<-9.73801 129.701 368.635 1345.68 1582.38 1729.43>
LayerCount: 2
Fore
SplineSet
600 140 m 0,0,1
 751 140 751 140 843 311 c 0,2,3
 938 488 938 488 939 750 c 0,4,5
 939 996 939 996 851 1174 c 1,6,-1
 411 231 l 1,7,8
 489 140 489 140 600 140 c 0,0,1
600 -20 m 0,9,10
 449 -20 449 -20 337 72 c 1,11,-1
 282 -45 l 2,12,13
 276 -58 276 -58 266 -58 c 0,14,15
 261 -58 261 -58 255 -55 c 2,16,-1
 201 -29 l 2,17,18
 189 -23 189 -23 189 -13 c 0,19,20
 189 -7 189 -7 191 -3 c 2,21,-1
 262 149 l 1,22,23
 241 175 241 175 222 206 c 0,24,25
 82 430 82 430 82 750 c 128,-1,26
 82 1070 82 1070 222 1294 c 0,27,28
 363 1520 363 1520 600 1520 c 0,29,30
 749 1520 749 1520 860 1431 c 1,31,-1
 918 1555 l 2,32,33
 924 1568 924 1568 934 1568 c 0,34,35
 939 1568 939 1568 945 1565 c 2,36,-1
 999 1539 l 2,37,38
 1011 1533 1011 1533 1011 1523 c 0,39,40
 1011 1517 1011 1517 1009 1513 c 2,41,-1
 935 1355 l 1,42,43
 957 1327 957 1327 978 1294 c 0,44,45
 1118 1070 1118 1070 1118 750 c 128,-1,46
 1118 430 1118 430 978 206 c 0,47,48
 837 -20 837 -20 600 -20 c 0,9,10
786 1273 m 1,49,50
 709 1360 709 1360 600 1360 c 0,51,52
 448 1360 448 1360 357 1189 c 0,53,54
 265 1016 265 1016 265 750 c 0,55,56
 265 501 265 501 347 331 c 1,57,-1
 786 1273 l 1,49,50
EndSplineSet
Validated: 1
EndChar

StartChar: oslash
Encoding: 248 248 168
Width: 1200
Flags: W
HStem: -20 155<479.02 735.611> 965 155<463.057 720.91>
VStem: 144 173<309.893 793.988> 881 175<303.47 793.146>
DStem2: 325 80 368 -65 0.422927 0.906164<-123.401 -15.5707 178.035 907.698 1098.38 1207.8>
LayerCount: 2
Fore
SplineSet
601 -20 m 0,0,1
 493 -20 493 -20 409 22 c 1,2,-1
 368 -65 l 2,3,4
 363 -77 363 -77 352 -77 c 0,5,6
 349 -77 349 -77 342 -74 c 2,7,-1
 287 -49 l 2,8,9
 275 -44 275 -44 275 -33 c 0,10,11
 275 -28 275 -28 278 -22 c 2,12,-1
 325 80 l 1,13,14
 305 98 305 98 287 119 c 0,15,16
 144 288 144 288 144 550 c 0,17,18
 144 821 144 821 286 979 c 0,19,20
 413 1120 413 1120 600 1120 c 0,21,22
 705 1120 705 1120 790 1076 c 1,23,-1
 832 1165 l 2,24,25
 838 1177 838 1177 848 1177 c 0,26,27
 851 1177 851 1177 858 1174 c 2,28,-1
 913 1149 l 2,29,30
 925 1144 925 1144 925 1133 c 0,31,32
 925 1128 925 1128 922 1122 c 2,33,-1
 874 1019 l 1,34,35
 895 1001 895 1001 914 979 c 0,36,37
 1056 820 1056 820 1056 550 c 0,38,39
 1056 286 1056 286 913 119 c 0,40,41
 796 -20 796 -20 601 -20 c 0,0,1
600 135 m 0,42,43
 712 135 712 135 796 237 c 0,44,45
 881 340 881 340 881 550 c 0,46,47
 881 747 881 747 800 860 c 1,48,-1
 478 171 l 1,49,50
 534 135 534 135 600 135 c 0,42,43
401 241 m 1,51,-1
 723 932 l 1,52,53
 668 965 668 965 600 965 c 0,54,55
 487 965 487 965 407 869 c 0,56,57
 317 759 317 759 317 553 c 128,-1,58
 317 347 317 347 401 241 c 1,51,-1
EndSplineSet
Validated: 1
EndChar

StartChar: Thorn
Encoding: 222 222 169
Width: 1200
Flags: W
HStem: 0 21G<225 355> 269 160<380 744.638> 1071 160<380 744.401> 1480 20G<225 355>
VStem: 200 180<0.191406 269 429 1071 1231 1499.81> 878 190<571.661 929.255>
LayerCount: 2
Fore
SplineSet
250 0 m 2,0,1
 200 0 200 0 200 49 c 2,2,-1
 200 1451 l 2,3,4
 200 1500 200 1500 250 1500 c 2,5,-1
 330 1500 l 2,6,7
 380 1500 380 1500 380 1451 c 2,8,-1
 380 1231 l 9,9,-1
 583 1231 l 2,10,11
 806 1231 806 1231 945 1082 c 0,12,13
 1068 950 1068 950 1068 750 c 128,-1,14
 1068 550 1068 550 945 418 c 0,15,16
 807 269 807 269 583 269 c 2,17,-1
 380 269 l 1,18,-1
 380 49 l 2,19,20
 380 0 380 0 330 0 c 2,21,-1
 250 0 l 2,0,1
380 1071 m 1,22,-1
 380 429 l 1,23,-1
 603 429 l 2,24,25
 727 429 727 429 809 534 c 0,26,27
 878 621 878 621 878 751 c 0,28,29
 878 875 878 875 810 966 c 0,30,31
 732 1071 732 1071 603 1071 c 2,32,-1
 380 1071 l 1,22,-1
EndSplineSet
Validated: 1
EndChar

StartChar: thorn
Encoding: 254 254 170
Width: 1200
Flags: W
HStem: -400 21G<241.5 369> -20 157<452.77 734.083> 965 155<451.642 728.323> 1480 20G<241.5 369>
VStem: 220 170<-400 74 189.899 910.123 1028 1500> 882 170<308.032 789.637>
LayerCount: 2
Fore
SplineSet
607 -20 m 0,0,1
 485 -20 485 -20 390 74 c 1,2,-1
 390 -356 l 2,3,4
 390 -400 390 -400 348 -400 c 2,5,-1
 263 -400 l 2,6,7
 220 -400 220 -400 220 -356 c 2,8,-1
 220 1456 l 2,9,10
 220 1500 220 1500 263 1500 c 2,11,-1
 348 1500 l 2,12,13
 390 1500 390 1500 390 1456 c 2,14,-1
 390 1028 l 1,15,16
 487 1120 487 1120 607 1120 c 0,17,18
 787 1120 787 1120 906 981 c 0,19,20
 1052 812 1052 812 1052 550 c 0,21,22
 1052 280 1052 280 907 121 c 0,23,24
 778 -20 778 -20 607 -20 c 0,0,1
390 244 m 1,25,26
 456 137 456 137 582 137 c 128,-1,27
 708 137 708 137 789 231 c 0,28,29
 882 339 882 339 882 547.5 c 128,-1,30
 882 756 882 756 792 863 c 0,31,32
 706 965 706 965 580 965 c 0,33,34
 456 965 456 965 390 854 c 1,35,-1
 390 244 l 1,25,26
EndSplineSet
Validated: 1
EndChar

StartChar: uni203D
Encoding: 8253 8253 171
Width: 1200
Flags: W
HStem: -20 264<414.253 599.777> 1360 160<360.504 702.532>
VStem: 373 268<19.2227 205.323> 421 180<418.284 562.578 723 1124.81> 839 181<890.185 1226.94>
LayerCount: 2
Fore
SplineSet
535 1520 m 0,0,1
 767 1520 767 1520 898 1378 c 0,2,3
 1020 1246 1020 1246 1020 1070 c 0,4,5
 1020 762 1020 762 697 600 c 0,6,7
 601 552 601 552 601 449 c 0,8,9
 601 427 601 427 589 418 c 0,10,11
 580 410 580 410 561 410 c 2,12,-1
 461 410 l 2,13,14
 442 410 442 410 433 418 c 0,15,16
 421 427 421 427 421 449 c 2,17,-1
 421 1076 l 2,18,19
 421 1125 421 1125 471 1125 c 2,20,-1
 551 1125 l 2,21,22
 601 1125 601 1125 601 1076 c 2,23,-1
 601 723 l 1,24,25
 611 729 611 729 622 734 c 0,26,27
 839 842 839 842 839 1072 c 0,28,29
 839 1177 839 1177 776 1253 c 0,30,31
 688 1360 688 1360 534 1360 c 128,-1,32
 380 1360 380 1360 291 1256 c 0,33,34
 275 1237 275 1237 263 1237 c 0,35,36
 250 1237 250 1237 235 1248 c 2,37,-1
 158 1305 l 2,38,39
 140 1318 140 1318 140 1332 c 128,-1,40
 140 1346 140 1346 152 1361 c 0,41,42
 279 1520 279 1520 535 1520 c 0,0,1
507 -20 m 0,43,44
 450 -20 450 -20 413 16 c 0,45,46
 373 55 373 55 373 112 c 128,-1,47
 373 169 373 169 413 206.5 c 128,-1,48
 453 244 453 244 507 244 c 0,49,50
 566 244 566 244 601 208 c 0,51,52
 641 167 641 167 641 112 c 128,-1,53
 641 57 641 57 601 18 c 0,54,55
 562 -20 562 -20 507 -20 c 0,43,44
EndSplineSet
Validated: 1
EndChar

StartChar: uni1E02
Encoding: 7682 7682 172
Width: 1200
Flags: W
HStem: 0 160<370 745.971> 746 160<370 709> 1340 160<370 710.441> 1630 245<501.097 668.903>
VStem: 200 170<160 746 906 1340> 465 240<1667.13 1837.87> 790 179<984.872 1262.2> 880 180<289.409 615.646>
LayerCount: 2
Fore
SplineSet
585 1875 m 128,-1,1
 635 1875 635 1875 670 1839 c 128,-1,2
 705 1803 705 1803 705 1752.5 c 128,-1,3
 705 1702 705 1702 670 1666 c 128,-1,4
 635 1630 635 1630 585 1630 c 128,-1,5
 535 1630 535 1630 500 1666 c 128,-1,6
 465 1702 465 1702 465 1752.5 c 128,-1,7
 465 1803 465 1803 500 1839 c 128,-1,0
 535 1875 535 1875 585 1875 c 128,-1,1
565 906 m 2,8,9
 661 906 661 906 722 959 c 0,10,11
 790 1019 790 1019 790 1123 c 128,-1,12
 790 1227 790 1227 722 1287 c 0,13,14
 661 1340 661 1340 565 1340 c 2,15,-1
 370 1340 l 1,16,-1
 370 906 l 1,17,-1
 565 906 l 2,8,9
565 160 m 2,18,19
 726 160 726 160 812 258 c 0,20,21
 880 334 880 334 880 451.5 c 128,-1,22
 880 569 880 569 813 647 c 0,23,24
 729 746 729 746 565 746 c 2,25,-1
 370 746 l 1,26,-1
 370 160 l 1,27,-1
 565 160 l 2,18,19
240 0 m 2,28,29
 221 0 221 0 212 8 c 0,30,31
 200 17 200 17 200 39 c 2,32,-1
 200 1461 l 2,33,34
 200 1483 200 1483 212 1492 c 0,35,36
 221 1500 221 1500 240 1500 c 2,37,-1
 565 1500 l 2,38,39
 727 1500 727 1500 840 1410 c 0,40,41
 969 1307 969 1307 969 1142 c 0,42,43
 969 972 969 972 807 842 c 1,44,45
 876 814 876 814 919 777 c 0,46,47
 1060 656 1060 656 1060 453 c 0,48,49
 1060 258 1060 258 935 134 c 0,50,51
 801 0 801 0 565 0 c 2,52,-1
 240 0 l 2,28,29
EndSplineSet
Validated: 1
EndChar

StartChar: uni1E03
Encoding: 7683 7683 173
Width: 1200
Flags: W
HStem: -20 155<451.642 728.323> 0 21G<241.5 369> 963 157<452.77 734.083> 1220 245<556.097 723.903> 1480 20G<241.5 369>
VStem: 220 170<0 72 189.877 910.101 1026 1500> 520 240<1257.13 1427.87> 882 170<310.363 791.968>
LayerCount: 2
Fore
SplineSet
640 1465 m 128,-1,1
 690 1465 690 1465 725 1429 c 128,-1,2
 760 1393 760 1393 760 1342.5 c 128,-1,3
 760 1292 760 1292 725 1256 c 128,-1,4
 690 1220 690 1220 640 1220 c 128,-1,5
 590 1220 590 1220 555 1256 c 128,-1,6
 520 1292 520 1292 520 1342.5 c 128,-1,7
 520 1393 520 1393 555 1429 c 128,-1,0
 590 1465 590 1465 640 1465 c 128,-1,1
263 0 m 2,8,9
 220 0 220 0 220 44 c 2,10,-1
 220 1456 l 2,11,12
 220 1500 220 1500 263 1500 c 2,13,-1
 348 1500 l 2,14,15
 390 1500 390 1500 390 1456 c 2,16,-1
 390 1026 l 1,17,18
 485 1120 485 1120 607 1120 c 0,19,20
 778 1120 778 1120 907 979 c 0,21,22
 1052 820 1052 820 1052 550 c 0,23,24
 1052 288 1052 288 906 119 c 0,25,26
 787 -20 787 -20 607 -20 c 0,27,28
 487 -20 487 -20 390 72 c 1,29,-1
 390 44 l 2,30,31
 390 0 390 0 348 0 c 2,32,-1
 263 0 l 2,8,9
390 856 m 1,33,-1
 390 246 l 1,34,35
 456 135 456 135 580 135 c 0,36,37
 706 135 706 135 792 237 c 0,38,39
 882 344 882 344 882 552.5 c 128,-1,40
 882 761 882 761 789 869 c 0,41,42
 708 963 708 963 582 963 c 128,-1,43
 456 963 456 963 390 856 c 1,33,-1
EndSplineSet
Validated: 1
EndChar

StartChar: uni1E0A
Encoding: 7690 7690 174
Width: 1200
Flags: W
HStem: 0 160<330 710.117> 1340 160<330 710.117> 1630 245<461.097 628.903>
VStem: 150 180<160 1340> 425 240<1667.13 1837.87> 910 179<436.125 1058.83>
LayerCount: 2
Fore
SplineSet
545 1875 m 128,-1,1
 595 1875 595 1875 630 1839 c 128,-1,2
 665 1803 665 1803 665 1752.5 c 128,-1,3
 665 1702 665 1702 630 1666 c 128,-1,4
 595 1630 595 1630 545 1630 c 128,-1,5
 495 1630 495 1630 460 1666 c 128,-1,6
 425 1702 425 1702 425 1752.5 c 128,-1,7
 425 1803 425 1803 460 1839 c 128,-1,0
 495 1875 495 1875 545 1875 c 128,-1,1
200 0 m 2,8,9
 150 0 150 0 150 49 c 2,10,-1
 150 1451 l 2,11,12
 150 1500 150 1500 200 1500 c 2,13,-1
 540 1500 l 2,14,15
 824 1500 824 1500 957 1274 c 0,16,17
 1089 1050 1089 1050 1089 750 c 128,-1,18
 1089 450 1089 450 957 226 c 0,19,20
 824 0 824 0 540 0 c 2,21,-1
 200 0 l 2,8,9
330 160 m 1,22,-1
 540 160 l 2,23,24
 739 160 739 160 823 331 c 0,25,26
 910 508 910 508 910 750 c 0,27,28
 910 987 910 987 823 1169 c 0,29,30
 741 1340 741 1340 540 1340 c 2,31,-1
 330 1340 l 1,32,-1
 330 160 l 1,22,-1
EndSplineSet
Validated: 1
EndChar

StartChar: uni1E0B
Encoding: 7691 7691 175
Width: 1200
Flags: W
HStem: -20 155<471.677 748.358> 0 21G<831 958.5> 963 157<465.917 747.23> 1220 245<476.097 643.903> 1480 20G<831 958.5>
VStem: 148 170<310.363 791.968> 440 240<1257.13 1427.87> 810 170<0 72 189.877 910.101 1026 1500>
LayerCount: 2
Fore
SplineSet
560 1465 m 128,-1,1
 610 1465 610 1465 645 1429 c 128,-1,2
 680 1393 680 1393 680 1342.5 c 128,-1,3
 680 1292 680 1292 645 1256 c 128,-1,4
 610 1220 610 1220 560 1220 c 128,-1,5
 510 1220 510 1220 475 1256 c 128,-1,6
 440 1292 440 1292 440 1342.5 c 128,-1,7
 440 1393 440 1393 475 1429 c 128,-1,0
 510 1465 510 1465 560 1465 c 128,-1,1
852 0 m 2,8,9
 810 0 810 0 810 44 c 2,10,-1
 810 72 l 1,11,12
 713 -20 713 -20 593 -20 c 0,13,14
 413 -20 413 -20 294 119 c 0,15,16
 148 288 148 288 148 550 c 0,17,18
 148 820 148 820 293 979 c 0,19,20
 422 1120 422 1120 593 1120 c 0,21,22
 715 1120 715 1120 810 1026 c 1,23,-1
 810 1456 l 2,24,25
 810 1500 810 1500 852 1500 c 2,26,-1
 937 1500 l 2,27,28
 980 1500 980 1500 980 1456 c 2,29,-1
 980 44 l 2,30,31
 980 0 980 0 937 0 c 2,32,-1
 852 0 l 2,8,9
810 856 m 1,33,34
 744 963 744 963 618 963 c 128,-1,35
 492 963 492 963 411 869 c 0,36,37
 318 761 318 761 318 552.5 c 128,-1,38
 318 344 318 344 408 237 c 0,39,40
 494 135 494 135 620 135 c 0,41,42
 744 135 744 135 810 246 c 1,43,-1
 810 856 l 1,33,34
EndSplineSet
Validated: 1
EndChar

StartChar: uni1E1E
Encoding: 7710 7710 176
Width: 1200
Flags: W
HStem: 0 21G<265 395> 675 160<420 851.89> 1340 160<420 1017.89> 1630 245<551.097 718.903>
VStem: 240 180<0.191406 675 835 1340> 515 240<1667.13 1837.87>
LayerCount: 2
Fore
SplineSet
635 1875 m 128,-1,1
 685 1875 685 1875 720 1839 c 128,-1,2
 755 1803 755 1803 755 1752.5 c 128,-1,3
 755 1702 755 1702 720 1666 c 128,-1,4
 685 1630 685 1630 635 1630 c 128,-1,5
 585 1630 585 1630 550 1666 c 128,-1,6
 515 1702 515 1702 515 1752.5 c 128,-1,7
 515 1803 515 1803 550 1839 c 128,-1,0
 585 1875 585 1875 635 1875 c 128,-1,1
370 0 m 2,8,-1
 290 0 l 2,9,10
 240 0 240 0 240 49 c 2,11,-1
 240 1451 l 2,12,13
 240 1500 240 1500 290 1500 c 2,14,-1
 968 1500 l 2,15,16
 1018 1500 1018 1500 1018 1451 c 2,17,-1
 1018 1389 l 2,18,19
 1018 1340 1018 1340 968 1340 c 2,20,-1
 420 1340 l 1,21,-1
 420 835 l 1,22,-1
 802 835 l 2,23,24
 852 835 852 835 852 786 c 2,25,-1
 852 724 l 2,26,27
 852 675 852 675 802 675 c 2,28,-1
 420 675 l 1,29,-1
 420 49 l 2,30,31
 420 0 420 0 370 0 c 2,8,-1
EndSplineSet
Validated: 1
EndChar

StartChar: uni1E1F
Encoding: 7711 7711 177
Width: 1200
Flags: W
HStem: 0 21G<479 599> 740 150<130.11 454 624 957.89> 1350 150<721.106 1023.89> 1630 245<621.097 788.903>
VStem: 454 170<0.191406 740 890 1253.98> 585 240<1667.13 1837.87>
LayerCount: 2
Fore
SplineSet
504 0 m 2,0,1
 454 0 454 0 454 49 c 2,2,-1
 454 740 l 1,3,-1
 180 740 l 2,4,5
 130 740 130 740 130 789 c 2,6,-1
 130 841 l 2,7,8
 130 890 130 890 180 890 c 2,9,-1
 454 890 l 1,10,-1
 454 1092 l 2,11,12
 454 1284 454 1284 567 1394 c 0,13,14
 676 1500 676 1500 869 1500 c 2,15,-1
 974 1500 l 2,16,17
 1024 1500 1024 1500 1024 1451 c 2,18,-1
 1024 1399 l 2,19,20
 1024 1350 1024 1350 974 1350 c 2,21,-1
 869 1350 l 2,22,23
 764 1350 764 1350 694 1285 c 128,-1,24
 624 1220 624 1220 624 1114 c 2,25,-1
 624 890 l 1,26,-1
 908 890 l 2,27,28
 958 890 958 890 958 841 c 2,29,-1
 958 789 l 2,30,31
 958 740 958 740 908 740 c 2,32,-1
 624 740 l 1,33,-1
 624 49 l 2,34,35
 624 0 624 0 574 0 c 2,36,-1
 504 0 l 2,0,1
705 1875 m 128,-1,38
 755 1875 755 1875 790 1839 c 128,-1,39
 825 1803 825 1803 825 1752.5 c 128,-1,40
 825 1702 825 1702 790 1666 c 128,-1,41
 755 1630 755 1630 705 1630 c 128,-1,42
 655 1630 655 1630 620 1666 c 128,-1,43
 585 1702 585 1702 585 1752.5 c 128,-1,44
 585 1803 585 1803 620 1839 c 128,-1,37
 655 1875 655 1875 705 1875 c 128,-1,38
EndSplineSet
Validated: 1
EndChar

StartChar: uni1E40
Encoding: 7744 7744 178
Width: 1200
Flags: W
HStem: 0 21G<145 265 935 1055> 1480 20G<145 348 852 1055> 1630 245<516.097 683.903>
VStem: 120 170<0.191406 1220> 480 240<1667.13 1837.87> 910 170<0.191406 1220>
DStem2: 380 1451 290 1220 0.269356 -0.963041<198.22 813.05> 599 668 709 517 0.271635 0.9624<0 615.724>
CounterMasks: 1 1c
LayerCount: 2
Fore
SplineSet
170 0 m 2,0,1
 120 0 120 0 120 49 c 2,2,-1
 120 1451 l 2,3,4
 120 1500 120 1500 170 1500 c 2,5,-1
 330 1500 l 2,6,7
 366 1500 366 1500 380 1451 c 2,8,-1
 599 668 l 1,9,-1
 820 1451 l 2,10,11
 834 1500 834 1500 870 1500 c 2,12,-1
 1030 1500 l 2,13,14
 1080 1500 1080 1500 1080 1451 c 2,15,-1
 1080 49 l 2,16,17
 1080 0 1080 0 1030 0 c 2,18,-1
 960 0 l 2,19,20
 910 0 910 0 910 49 c 2,21,-1
 910 1220 l 1,22,-1
 709 517 l 2,23,24
 695 468 695 468 659 468 c 2,25,-1
 539 468 l 2,26,27
 503 468 503 468 489 516 c 2,28,-1
 290 1220 l 1,29,-1
 290 49 l 2,30,31
 290 0 290 0 240 0 c 2,32,-1
 170 0 l 2,0,1
600 1875 m 128,-1,34
 650 1875 650 1875 685 1839 c 128,-1,35
 720 1803 720 1803 720 1752.5 c 128,-1,36
 720 1702 720 1702 685 1666 c 128,-1,37
 650 1630 650 1630 600 1630 c 128,-1,38
 550 1630 550 1630 515 1666 c 128,-1,39
 480 1702 480 1702 480 1752.5 c 128,-1,40
 480 1803 480 1803 515 1839 c 128,-1,33
 550 1875 550 1875 600 1875 c 128,-1,34
EndSplineSet
Validated: 1
EndChar

StartChar: uni1E41
Encoding: 7745 7745 179
Width: 1200
Flags: W
HStem: 0 21G<112.5 227.5 542.5 657.5 972.5 1087.5> 971 149<291.862 488.249 724.767 918.249> 1080 20G<112.5 227.5> 1220 245<516.097 683.903>
VStem: 90 160<4.4e-07 939.955 1026 1100> 480 240<1257.13 1427.87> 520 160<4.4e-07 925.804> 950 160<4.4e-07 925.804>
LayerCount: 2
Fore
SplineSet
135 0 m 2,0,1
 90 0 90 0 90 44 c 2,2,-1
 90 1056 l 2,3,4
 90 1100 90 1100 135 1100 c 2,5,-1
 205 1100 l 2,6,7
 250 1100 250 1100 250 1056 c 2,8,-1
 250 1026 l 1,9,10
 306 1120 306 1120 435 1120 c 0,11,12
 541 1120 541 1120 609 1041 c 0,13,14
 629 1018 629 1018 643 991 c 1,15,16
 732 1120 732 1120 865 1120 c 0,17,18
 971 1120 971 1120 1039 1041 c 0,19,20
 1110 959 1110 959 1110 816 c 2,21,-1
 1110 44 l 2,22,23
 1110 0 1110 0 1065 0 c 2,24,-1
 995 0 l 2,25,26
 950 0 950 0 950 44 c 2,27,-1
 950 816 l 2,28,29
 950 889 950 889 919 927 c 0,30,31
 883 971 883 971 815 971 c 0,32,33
 708 971 708 971 680 861 c 9,34,-1
 680 44 l 2,35,36
 680 0 680 0 635 0 c 2,37,-1
 565 0 l 2,38,39
 520 0 520 0 520 44 c 2,40,-1
 520 816 l 2,41,42
 520 889 520 889 489 927 c 0,43,44
 453 971 453 971 385 971 c 0,45,46
 278 971 278 971 250 861 c 1,47,-1
 250 44 l 2,48,49
 250 0 250 0 205 0 c 2,50,-1
 135 0 l 2,0,1
600 1465 m 128,-1,52
 650 1465 650 1465 685 1429 c 128,-1,53
 720 1393 720 1393 720 1342.5 c 128,-1,54
 720 1292 720 1292 685 1256 c 128,-1,55
 650 1220 650 1220 600 1220 c 128,-1,56
 550 1220 550 1220 515 1256 c 128,-1,57
 480 1292 480 1292 480 1342.5 c 128,-1,58
 480 1393 480 1393 515 1429 c 128,-1,51
 550 1465 550 1465 600 1465 c 128,-1,52
EndSplineSet
Validated: 1
EndChar

StartChar: uni1E56
Encoding: 7766 7766 180
Width: 1200
Flags: W
HStem: 0 21G<225 355> 538 160<380 744.638> 1340 160<380 744.877> 1630 245<481.097 648.903>
VStem: 200 180<0.191406 538 698 1340> 445 240<1667.13 1837.87> 878 190<840.661 1198.26>
LayerCount: 2
Fore
SplineSet
565 1875 m 128,-1,1
 615 1875 615 1875 650 1839 c 128,-1,2
 685 1803 685 1803 685 1752.5 c 128,-1,3
 685 1702 685 1702 650 1666 c 128,-1,4
 615 1630 615 1630 565 1630 c 128,-1,5
 515 1630 515 1630 480 1666 c 128,-1,6
 445 1702 445 1702 445 1752.5 c 128,-1,7
 445 1803 445 1803 480 1839 c 128,-1,0
 515 1875 515 1875 565 1875 c 128,-1,1
330 0 m 2,8,-1
 250 0 l 2,9,10
 200 0 200 0 200 49 c 2,11,-1
 200 1451 l 2,12,13
 200 1500 200 1500 250 1500 c 2,14,-1
 583 1500 l 2,15,16
 807 1500 807 1500 945 1351 c 0,17,18
 1068 1219 1068 1219 1068 1019 c 128,-1,19
 1068 819 1068 819 945 687 c 0,20,21
 807 538 807 538 583 538 c 2,22,-1
 380 538 l 1,23,-1
 380 49 l 2,24,25
 380 0 380 0 330 0 c 2,8,-1
380 1340 m 1,26,-1
 380 698 l 1,27,-1
 603 698 l 2,28,29
 727 698 727 698 809 803 c 0,30,31
 878 890 878 890 878 1020 c 0,32,33
 878 1144 878 1144 810 1235 c 0,34,35
 732 1340 732 1340 603 1340 c 2,36,-1
 380 1340 l 1,26,-1
EndSplineSet
Validated: 1
EndChar

StartChar: uni1E57
Encoding: 7767 7767 181
Width: 1200
Flags: W
HStem: -400 21G<241.5 369> -20 157<452.77 734.083> 965 155<451.642 728.323> 1080 20G<241.5 369> 1220 245<516.097 683.903>
VStem: 220 170<-400 74 189.899 910.123 1028 1100> 480 240<1257.13 1427.87> 882 170<308.032 789.637>
LayerCount: 2
Fore
SplineSet
600 1465 m 128,-1,1
 650 1465 650 1465 685 1429 c 128,-1,2
 720 1393 720 1393 720 1342.5 c 128,-1,3
 720 1292 720 1292 685 1256 c 128,-1,4
 650 1220 650 1220 600 1220 c 128,-1,5
 550 1220 550 1220 515 1256 c 128,-1,6
 480 1292 480 1292 480 1342.5 c 128,-1,7
 480 1393 480 1393 515 1429 c 128,-1,0
 550 1465 550 1465 600 1465 c 128,-1,1
607 -20 m 0,8,9
 485 -20 485 -20 390 74 c 1,10,-1
 390 -356 l 2,11,12
 390 -400 390 -400 348 -400 c 2,13,-1
 263 -400 l 2,14,15
 220 -400 220 -400 220 -356 c 2,16,-1
 220 1056 l 2,17,18
 220 1100 220 1100 263 1100 c 2,19,-1
 348 1100 l 2,20,21
 390 1100 390 1100 390 1056 c 2,22,-1
 390 1028 l 1,23,24
 487 1120 487 1120 607 1120 c 0,25,26
 787 1120 787 1120 906 981 c 0,27,28
 1052 812 1052 812 1052 550 c 0,29,30
 1052 280 1052 280 907 121 c 0,31,32
 778 -20 778 -20 607 -20 c 0,8,9
390 244 m 1,33,34
 456 137 456 137 582 137 c 128,-1,35
 708 137 708 137 789 231 c 0,36,37
 882 339 882 339 882 547.5 c 128,-1,38
 882 756 882 756 792 863 c 0,39,40
 706 965 706 965 580 965 c 0,41,42
 456 965 456 965 390 854 c 1,43,-1
 390 244 l 1,33,34
EndSplineSet
Validated: 1
EndChar

StartChar: uni1E60
Encoding: 7776 7776 182
Width: 1200
Flags: W
HStem: -20 160<383.885 703.666> 1360 160<470.884 720.215> 1630 245<521.097 688.903>
VStem: 247 173<1057.19 1307.1> 485 240<1667.13 1837.87> 855 185<293.672 594.513>
DStem2: 595 954 487 811 0.884918 -0.465746<-187.471 360.791>
LayerCount: 2
Fore
SplineSet
605 1875 m 128,-1,1
 655 1875 655 1875 690 1839 c 128,-1,2
 725 1803 725 1803 725 1752.5 c 128,-1,3
 725 1702 725 1702 690 1666 c 128,-1,4
 655 1630 655 1630 605 1630 c 128,-1,5
 555 1630 555 1630 520 1666 c 128,-1,6
 485 1702 485 1702 485 1752.5 c 128,-1,7
 485 1803 485 1803 520 1839 c 128,-1,0
 555 1875 555 1875 605 1875 c 128,-1,1
538 -20 m 0,8,9
 306 -20 306 -20 130 191 c 0,10,11
 120 203 120 203 120 218 c 128,-1,12
 120 233 120 233 138 248 c 2,13,-1
 213 307 l 2,14,15
 225 317 225 317 238 317 c 0,16,17
 255 317 255 317 268 298 c 0,18,19
 376 140 376 140 545 140 c 0,20,21
 679 140 679 140 765 236 c 0,22,23
 855 329 855 329 855 448 c 0,24,25
 855 619 855 619 661 719 c 2,26,-1
 487 811 l 2,27,28
 247 931 247 931 247 1157 c 0,29,30
 247 1336 247 1336 380 1447 c 0,31,32
 461 1520 461 1520 597 1520 c 0,33,34
 780 1519 780 1519 899 1379 c 0,35,36
 910 1366 910 1366 910 1351 c 128,-1,37
 910 1336 910 1336 892 1322 c 2,38,-1
 815 1265 l 2,39,40
 801 1254 801 1254 788 1254 c 0,41,42
 777 1254 777 1254 762 1273 c 0,43,44
 691 1360 691 1360 596 1360 c 0,45,46
 512 1360 512 1360 466 1310.5 c 128,-1,47
 420 1261 420 1261 420 1184 c 0,48,49
 420 1046 420 1046 595 954 c 2,50,-1
 785 854 l 2,51,52
 1040 734 1040 734 1040 463 c 0,53,54
 1040 292 1040 292 918 148 c 0,55,56
 778 -20 778 -20 538 -20 c 0,8,9
EndSplineSet
Validated: 1
EndChar

StartChar: uni1E61
Encoding: 7777 7777 183
Width: 1200
Flags: W
HStem: -20 151<422.036 726.914> 969 151<507.463 731.462> 1220 245<516.097 683.903>
VStem: 305 170<760.527 943.994> 480 240<1257.13 1427.87> 811 170<210.443 440.44>
DStem2: 621 701 561 540 0.929906 -0.367798<-161.429 273.584>
LayerCount: 2
Fore
SplineSet
600 1465 m 128,-1,1
 650 1465 650 1465 685 1429 c 128,-1,2
 720 1393 720 1393 720 1342.5 c 128,-1,3
 720 1292 720 1292 685 1256 c 128,-1,4
 650 1220 650 1220 600 1220 c 128,-1,5
 550 1220 550 1220 515 1256 c 128,-1,6
 480 1292 480 1292 480 1342.5 c 128,-1,7
 480 1393 480 1393 515 1429 c 128,-1,0
 550 1465 550 1465 600 1465 c 128,-1,1
574 -20 m 128,-1,9
 391 -20 391 -20 232 119 c 0,10,11
 219 131 219 131 219 148 c 128,-1,12
 219 165 219 165 237 182 c 2,13,-1
 294 240 l 2,14,15
 307 253 307 253 320 252 c 0,16,17
 341 252 341 252 356 234 c 0,18,19
 442 131 442 131 571 131 c 0,20,21
 671 131 671 131 738 184 c 0,22,23
 811 241 811 241 811 328 c 0,24,25
 811 447 811 447 669 499 c 2,26,-1
 561 540 l 2,27,28
 305 636 305 636 305 848 c 0,29,30
 305 966 305 966 401 1051 c 0,31,32
 480 1120 480 1120 613 1120 c 0,33,34
 794 1120 794 1120 885 1009 c 0,35,36
 899 992 899 992 899 980 c 0,37,38
 899 963 899 963 881 945 c 2,39,-1
 824 887 l 2,40,41
 811 874 811 874 798 875 c 0,42,43
 777 875 777 875 762 893 c 0,44,45
 700 968 700 968 611 969 c 0,46,47
 552 969 552 969 517 944 c 0,48,49
 475 914 475 914 475 852 c 0,50,51
 475 758 475 758 621 701 c 2,52,-1
 755 648 l 2,53,54
 981 559 981 559 981 348 c 0,55,56
 981 193 981 193 875 92 c 0,57,8
 757 -20 757 -20 574 -20 c 128,-1,9
EndSplineSet
Validated: 1
EndChar

StartChar: uni1E6A
Encoding: 7786 7786 184
Width: 1200
Flags: W
HStem: 0 21G<535 665> 1340 160<120.11 510 690 1079.89> 1630 245<516.097 683.903>
VStem: 480 240<1667.13 1837.87> 510 180<0.191406 1340>
LayerCount: 2
Fore
SplineSet
560 0 m 2,0,1
 510 0 510 0 510 49 c 2,2,-1
 510 1340 l 1,3,-1
 170 1340 l 2,4,5
 120 1340 120 1340 120 1389 c 2,6,-1
 120 1451 l 2,7,8
 120 1500 120 1500 170 1500 c 2,9,-1
 1030 1500 l 2,10,11
 1080 1500 1080 1500 1080 1451 c 2,12,-1
 1080 1389 l 2,13,14
 1080 1340 1080 1340 1030 1340 c 2,15,-1
 690 1340 l 1,16,-1
 690 49 l 2,17,18
 690 0 690 0 640 0 c 2,19,-1
 560 0 l 2,0,1
600 1875 m 128,-1,21
 650 1875 650 1875 685 1839 c 128,-1,22
 720 1803 720 1803 720 1752.5 c 128,-1,23
 720 1702 720 1702 685 1666 c 128,-1,24
 650 1630 650 1630 600 1630 c 128,-1,25
 550 1630 550 1630 515 1666 c 128,-1,26
 480 1702 480 1702 480 1752.5 c 128,-1,27
 480 1803 480 1803 515 1839 c 128,-1,20
 550 1875 550 1875 600 1875 c 128,-1,21
EndSplineSet
Validated: 1
EndChar

StartChar: uni1E6B
Encoding: 7787 7787 185
Width: 1200
Flags: W
HStem: 0 150<731.106 1033.89> 950 150<140.11 464 634 967.89> 1480 20G<489 609> 1630 245<476.097 643.903>
VStem: 440 240<1667.13 1837.87> 464 170<246.018 950 1100 1499.81>
LayerCount: 2
Fore
SplineSet
879 0 m 2,0,1
 686 0 686 0 577 106 c 0,2,3
 464 216 464 216 464 408 c 2,4,-1
 464 950 l 1,5,-1
 190 950 l 2,6,7
 140 950 140 950 140 999 c 2,8,-1
 140 1051 l 2,9,10
 140 1100 140 1100 190 1100 c 2,11,-1
 464 1100 l 1,12,-1
 464 1451 l 2,13,14
 464 1500 464 1500 514 1500 c 2,15,-1
 584 1500 l 2,16,17
 634 1500 634 1500 634 1451 c 2,18,-1
 634 1100 l 1,19,-1
 918 1100 l 2,20,21
 968 1100 968 1100 968 1051 c 2,22,-1
 968 999 l 2,23,24
 968 950 968 950 918 950 c 2,25,-1
 634 950 l 1,26,-1
 634 386 l 2,27,28
 634 280 634 280 704 215 c 128,-1,29
 774 150 774 150 879 150 c 2,30,-1
 984 150 l 2,31,32
 1034 150 1034 150 1034 101 c 2,33,-1
 1034 49 l 2,34,35
 1034 0 1034 0 984 0 c 2,36,-1
 879 0 l 2,0,1
560 1875 m 128,-1,38
 610 1875 610 1875 645 1839 c 128,-1,39
 680 1803 680 1803 680 1752.5 c 128,-1,40
 680 1702 680 1702 645 1666 c 128,-1,41
 610 1630 610 1630 560 1630 c 128,-1,42
 510 1630 510 1630 475 1666 c 128,-1,43
 440 1702 440 1702 440 1752.5 c 128,-1,44
 440 1803 440 1803 475 1839 c 128,-1,37
 510 1875 510 1875 560 1875 c 128,-1,38
EndSplineSet
Validated: 1
EndChar

StartChar: Wgrave
Encoding: 7808 7808 186
Width: 1200
Flags: W
HStem: 0 21G<218 420.5 779.5 982> 1480 20G<44.5 162 1038 1155.5>
DStem2: 330 240 20 1451 0.120374 -0.992729<-1248.44 0> 330 240 450 49 0.186939 0.982371<0 631.851> 870 240 1010 49 0.120374 0.992729<0 1248.44>
LayerCount: 2
Fore
SplineSet
512 1930 m 0,0,1
 530 1930 530 1930 542 1910 c 2,2,-1
 697 1660 l 2,3,4
 705 1647 705 1647 705 1636 c 0,5,6
 705 1620 705 1620 685 1605 c 2,7,-1
 650 1579 l 2,8,9
 638 1570 638 1570 623 1570 c 0,10,11
 607 1570 607 1570 592 1588 c 2,12,-1
 407 1811 l 2,13,14
 395 1825 395 1825 395 1840 c 0,15,16
 395 1858 395 1858 415 1872 c 2,17,-1
 487 1922 l 2,18,19
 499 1930 499 1930 512 1930 c 0,0,1
240 0 m 2,20,21
 196 0 196 0 190 49 c 2,22,-1
 20 1451 l 2,23,24
 19 1456 19 1456 19 1460 c 0,25,26
 19 1500 19 1500 70 1500 c 2,27,-1
 140 1500 l 2,28,29
 184 1500 184 1500 190 1451 c 2,30,-1
 330 240 l 1,31,-1
 489 984 l 2,32,33
 499 1032 499 1032 540 1032 c 2,34,-1
 659 1032 l 2,35,36
 698 1032 698 1032 709 983 c 2,37,-1
 870 240 l 1,38,-1
 1010 1451 l 2,39,40
 1016 1500 1016 1500 1060 1500 c 2,41,-1
 1130 1500 l 2,42,43
 1181 1500 1181 1500 1181 1460 c 0,44,45
 1181 1456 1181 1456 1180 1451 c 2,46,-1
 1010 49 l 2,47,48
 1004 0 1004 0 960 0 c 2,49,-1
 800 0 l 2,50,51
 759 0 759 0 750 49 c 2,52,-1
 599 832 l 1,53,-1
 450 49 l 2,54,55
 441 0 441 0 400 0 c 2,56,-1
 240 0 l 2,20,21
EndSplineSet
Validated: 1
EndChar

StartChar: wgrave
Encoding: 7809 7809 187
Width: 1200
Flags: W
HStem: 0 21G<221 420.5 779.5 979> 1080 20G<37 148 1052 1163> 1500 20G<495.5 511>
DStem2: 181 1066 22 1051 0.16727 -0.985911<-31.6126 877.05> 320 200 450 49 0.210721 0.977546<0 676.6> 709 983 599 832 0.213362 -0.976973<124.053 801.455> 880 200 1008 49 0.16727 0.985911<0 908.662>
LayerCount: 2
Fore
SplineSet
502 1520 m 0,0,1
 520 1520 520 1520 532 1500 c 2,2,-1
 687 1250 l 2,3,4
 695 1237 695 1237 695 1226 c 0,5,6
 695 1210 695 1210 675 1195 c 2,7,-1
 640 1169 l 2,8,9
 628 1160 628 1160 613 1160 c 0,10,11
 597 1160 597 1160 582 1178 c 2,12,-1
 397 1401 l 2,13,14
 385 1415 385 1415 385 1430 c 0,15,16
 385 1448 385 1448 405 1462 c 2,17,-1
 477 1512 l 2,18,19
 489 1520 489 1520 502 1520 c 0,0,1
242 0 m 2,20,21
 200 0 200 0 192 49 c 2,22,-1
 22 1051 l 2,23,24
 20 1063 20 1063 20 1071 c 0,25,26
 20 1100 20 1100 54 1100 c 2,27,-1
 120 1100 l 2,28,29
 176 1100 176 1100 181 1066 c 2,30,-1
 320 200 l 17,31,-1
 489 984 l 2,32,33
 499 1032 499 1032 540 1032 c 2,34,-1
 659 1032 l 2,35,36
 698 1032 698 1032 709 983 c 2,37,-1
 880 200 l 9,38,-1
 1019 1066 l 2,39,40
 1024 1100 1024 1100 1080 1100 c 2,41,-1
 1146 1100 l 2,42,43
 1180 1100 1180 1100 1180 1071 c 0,44,45
 1180 1063 1180 1063 1178 1051 c 2,46,-1
 1008 49 l 2,47,48
 1000 0 1000 0 958 0 c 2,49,-1
 800 0 l 2,50,51
 759 0 759 0 750 49 c 2,52,-1
 599 832 l 1,53,-1
 450 49 l 2,54,55
 441 0 441 0 400 0 c 2,56,-1
 242 0 l 2,20,21
EndSplineSet
Validated: 1
EndChar

StartChar: Wacute
Encoding: 7810 7810 188
Width: 1200
Flags: W
HStem: 0 21G<218 420.5 779.5 982> 1480 20G<44.5 162 1038 1155.5>
DStem2: 330 240 20 1451 0.120374 -0.992729<-1248.44 0> 330 240 450 49 0.186939 0.982371<0 631.851> 870 240 1010 49 0.120374 0.992729<0 1248.44>
LayerCount: 2
Fore
SplineSet
688 1930 m 0,0,1
 701 1930 701 1930 713 1922 c 2,2,-1
 785 1872 l 2,3,4
 805 1858 805 1858 805 1840 c 0,5,6
 805 1825 805 1825 793 1811 c 2,7,-1
 608 1588 l 2,8,9
 593 1570 593 1570 577 1570 c 0,10,11
 562 1570 562 1570 550 1579 c 2,12,-1
 515 1605 l 2,13,14
 495 1620 495 1620 495 1636 c 0,15,16
 495 1647 495 1647 503 1660 c 2,17,-1
 658 1910 l 2,18,19
 670 1930 670 1930 688 1930 c 0,0,1
240 0 m 2,20,21
 196 0 196 0 190 49 c 2,22,-1
 20 1451 l 2,23,24
 19 1456 19 1456 19 1460 c 0,25,26
 19 1500 19 1500 70 1500 c 2,27,-1
 140 1500 l 2,28,29
 184 1500 184 1500 190 1451 c 2,30,-1
 330 240 l 1,31,-1
 489 984 l 2,32,33
 499 1032 499 1032 540 1032 c 2,34,-1
 659 1032 l 2,35,36
 698 1032 698 1032 709 983 c 2,37,-1
 870 240 l 1,38,-1
 1010 1451 l 2,39,40
 1016 1500 1016 1500 1060 1500 c 2,41,-1
 1130 1500 l 2,42,43
 1181 1500 1181 1500 1181 1460 c 0,44,45
 1181 1456 1181 1456 1180 1451 c 2,46,-1
 1010 49 l 2,47,48
 1004 0 1004 0 960 0 c 2,49,-1
 800 0 l 2,50,51
 759 0 759 0 750 49 c 2,52,-1
 599 832 l 1,53,-1
 450 49 l 2,54,55
 441 0 441 0 400 0 c 2,56,-1
 240 0 l 2,20,21
EndSplineSet
Validated: 1
EndChar

StartChar: wacute
Encoding: 7811 7811 189
Width: 1200
Flags: W
HStem: 0 21G<221 420.5 779.5 979> 1080 20G<37 148 1052 1163> 1500 20G<677 692.5>
DStem2: 181 1066 22 1051 0.16727 -0.985911<-31.6126 877.05> 320 200 450 49 0.210721 0.977546<0 676.6> 709 983 599 832 0.213362 -0.976973<124.053 801.455> 880 200 1008 49 0.16727 0.985911<0 908.662>
LayerCount: 2
Fore
SplineSet
686 1520 m 0,0,1
 699 1520 699 1520 711 1512 c 2,2,-1
 783 1462 l 2,3,4
 803 1448 803 1448 803 1430 c 0,5,6
 803 1415 803 1415 791 1401 c 2,7,-1
 606 1178 l 2,8,9
 591 1160 591 1160 575 1160 c 0,10,11
 560 1160 560 1160 548 1169 c 2,12,-1
 513 1195 l 2,13,14
 493 1210 493 1210 493 1226 c 0,15,16
 493 1237 493 1237 501 1250 c 2,17,-1
 656 1500 l 2,18,19
 668 1520 668 1520 686 1520 c 0,0,1
242 0 m 2,20,21
 200 0 200 0 192 49 c 2,22,-1
 22 1051 l 2,23,24
 20 1063 20 1063 20 1071 c 0,25,26
 20 1100 20 1100 54 1100 c 2,27,-1
 120 1100 l 2,28,29
 176 1100 176 1100 181 1066 c 2,30,-1
 320 200 l 17,31,-1
 489 984 l 2,32,33
 499 1032 499 1032 540 1032 c 2,34,-1
 659 1032 l 2,35,36
 698 1032 698 1032 709 983 c 2,37,-1
 880 200 l 9,38,-1
 1019 1066 l 2,39,40
 1024 1100 1024 1100 1080 1100 c 2,41,-1
 1146 1100 l 2,42,43
 1180 1100 1180 1100 1180 1071 c 0,44,45
 1180 1063 1180 1063 1178 1051 c 2,46,-1
 1008 49 l 2,47,48
 1000 0 1000 0 958 0 c 2,49,-1
 800 0 l 2,50,51
 759 0 759 0 750 49 c 2,52,-1
 599 832 l 1,53,-1
 450 49 l 2,54,55
 441 0 441 0 400 0 c 2,56,-1
 242 0 l 2,20,21
EndSplineSet
Validated: 1
EndChar

StartChar: Wdieresis
Encoding: 7812 7812 190
Width: 1200
Flags: W
HStem: 0 21G<218 420.5 779.5 982> 1480 20G<44.5 162 1038 1155.5> 1640 227<384.034 539.966 661.004 816.996>
VStem: 350 224<1674.55 1832.45> 628 222<1675.07 1832.93>
DStem2: 330 240 20 1451 0.120374 -0.992729<-1248.44 0> 330 240 450 49 0.186939 0.982371<0 631.851> 870 240 1010 49 0.120374 0.992729<0 1248.44>
LayerCount: 2
Fore
SplineSet
739 1868 m 128,-1,1
 786 1868 786 1868 818 1834 c 128,-1,2
 850 1800 850 1800 850 1754 c 128,-1,3
 850 1708 850 1708 818 1674 c 128,-1,4
 786 1640 786 1640 739 1640 c 128,-1,5
 692 1640 692 1640 660 1674 c 128,-1,6
 628 1708 628 1708 628 1754 c 128,-1,7
 628 1800 628 1800 660 1834 c 128,-1,0
 692 1868 692 1868 739 1868 c 128,-1,1
462 1867 m 128,-1,9
 508 1867 508 1867 541 1833.5 c 128,-1,10
 574 1800 574 1800 574 1753.5 c 128,-1,11
 574 1707 574 1707 541 1673.5 c 128,-1,12
 508 1640 508 1640 462 1640 c 128,-1,13
 416 1640 416 1640 383 1673.5 c 128,-1,14
 350 1707 350 1707 350 1753.5 c 128,-1,15
 350 1800 350 1800 383 1833.5 c 128,-1,8
 416 1867 416 1867 462 1867 c 128,-1,9
240 0 m 2,16,17
 196 0 196 0 190 49 c 2,18,-1
 20 1451 l 2,19,20
 19 1456 19 1456 19 1460 c 0,21,22
 19 1500 19 1500 70 1500 c 2,23,-1
 140 1500 l 2,24,25
 184 1500 184 1500 190 1451 c 2,26,-1
 330 240 l 1,27,-1
 489 984 l 2,28,29
 499 1032 499 1032 540 1032 c 2,30,-1
 659 1032 l 2,31,32
 698 1032 698 1032 709 983 c 2,33,-1
 870 240 l 1,34,-1
 1010 1451 l 2,35,36
 1016 1500 1016 1500 1060 1500 c 2,37,-1
 1130 1500 l 2,38,39
 1181 1500 1181 1500 1181 1460 c 0,40,41
 1181 1456 1181 1456 1180 1451 c 2,42,-1
 1010 49 l 2,43,44
 1004 0 1004 0 960 0 c 2,45,-1
 800 0 l 2,46,47
 759 0 759 0 750 49 c 2,48,-1
 599 832 l 1,49,-1
 450 49 l 2,50,51
 441 0 441 0 400 0 c 2,52,-1
 240 0 l 2,16,17
EndSplineSet
Validated: 1
EndChar

StartChar: wdieresis
Encoding: 7813 7813 191
Width: 1200
Flags: W
HStem: 0 21G<221 420.5 779.5 979> 1080 20G<37 148 1052 1163> 1230 227<384.034 539.966 661.004 816.996>
VStem: 350 224<1264.55 1422.45> 628 222<1265.07 1422.93>
DStem2: 181 1066 22 1051 0.16727 -0.985911<-31.6126 877.05> 320 200 450 49 0.210721 0.977546<0 676.6> 709 983 599 832 0.213362 -0.976973<124.053 801.455> 880 200 1008 49 0.16727 0.985911<0 908.662>
LayerCount: 2
Fore
SplineSet
739 1458 m 128,-1,1
 786 1458 786 1458 818 1424 c 128,-1,2
 850 1390 850 1390 850 1344 c 128,-1,3
 850 1298 850 1298 818 1264 c 128,-1,4
 786 1230 786 1230 739 1230 c 128,-1,5
 692 1230 692 1230 660 1264 c 128,-1,6
 628 1298 628 1298 628 1344 c 128,-1,7
 628 1390 628 1390 660 1424 c 128,-1,0
 692 1458 692 1458 739 1458 c 128,-1,1
462 1457 m 128,-1,9
 508 1457 508 1457 541 1423.5 c 128,-1,10
 574 1390 574 1390 574 1343.5 c 128,-1,11
 574 1297 574 1297 541 1263.5 c 128,-1,12
 508 1230 508 1230 462 1230 c 128,-1,13
 416 1230 416 1230 383 1263.5 c 128,-1,14
 350 1297 350 1297 350 1343.5 c 128,-1,15
 350 1390 350 1390 383 1423.5 c 128,-1,8
 416 1457 416 1457 462 1457 c 128,-1,9
242 0 m 2,16,17
 200 0 200 0 192 49 c 2,18,-1
 22 1051 l 2,19,20
 20 1063 20 1063 20 1071 c 0,21,22
 20 1100 20 1100 54 1100 c 2,23,-1
 120 1100 l 2,24,25
 176 1100 176 1100 181 1066 c 2,26,-1
 320 200 l 17,27,-1
 489 984 l 2,28,29
 499 1032 499 1032 540 1032 c 2,30,-1
 659 1032 l 2,31,32
 698 1032 698 1032 709 983 c 2,33,-1
 880 200 l 9,34,-1
 1019 1066 l 2,35,36
 1024 1100 1024 1100 1080 1100 c 2,37,-1
 1146 1100 l 2,38,39
 1180 1100 1180 1100 1180 1071 c 0,40,41
 1180 1063 1180 1063 1178 1051 c 2,42,-1
 1008 49 l 2,43,44
 1000 0 1000 0 958 0 c 2,45,-1
 800 0 l 2,46,47
 759 0 759 0 750 49 c 2,48,-1
 599 832 l 1,49,-1
 450 49 l 2,50,51
 441 0 441 0 400 0 c 2,52,-1
 242 0 l 2,16,17
EndSplineSet
Validated: 1
EndChar

StartChar: uni1E9E
Encoding: 7838 7838 192
Width: 1200
Flags: W
HStem: -20 160<525 745.971> 0 21G<219.5 360> 1340 160<380 706.108>
VStem: 200 180<0 1340> 880 180<270.074 615.18>
DStem2: 498 787 711 880 0.444249 0.895903<177.944 549.798>
LayerCount: 2
Fore
SplineSet
239 0 m 2,0,1
 200 0 200 0 200 39 c 2,2,-1
 200 1461 l 2,3,4
 200 1500 200 1500 240 1500 c 2,5,-1
 565 1500 l 2,6,7
 727 1500 727 1500 840 1410 c 0,8,9
 882 1377 882 1377 911 1335 c 0,10,11
 920 1322 920 1322 920 1305 c 0,12,13
 920 1290 920 1290 910 1270 c 2,14,-1
 711 880 l 1,15,16
 843 843 843 843 919 777 c 0,17,18
 1060 654 1060 654 1060 453 c 0,19,20
 1060 238 1060 238 935 114 c 0,21,22
 801 -20 801 -20 565 -20 c 0,23,24
 525 -20 525 -20 525 19 c 2,25,-1
 525 101 l 2,26,27
 525 140 525 140 565 140 c 0,28,29
 726 140 726 140 812 238 c 0,30,31
 880 314 880 314 880 453 c 0,32,33
 880 569 880 569 813 647 c 0,34,35
 729 746 729 746 565 746 c 2,36,-1
 536 746 l 2,37,38
 492 746 492 746 492 765 c 0,39,40
 492 775 492 775 498 787 c 2,41,-1
 738 1271 l 1,42,43
 664 1340 664 1340 565 1340 c 2,44,-1
 380 1340 l 1,45,-1
 380 39 l 2,46,47
 380 0 380 0 340 0 c 2,48,-1
 239 0 l 2,0,1
EndSplineSet
Validated: 19457
EndChar

StartChar: Ygrave
Encoding: 7922 7922 193
Width: 1200
Flags: W
HStem: 0 21G<535 665> 1480 20G<105 244.5 955.5 1095>
VStem: 510 180<0.191406 650>
DStem2: 600 834 90 1453 0.463471 -0.886112<-774.612 0> 600 834 690 650 0.463471 0.886112<0 774.612>
LayerCount: 2
Fore
SplineSet
512 1930 m 0,0,1
 530 1930 530 1930 542 1910 c 2,2,-1
 697 1660 l 2,3,4
 705 1647 705 1647 705 1636 c 0,5,6
 705 1620 705 1620 685 1605 c 2,7,-1
 650 1579 l 2,8,9
 638 1570 638 1570 623 1570 c 0,10,11
 607 1570 607 1570 592 1588 c 2,12,-1
 407 1811 l 2,13,14
 395 1825 395 1825 395 1840 c 0,15,16
 395 1858 395 1858 415 1872 c 2,17,-1
 487 1922 l 2,18,19
 499 1930 499 1930 512 1930 c 0,0,1
560 0 m 2,20,21
 510 0 510 0 510 49 c 2,22,-1
 510 650 l 1,23,-1
 90 1453 l 2,24,25
 86 1461 86 1461 86 1474 c 0,26,27
 86 1500 86 1500 124 1500 c 2,28,-1
 228 1500 l 2,29,30
 261 1500 261 1500 278 1466 c 2,31,-1
 600 834 l 1,32,-1
 922 1466 l 2,33,34
 939 1500 939 1500 972 1500 c 2,35,-1
 1076 1500 l 2,36,37
 1114 1500 1114 1500 1114 1474 c 0,38,39
 1114 1461 1114 1461 1110 1453 c 2,40,-1
 690 650 l 1,41,-1
 690 49 l 2,42,43
 690 0 690 0 640 0 c 2,44,-1
 560 0 l 2,20,21
EndSplineSet
Validated: 1
EndChar

StartChar: ygrave
Encoding: 7923 7923 194
Width: 1200
Flags: W
HStem: -420 150<279.11 446.77> 1080 20G<118.5 250 960 1081.5> 1500 20G<495.5 511>
DStem2: 605 158 104 1053 0.331754 -0.943366<-1014.12 0> 510 -122 666 -168 0.332174 0.943218<-147.257 130.685 295.658 1311.02>
LayerCount: 2
Fore
SplineSet
512 0 m 2,0,1
 474 0 474 0 462 35 c 2,2,-1
 104 1053 l 2,3,4
 100 1064 100 1064 100 1074 c 0,5,6
 100 1100 100 1100 137 1100 c 2,7,-1
 231 1100 l 2,8,9
 269 1100 269 1100 281 1066 c 2,10,-1
 605 158 l 1,11,-1
 929 1066 l 2,12,13
 941 1100 941 1100 979 1100 c 2,14,-1
 1063 1100 l 2,15,16
 1100 1100 1100 1100 1100 1074 c 0,17,18
 1100 1064 1100 1064 1096 1053 c 2,19,-1
 666 -168 l 2,20,21
 632 -264 632 -264 574 -321 c 0,22,23
 473 -420 473 -420 329 -420 c 0,24,25
 279 -420 279 -420 279 -371 c 2,26,-1
 279 -319 l 2,27,28
 279 -270 279 -270 329 -270 c 0,29,30
 398 -270 398 -270 447 -226 c 0,31,32
 482 -194 482 -194 510 -122 c 2,33,-1
 557 0 l 1,34,-1
 512 0 l 2,0,1
502 1520 m 0,35,36
 520 1520 520 1520 532 1500 c 2,37,-1
 687 1250 l 2,38,39
 695 1237 695 1237 695 1226 c 0,40,41
 695 1210 695 1210 675 1195 c 2,42,-1
 640 1169 l 2,43,44
 628 1160 628 1160 613 1160 c 0,45,46
 597 1160 597 1160 582 1178 c 2,47,-1
 397 1401 l 2,48,49
 385 1415 385 1415 385 1430 c 0,50,51
 385 1448 385 1448 405 1462 c 2,52,-1
 477 1512 l 2,53,54
 489 1520 489 1520 502 1520 c 0,35,36
EndSplineSet
Validated: 1
EndChar

StartChar: afii61352
Encoding: 8470 8470 195
Width: 1200
Flags: W
HStem: 0 21G<69 169 389.5 596> 736 130<659 1155> 911 117<826.885 988.082> 1404 116<825.716 987.185> 1480 20G<69 275.5 496 596>
VStem: 44 260<1346.18 1499.81> 44 150<0.191406 1270> 471 150<230 1499.81> 659 126<1071.57 1363.68> 1027 128<1070.65 1364.97>
DStem2: 304 1451 194 1270 0.135512 -0.990776<164.424 1232.37>
LayerCount: 2
Fore
SplineSet
699 866 m 2,0,-1
 1115 866 l 2,1,2
 1155 866 1155 866 1155 826 c 2,3,-1
 1155 776 l 2,4,5
 1155 736 1155 736 1115 736 c 2,6,-1
 699 736 l 2,7,8
 659 736 659 736 659 776 c 2,9,-1
 659 826 l 2,10,11
 659 866 659 866 699 866 c 2,0,-1
907 1028 m 128,-1,13
 953 1028 953 1028 990 1073.5 c 128,-1,14
 1027 1119 1027 1119 1027 1215 c 0,15,16
 1027 1312 1027 1312 987 1364 c 0,17,18
 956 1404 956 1404 907 1404 c 24,19,20
 860 1404 860 1404 826 1363 c 0,21,22
 785 1314 785 1314 785 1217.5 c 128,-1,23
 785 1121 785 1121 825 1073 c 0,24,12
 861 1028 861 1028 907 1028 c 128,-1,13
907 911 m 8,25,26
 801 911 801 911 736 987 c 0,27,28
 659 1077 659 1077 659 1218.5 c 128,-1,29
 659 1360 659 1360 735 1443 c 0,30,31
 806 1520 806 1520 907 1520 c 24,32,33
 1011 1520 1011 1520 1079 1443 c 0,34,35
 1155 1357 1155 1357 1155 1217 c 0,36,37
 1155 1080 1155 1080 1078 987 c 0,38,39
 1015 911 1015 911 907 911 c 8,25,26
94 0 m 2,40,41
 44 0 44 0 44 49 c 2,42,-1
 44 1451 l 2,43,44
 44 1500 44 1500 94 1500 c 2,45,-1
 254 1500 l 2,46,47
 297 1500 297 1500 304 1451 c 2,48,-1
 471 230 l 1,49,-1
 471 1451 l 2,50,51
 471 1500 471 1500 521 1500 c 2,52,-1
 571 1500 l 2,53,54
 621 1500 621 1500 621 1451 c 2,55,-1
 621 49 l 2,56,57
 621 0 621 0 571 0 c 2,58,-1
 411 0 l 2,59,60
 368 0 368 0 361 49 c 2,61,-1
 194 1270 l 1,62,-1
 194 49 l 2,63,64
 194 0 194 0 144 0 c 2,65,-1
 94 0 l 2,40,41
EndSplineSet
Validated: 1
EndChar

StartChar: uni2117
Encoding: 8471 8471 196
Width: 1200
Flags: W
HStem: 386 48<443.95 750.054> 820 120<538 715.871> 1201 120<538 715.933> 1478 52<443.315 755.855>
VStem: 50 50<794.694 1125.05> 408 130<561.378 820 940 1201> 747 136<974.671 1165.3> 1100 50<785.868 1126.58>
LayerCount: 2
Fore
SplineSet
452 551 m 2,0,1
 435 551 435 551 423 561 c 0,2,3
 408 573 408 573 408 596 c 2,4,-1
 408 1276 l 2,5,6
 408 1299 408 1299 423 1311 c 0,7,8
 435 1321 435 1321 452 1321 c 2,9,-1
 619 1321 l 2,10,11
 739 1321 739 1321 816 1243 c 0,12,13
 883 1173 883 1173 883 1070 c 152,-1,14
 883 967 883 967 816 897 c 0,15,16
 740 820 740 820 619 820 c 2,17,-1
 538 820 l 1,18,-1
 538 596 l 2,19,20
 538 573 538 573 523 561 c 0,21,22
 511 551 511 551 494 551 c 2,23,-1
 452 551 l 2,0,1
629 1201 m 2,24,-1
 538 1201 l 1,25,-1
 538 940 l 1,26,-1
 629 940 l 2,27,28
 681 940 681 940 717 981 c 0,29,30
 747 1017 747 1017 747 1069 c 128,-1,31
 747 1121 747 1121 717 1159 c 0,32,33
 683 1200 683 1200 629 1201 c 2,24,-1
600 1530 m 0,34,35
 842 1530 842 1530 998 1357 c 0,36,37
 1150 1188 1150 1188 1150 953 c 0,38,39
 1150 701 1150 701 990 549 c 0,40,41
 818 386 818 386 598 386 c 0,42,43
 374 386 374 386 210 549 c 0,44,45
 50 708 50 708 50 953 c 0,46,47
 50 1197 50 1197 208 1362 c 0,48,49
 368 1530 368 1530 600 1530 c 0,34,35
598 1478 m 0,50,51
 398 1478 398 1478 250 1330 c 0,52,53
 100 1181 100 1181 100 953 c 0,54,55
 100 750 100 750 246 587 c 0,56,57
 384 434 384 434 600 434 c 0,58,59
 802 434 802 434 954 587 c 0,60,61
 1100 734 1100 734 1100 953 c 0,62,63
 1100 1185 1100 1185 956 1327 c 0,64,65
 802 1478 802 1478 598 1478 c 0,50,51
EndSplineSet
Validated: 1
EndChar

StartChar: integral
Encoding: 8747 8747 197
Width: 1200
Flags: W
HStem: -410 160<120.11 422.894> 1340 160<777.106 1079.89>
VStem: 510 180<-163.982 1253.98>
LayerCount: 2
Fore
SplineSet
275 -410 m 2,0,-1
 170 -410 l 2,1,2
 120 -410 120 -410 120 -361 c 2,3,-1
 120 -299 l 2,4,5
 120 -250 120 -250 170 -250 c 2,6,-1
 275 -250 l 2,7,8
 380 -250 380 -250 445 -190 c 128,-1,9
 510 -130 510 -130 510 -24 c 2,10,-1
 510 1092 l 2,11,12
 510 1284 510 1284 623 1394 c 0,13,14
 732 1500 732 1500 925 1500 c 2,15,-1
 1030 1500 l 2,16,17
 1080 1500 1080 1500 1080 1451 c 2,18,-1
 1080 1389 l 2,19,20
 1080 1340 1080 1340 1030 1340 c 2,21,-1
 925 1340 l 2,22,23
 820 1340 820 1340 755 1280 c 128,-1,24
 690 1220 690 1220 690 1114 c 2,25,-1
 690 -2 l 2,26,27
 690 -194 690 -194 577 -304 c 0,28,29
 468 -410 468 -410 275 -410 c 2,0,-1
EndSplineSet
Validated: 1
EndChar

StartChar: copyright
Encoding: 169 169 198
Width: 1200
Flags: W
HStem: 386 48<443.95 750.054> 554 120<527.602 704.271> 1224 120<528.053 704.271> 1478 52<443.315 755.855>
VStem: 50 50<794.694 1125.05> 334 132<741.707 1154.93> 1100 50<785.868 1126.58>
LayerCount: 2
Fore
SplineSet
618 554 m 0,0,1
 475 554 475 554 403 674 c 0,2,3
 334 788 334 788 334 949 c 0,4,5
 334 1113 334 1113 403 1224 c 0,6,7
 477 1344 477 1344 618 1344 c 0,8,9
 755 1344 755 1344 831 1221 c 0,10,11
 840 1207 840 1207 840 1197 c 0,12,13
 839 1180 839 1180 821 1166 c 2,14,-1
 783 1137 l 2,15,16
 772 1129 772 1129 758 1129 c 0,17,18
 741 1129 741 1129 729 1147 c 0,19,20
 679 1224 679 1224 622 1224 c 16,21,22
 548 1224 548 1224 508 1152 c 0,23,24
 466 1078 466 1078 466 951 c 0,25,26
 466 820 466 820 508 746 c 0,27,28
 548 674 548 674 622 674 c 8,29,30
 679 674 679 674 729 751 c 0,31,32
 741 769 741 769 758 769 c 0,33,34
 772 769 772 769 783 760 c 2,35,-1
 822 731 l 2,36,37
 840 717 840 717 840 701 c 0,38,39
 840 691 840 691 831 677 c 0,40,41
 755 554 755 554 618 554 c 0,0,1
600 1530 m 0,42,43
 842 1530 842 1530 998 1357 c 0,44,45
 1150 1188 1150 1188 1150 953 c 0,46,47
 1150 701 1150 701 990 549 c 0,48,49
 818 386 818 386 598 386 c 0,50,51
 374 386 374 386 210 549 c 0,52,53
 50 708 50 708 50 953 c 0,54,55
 50 1197 50 1197 208 1362 c 0,56,57
 368 1530 368 1530 600 1530 c 0,42,43
598 1478 m 0,58,59
 398 1478 398 1478 250 1330 c 0,60,61
 100 1181 100 1181 100 953 c 0,62,63
 100 750 100 750 246 587 c 0,64,65
 384 434 384 434 600 434 c 0,66,67
 802 434 802 434 954 587 c 0,68,69
 1100 734 1100 734 1100 953 c 0,70,71
 1100 1185 1100 1185 956 1327 c 0,72,73
 802 1478 802 1478 598 1478 c 0,58,59
EndSplineSet
Validated: 1
EndChar

StartChar: registered
Encoding: 174 174 199
Width: 1200
Flags: W
HStem: 386 48<443.95 750.054> 823 120<526 609> 1224 120<526 704.963> 1478 52<443.315 755.855>
VStem: 50 50<794.694 1125.05> 396 130<570.376 823 943 1224> 736 135<980.994 1185.85> 1100 50<785.868 1126.58>
DStem2: 738 853 609 823 0.504534 -0.863392<-1.65846 298.47>
LayerCount: 2
Fore
SplineSet
526 1224 m 1,0,-1
 526 943 l 1,1,-1
 618 943 l 2,2,3
 670 943 670 943 705 987 c 0,4,5
 736 1026 736 1026 736 1082 c 128,-1,6
 736 1138 736 1138 706 1179 c 0,7,8
 673 1223 673 1223 618 1224 c 2,9,-1
 526 1224 l 1,0,-1
441 554 m 2,10,11
 423 555 423 555 412 564 c 0,12,13
 396 576 396 576 396 599 c 2,14,-1
 396 1299 l 2,15,16
 396 1322 396 1322 412 1334 c 0,17,18
 423 1343 423 1343 441 1344 c 2,19,-1
 608 1344 l 2,20,21
 729 1343 729 1343 804 1263 c 0,22,23
 871 1192 871 1192 871 1085 c 0,24,25
 871 976 871 976 804 903 c 0,26,27
 775 872 775 872 738 853 c 1,28,-1
 880 610 l 2,29,30
 886 601 886 601 886 589 c 0,31,32
 886 570 886 570 871 560 c 0,33,34
 861 554 861 554 847 554 c 2,35,-1
 798 554 l 2,36,37
 767 554 767 554 750 581 c 0,38,-1
 609 823 l 1,39,-1
 526 823 l 1,40,-1
 526 599 l 2,41,42
 526 582 526 582 517 570 c 0,43,44
 505 555 505 555 483 554 c 2,45,-1
 441 554 l 2,10,11
600 1530 m 0,46,47
 842 1530 842 1530 998 1357 c 0,48,49
 1150 1188 1150 1188 1150 953 c 0,50,51
 1150 701 1150 701 990 549 c 0,52,53
 818 386 818 386 598 386 c 0,54,55
 374 386 374 386 210 549 c 0,56,57
 50 708 50 708 50 953 c 0,58,59
 50 1197 50 1197 208 1362 c 0,60,61
 368 1530 368 1530 600 1530 c 0,46,47
598 1478 m 0,62,63
 398 1478 398 1478 250 1330 c 0,64,65
 100 1181 100 1181 100 953 c 0,66,67
 100 750 100 750 246 587 c 0,68,69
 384 434 384 434 600 434 c 0,70,71
 802 434 802 434 954 587 c 0,72,73
 1100 734 1100 734 1100 953 c 0,74,75
 1100 1185 1100 1185 956 1327 c 0,76,77
 802 1478 802 1478 598 1478 c 0,62,63
EndSplineSet
Validated: 1
EndChar

